<?xml version="1.0" standalone="no"?>
<!DOCTYPE svg PUBLIC "-//W3C//DTD SVG 1.1//EN" "http://www.w3.org/Graphics/SVG/1.1/DTD/svg11.dtd" >
<svg xmlns="http://www.w3.org/2000/svg" xmlns:xlink="http://www.w3.org/1999/xlink" version="1.1" viewBox="-10 0 697 2048">
   <path fill="none" stroke="black" stroke-width="40"
d="M610 1650h-24l-144 -346h-14l-134 326l-261 14l44 -206q197 -14 272 -100t75 -307q0 -110 -23.5 -159.5t-105.5 -62.5l-81 -12q-47 -8 -79.5 -45.5t-33.5 -88.5q0 -86 63 -160h27q12 65 91 72l73 7q135 13 135 143q0 51 -8 153t-8 153q0 91 85 237q88 153 88 252
q0 74 -37 130z" />
</svg>
