<?xml version="1.0" encoding="utf-8"?>
<svg version="1.1" viewBox="-10 0 868 2048" xmlns="http://www.w3.org/2000/svg">
  <path fill="none" stroke="black" stroke-width="40" d="M 514 1663 L 498 1640 C 515.333 1614.667 524 1580.333 524 1537 C 524 1501.667 522.667 1448 520 1376 C 516.667 1304 515 1250.333 515 1215 C 515 1030.333 561.916 897.461 655.422 802.061 L 222 802 C 118.667 802 67 760 67 676 C 67 610.667 87.333 556 128 512 L 154 512 C 164.667 558.667 198 582 254 582 L 668 582 C 714.667 582 746.833 590.5 764.5 607.5 C 782.167 624.5 791 655.667 791 701 C 791 759.667 777 798.167 749 816.5 C 721 834.833 695.5 863.333 672.5 902 C 649.5 940.667 638 987.333 638 1042 C 638 1088.667 641.667 1158.667 649 1252 C 656.333 1346 660 1416.333 660 1463 C 660 1580.333 611.333 1647 514 1663 Z"/>
</svg>