<?xml version="1.0" encoding="utf-8"?>
<svg version="1.1" viewBox="-10 0 986 2048" xmlns="http://www.w3.org/2000/svg">
  <path fill="none" stroke="black" stroke-width="40" d="M 717 1663 L 701 1642 C 718.333 1616 727 1581 727 1537 C 727 1497.667 724.333 1438.667 719 1360 C 713.667 1280.667 711 1221.333 711 1182 C 711 1020 744.387 895.891 779.919 805.227 L 321 801 C 255.667 849.667 223 929.667 223 1041 C 223 1085.667 229.667 1153.333 243 1244 C 256.333 1334 263 1401.667 263 1447 C 263 1577 213.333 1649 114 1663 L 101 1642 C 125 1604.667 135 1545.667 131 1465 L 118 1212 C 110 1037.333 144.756 903.267 214.506 800.618 C 175.405 800.044 150.5 790.833 125.5 772.5 C 100.5 754.167 88 722 88 676 C 88 610.667 108.333 556 149 512 L 176 512 C 186.667 558.667 219.667 582 275 582 L 758 582 C 809.333 582 843.833 591.167 861.5 609.5 C 879.167 627.833 887.667 658.333 887 701 C 887 756.333 874.167 806 848.5 850 C 822.833 894 810 954.333 810 1031 C 810 1079 818 1151 834 1247 C 849.333 1343 857 1415 857 1463 C 857 1582.333 810.333 1649 717 1663 Z"/>
</svg>