<?xml version="1.0" standalone="no"?>
<!DOCTYPE svg PUBLIC "-//W3C//DTD SVG 1.1//EN" "http://www.w3.org/Graphics/SVG/1.1/DTD/svg11.dtd" >
<svg xmlns="http://www.w3.org/2000/svg" xmlns:xlink="http://www.w3.org/1999/xlink" version="1.1" viewBox="-10 0 1004 2048">
   <path fill="none" stroke="black" stroke-width="40"
d="M862 1467l-34 171h-499l48 -204h423q29 -109 29 -264q1 -154 -62.5 -249t-181.5 -94q-158 0 -292.5 200.5t-136.5 610.5h-67q-4 -51 -4 -87q0 -416 232 -671q0 -38 -20 -54.5t-93 -32.5q-126 -27 -126 -134q0 -82 42 -156h27q18 61 77 70l62 9q84 12 84 85q0 14 -4 42
q-5 29 -5 43q0 41 31 61q166 -93 181 -244q161 27 243.5 181t82.5 398q0 136 -37 319z" />
</svg>
