<?xml version="1.0" encoding="utf-8"?>
<svg version="1.1" viewBox="-10 0 1049 2048" xmlns="http://www.w3.org/2000/svg">
  <path fill="none" stroke="black" stroke-width="40" d="M 120 1638 L 120 1099 C 120 1045.667 140.333 996 181 950 L 282.13 802.784 L 245 802 C 148.333 802 100 759.333 100 674 C 100 611.333 120.333 557.333 161 512 L 187 512 C 198.333 558.667 230 582 282 582 L 561 582 C 714.333 582 813.833 604.333 859.5 649 C 905.167 693.667 928 790.667 928 940 L 928 1638 L 120 1638 Z M 377 802 L 254 980 C 224.667 1022.667 210 1074.333 210 1135 L 210 1434 L 841 1434 L 841 1164 C 841 1025.333 828.5 930.333 803.5 879 C 778.5 827.667 722 802 634 802 L 377 802 Z"/>
</svg>