<?xml version="1.0" encoding="utf-8"?>
<svg version="1.1" viewBox="-10 0 912 2048" xmlns="http://www.w3.org/2000/svg">
  <path fill="none" stroke="black" stroke-width="40" d="M 400 1638 L 88 1638 L 135 1434 L 497 1434 C 586.333 1434 648.333 1409.167 683 1359.5 C 717.667 1309.833 735 1235 735 1135 C 735 1025 720.667 942 692 886 C 663.333 830 605.667 802 519 802 L 257 802 C 213.667 829.333 192 864.667 192 908 C 192 948 224.667 974.333 290 987 C 354.667 999.667 387 1028 387 1072 L 387 1127 C 387 1148.333 375.667 1159 353 1159 C 343.667 1159 329 1157.667 309 1155 C 289.667 1152.333 275 1151 265 1151 C 216.333 1151 178.333 1168.667 151 1204 L 119 1204 C 99.667 1161.333 88.354 1113.641 90 1061 C 93.345 954.032 131.322 834.395 187.221 785.461 L 140 757 C 125.333 741 118 714 118 676 C 118 612.667 138.333 558 179 512 L 205 512 C 216.333 558.667 249.667 582 305 582 L 495 582 C 703.667 582 808 755 808 1101 C 808 1325.667 774.667 1471.333 708 1538 C 641.333 1604.667 538.667 1638 400 1638 Z"/>
</svg>