<?xml version="1.0" standalone="no"?>
<!DOCTYPE svg PUBLIC "-//W3C//DTD SVG 1.1//EN" "http://www.w3.org/Graphics/SVG/1.1/DTD/svg11.dtd" >
<svg xmlns="http://www.w3.org/2000/svg" xmlns:xlink="http://www.w3.org/1999/xlink" version="1.1" viewBox="-10 0 952 2048">
   <path fill="none" stroke="black" stroke-width="40"
d="M849 789q-33 12 -114 21q-50 48 -91 138t-42 155q0 93 87 164l160 131l-53 240h-701l43 -204h545l-330 -264q-64 -51 -62 -115l5 -144q2 -58 -18.5 -86t-62.5 -28q-154 0 -154 -130q0 -94 44 -164h27q17 73 82 77l35 2q69 5 95 31t26 105q0 32 -8 95q-8 64 -8 97
q0 80 56 127l95 79q71 -191 163 -314q-127 -28 -127 -135q0 -83 42 -164h28q9 70 88 77l55 4q110 9 110 117q0 36 -15 88z" />
</svg>
