<?xml version="1.0" encoding="utf-8"?>
<svg version="1.1" viewBox="-10 0 1034 2048" xmlns="http://www.w3.org/2000/svg">
  <path fill="none" stroke="black" stroke-width="40" d="M 839 1655 L 818 1648 L 818 1164 C 818 1051.333 814.667 975.667 808 937 C 801.333 898.333 782.5 866.167 751.5 840.5 C 720.5 814.833 673.333 802 610 802 L 386 802 L 344 892 C 302.667 982 282 1057.667 282 1119 C 282 1148.333 286.333 1204.667 295 1288 C 320.333 1414.667 332 1492 330 1520 L 324 1638 L 33 1638 L 75 1434 L 201 1434 L 195 1238 C 190.333 1103.333 208.954 986.698 262.954 896.031 L 306.888 802.672 L 265.832 802.702 C 189.634 802.743 135 760 135 676 C 135 613.333 155.667 558.667 197 512 L 224 512 C 235.333 558.667 268.667 582 324 582 L 547 582 C 701 582 800.5 604.167 845.5 648.5 C 890.5 692.833 913 790 913 940 L 913 1531 C 913 1589 888.333 1630.333 839 1655 Z"/>
</svg>