<?xml version="1.0" standalone="no"?>
<!DOCTYPE svg PUBLIC "-//W3C//DTD SVG 1.1//EN" "http://www.w3.org/Graphics/SVG/1.1/DTD/svg11.dtd" >
<svg xmlns="http://www.w3.org/2000/svg" xmlns:xlink="http://www.w3.org/1999/xlink" version="1.1" viewBox="-10 0 1034 2048">
   <path fill="none" stroke="black" stroke-width="40"
d="M839 1655l-21 -7v-484q0 -169 -10 -227t-56.5 -96.5t-141.5 -38.5h-224l-42 90q-62 135 -62 227q0 44 13 169q38 190 35 232l-6 118h-291l42 -204h126l-6 -196q-7 -202 74 -338l58 -98h-39q-153 0 -153 -126q0 -94 62 -164h27q17 70 100 70h223q231 0 298.5 66.5
t67.5 291.5v591q0 87 -74 124z" />
</svg>
