<?xml version="1.0" standalone="no"?>
<!DOCTYPE svg PUBLIC "-//W3C//DTD SVG 1.1//EN" "http://www.w3.org/Graphics/SVG/1.1/DTD/svg11.dtd" >
<svg xmlns="http://www.w3.org/2000/svg" xmlns:xlink="http://www.w3.org/1999/xlink" version="1.1" viewBox="-10 0 1127 2048">
   <path fill="none" stroke="black" stroke-width="40"
d="M932 1657l-22 -7v-691q0 -72 -23 -106.5t-123 -50.5q-152 -25 -152 -152q0 -92 59 -147h27q8 62 82 75l84 13q70 11 103 54.5t33 170.5v717q0 89 -68 124zM304 1160l-28 -32q106 -79 106 -220q0 -101 -149 -107q-166 -6 -166 -141q0 -70 47 -157h27q10 68 91 75l91 6
q134 10 134 185v75q0 237 -153 316z" />
</svg>
