<?xml version="1.0" standalone="no"?>
<!DOCTYPE svg PUBLIC "-//W3C//DTD SVG 1.1//EN" "http://www.w3.org/Graphics/SVG/1.1/DTD/svg11.dtd" >
<svg xmlns="http://www.w3.org/2000/svg" xmlns:xlink="http://www.w3.org/1999/xlink" version="1.1" viewBox="-10 0 692 2048">
   <path fill="none" stroke="black" stroke-width="40"
d="M466 1771q0 -21 9.5 -39t29 -31t44.5 -13q24 0 42.5 11.5t29.5 30t11 41.5q0 24 -11.5 42.5t-30 29.5t-41.5 11q-24 0 -42.5 -11t-29.5 -29.5t-11 -42.5zM50 1808v-103h332v103h-332zM466 1995q0 -21 9.5 -39t29 -31t44.5 -13q24 1 42.5 12t29.5 29.5t11 41.5
q0 22 -9.5 40t-29 30.5t-44.5 12.5q-24 0 -42.5 -11t-29.5 -29.5t-11 -42.5z" />
</svg>
