<?xml version="1.0" standalone="no"?>
<!DOCTYPE svg PUBLIC "-//W3C//DTD SVG 1.1//EN" "http://www.w3.org/Graphics/SVG/1.1/DTD/svg11.dtd" >
<svg xmlns="http://www.w3.org/2000/svg" xmlns:xlink="http://www.w3.org/1999/xlink" version="1.1" viewBox="-10 0 692 2048">
   <path fill="none" stroke="black" stroke-width="40"
d="M498 1771q0 -23 11.5 -41.5t30 -30t41.5 -11.5q30 0 56.5 22t26.5 61q1 35 -23.5 59t-59.5 24q-23 0 -41.5 -11t-29.5 -29.5t-12 -42.5zM257 1883q42 24 42 73q1 35 -23.5 59t-58.5 24q-21 0 -39.5 -9.5t-31 -29t-12.5 -44.5q0 -49 43 -73v-75h-159v-103h395v103h-156v75
zM498 1997q0 -21 10 -39t29 -31t44 -13q30 0 56.5 22t26.5 61q0 35 -24 59t-59 24q-23 0 -41.5 -11t-29.5 -29.5t-12 -42.5z" />
</svg>
