<svg viewBox="0 0 400 450" xmlns="http://www.w3.org/2000/svg" xmlns:bx="https://boxy-svg.com"><path d="M56.051 5.726 C 54.420 7.099,54.000 7.973,54.000 10.000 C 54.000 12.027,54.420 12.901,56.051 14.274 L 58.102 16.000 77.741 16.000 C 94.443 16.000,97.619 15.844,98.974 14.956 C 101.161 13.523,102.122 10.548,101.226 7.980 C 99.908 4.199,98.720 4.000,77.418 4.000 L 58.102 4.000 56.051 5.726 M128.051 5.726 C 126.420 7.099,126.000 7.973,126.000 10.000 C 126.000 12.027,126.420 12.901,128.051 14.274 L 130.102 16.000 149.418 16.000 C 170.720 16.000,171.908 15.801,173.226 12.020 C 173.721 10.602,173.721 9.398,173.226 7.980 C 171.908 4.199,170.720 4.000,149.418 4.000 L 130.102 4.000 128.051 5.726 M199.241 9.941 C 197.993 10.952,197.667 11.861,197.667 14.333 C 197.667 18.617,198.768 19.331,209.429 21.963 C 214.326 23.173,222.533 25.625,227.667 27.414 C 232.800 29.203,237.658 30.666,238.463 30.667 C 239.267 30.667,240.761 29.949,241.781 29.071 C 243.265 27.794,243.636 26.912,243.636 24.662 C 243.636 22.370,243.285 21.570,241.739 20.337 C 238.044 17.390,209.273 8.670,203.241 8.668 C 201.844 8.667,200.146 9.207,199.241 9.941 M266.121 37.000 C 264.423 38.430,264.000 39.290,264.000 41.319 C 264.000 44.483,264.705 45.276,272.959 51.381 C 276.603 54.077,282.961 59.519,287.088 63.474 C 293.355 69.481,294.935 70.667,296.673 70.667 C 297.818 70.667,299.359 70.343,300.098 69.948 C 301.834 69.018,303.219 65.701,302.795 63.484 C 302.384 61.333,292.879 51.803,284.477 45.116 C 271.647 34.905,269.657 34.025,266.121 37.000 M313.949 89.949 C 312.877 91.021,312.000 92.615,312.000 93.492 C 312.000 94.369,313.353 97.672,315.006 100.832 C 318.640 107.777,322.002 115.506,325.083 124.000 C 326.432 127.718,327.990 130.809,328.857 131.485 C 332.439 134.279,338.267 131.657,338.267 127.252 C 338.267 121.752,325.356 92.354,321.666 89.452 C 319.061 87.403,316.318 87.580,313.949 89.949 M336.547 158.017 C 334.850 159.714,334.578 160.428,334.831 162.517 C 335.428 167.443,337.356 188.461,337.731 194.133 C 338.065 199.183,338.334 200.152,339.815 201.633 C 342.368 204.187,345.988 203.999,348.351 201.191 L 350.154 199.048 349.702 191.024 C 349.173 181.636,347.502 165.448,346.684 161.770 C 345.397 155.991,340.417 154.147,336.547 158.017 M339.014 229.592 C 337.262 231.344,337.078 232.172,335.966 243.333 C 335.546 247.550,334.482 255.133,333.601 260.185 C 332.721 265.237,332.000 269.835,332.000 270.403 C 332.000 270.971,332.877 272.313,333.949 273.385 C 336.524 275.959,339.437 276.002,341.930 273.500 C 343.919 271.505,344.992 267.156,346.987 253.000 C 349.596 234.486,349.451 230.514,346.100 228.720 C 343.804 227.492,340.737 227.869,339.014 229.592 M324.101 299.383 C 323.284 300.143,322.118 302.018,321.508 303.549 C 319.464 308.686,312.618 322.184,308.882 328.444 C 305.709 333.762,305.241 334.968,305.604 336.898 C 306.317 340.703,309.936 342.752,313.530 341.385 C 318.049 339.667,334.730 307.508,333.651 302.594 C 332.746 298.475,327.109 296.579,324.101 299.383 M285.764 358.334 C 284.718 358.880,282.270 360.780,280.326 362.558 C 275.718 366.769,268.435 372.227,261.199 376.892 C 255.077 380.840,254.000 382.074,254.000 385.141 C 254.000 387.644,255.512 389.700,257.989 390.563 C 259.716 391.165,260.528 390.985,263.779 389.274 C 273.770 384.018,292.624 368.993,293.931 365.246 C 294.903 362.456,293.720 359.669,291.019 358.387 C 288.304 357.099,288.136 357.097,285.764 358.334 M222.667 394.753 C 219.204 396.143,206.670 399.295,198.049 400.944 C 187.763 402.911,186.000 403.947,186.000 408.019 C 186.000 411.161,188.461 414.000,191.185 414.000 C 194.014 414.000,206.766 411.613,214.364 409.661 C 229.915 405.667,232.667 404.154,232.667 399.599 C 232.667 395.020,227.836 392.679,222.667 394.753 M56.571 404.991 C 54.248 406.279,53.174 409.344,54.107 412.020 C 55.363 415.622,57.095 416.000,72.352 416.000 L 86.103 416.000 88.051 414.051 C 90.494 411.609,90.616 408.791,88.392 406.204 L 86.785 404.333 72.559 404.174 C 61.082 404.045,57.993 404.203,56.571 404.991 M117.571 404.647 C 113.728 406.237,112.905 411.007,115.949 414.051 L 117.897 416.000 138.000 416.000 L 158.103 416.000 160.051 414.051 C 162.494 411.609,162.616 408.791,160.392 406.204 L 158.784 404.333 138.892 404.194 C 127.951 404.118,118.357 404.321,117.571 404.647 " stroke="none" fill-rule="evenodd" ></path></svg>