<svg viewBox="0 0 400 600" xmlns="http://www.w3.org/2000/svg" xmlns:bx="https://boxy-svg.com"><path d="M56.571 15.011 C 54.279 16.256,53.174 19.343,54.085 21.956 C 55.450 25.873,56.146 26.000,76.162 26.000 C 96.104 26.000,96.363 25.953,97.989 22.027 C 99.083 19.385,97.908 16.331,95.273 14.969 C 92.554 13.563,59.169 13.599,56.571 15.011 M122.571 15.011 C 120.279 16.256,119.174 19.343,120.085 21.956 C 121.450 25.873,122.146 26.000,142.162 26.000 C 162.104 26.000,162.363 25.953,163.989 22.027 C 165.083 19.385,163.908 16.331,161.273 14.969 C 158.554 13.563,125.169 13.599,122.571 15.011 M188.571 15.011 C 186.120 16.342,185.104 19.494,186.245 22.224 C 187.810 25.967,188.565 26.091,208.508 25.869 L 226.639 25.667 228.268 24.000 C 230.783 21.427,230.821 18.094,228.364 15.636 L 226.727 14.000 208.530 14.027 C 194.015 14.048,189.977 14.247,188.571 15.011 M253.276 20.855 C 250.225 23.197,250.133 27.626,253.087 29.950 C 253.996 30.664,256.691 31.898,259.078 32.692 C 262.797 33.930,271.235 38.008,283.417 44.456 C 286.341 46.003,286.625 46.035,288.921 45.076 C 291.346 44.063,292.667 41.986,292.667 39.187 C 292.667 35.813,281.644 28.865,266.935 22.967 C 259.389 19.941,255.291 19.307,253.276 20.855 M47.150 40.252 C 44.788 42.442,44.535 44.965,44.785 63.892 L 45.000 80.118 46.871 81.725 C 49.121 83.660,52.556 83.844,54.656 82.142 C 55.518 81.445,56.365 79.719,56.701 77.976 C 57.545 73.603,57.477 45.277,56.617 42.810 C 55.185 38.703,50.258 37.372,47.150 40.252 M308.469 56.397 C 306.599 57.411,305.333 59.673,305.333 62.000 C 305.333 62.685,307.240 65.745,309.570 68.798 C 314.265 74.952,318.461 81.367,322.221 88.142 C 325.032 93.207,326.710 94.667,329.724 94.667 C 332.455 94.667,335.333 91.872,335.333 89.220 C 335.333 85.725,328.072 73.203,319.953 62.698 C 314.288 55.369,312.339 54.299,308.469 56.397 M46.871 106.275 L 45.000 107.883 44.804 126.522 L 44.608 145.161 46.363 147.247 C 49.139 150.546,53.855 150.033,55.891 146.210 C 57.008 144.113,56.937 108.740,55.812 107.276 C 53.565 104.349,49.624 103.908,46.871 106.275 M337.350 115.316 C 335.121 117.545,335.105 119.532,337.244 128.134 C 338.365 132.644,339.918 140.053,340.695 144.600 C 342.385 154.481,342.769 155.600,344.967 157.040 C 348.376 159.273,354.000 156.328,354.000 152.310 C 354.000 149.586,351.353 135.174,349.255 126.471 C 346.794 116.267,345.344 114.000,341.274 114.000 C 339.567 114.000,338.212 114.454,337.350 115.316 M46.615 172.615 L 44.667 174.564 44.667 193.312 L 44.667 212.061 46.303 213.697 C 48.488 215.882,51.941 215.894,54.463 213.724 L 56.333 212.115 56.333 193.000 L 56.333 173.885 54.463 172.276 C 51.876 170.050,49.058 170.172,46.615 172.615 M348.073 179.570 C 344.910 181.377,344.716 182.558,344.690 200.083 C 344.677 209.112,344.850 217.417,345.074 218.537 C 345.906 222.696,349.682 224.846,353.428 223.294 C 356.888 221.861,357.339 219.712,357.292 204.855 C 357.239 188.018,356.701 182.404,354.971 180.675 C 353.240 178.944,350.061 178.435,348.073 179.570 M77.000 209.103 C 72.714 210.271,71.141 215.868,74.230 218.957 C 75.639 220.366,76.610 220.567,84.063 220.986 C 88.612 221.242,97.235 221.350,103.226 221.226 L 114.119 221.000 115.726 219.129 C 117.949 216.542,117.827 213.724,115.385 211.282 L 113.436 209.333 100.218 209.329 C 92.948 209.326,85.050 209.193,82.667 209.032 C 80.283 208.871,77.733 208.903,77.000 209.103 M141.953 210.446 C 138.733 211.803,137.596 216.175,139.686 219.159 C 141.375 221.569,144.783 221.992,162.551 221.996 L 179.436 222.000 181.385 220.051 C 183.827 217.609,183.949 214.791,181.726 212.204 L 180.118 210.333 161.960 210.000 C 148.929 209.761,143.279 209.887,141.953 210.446 M346.970 246.970 L 345.333 248.606 345.333 267.354 L 345.333 286.103 347.282 288.051 C 349.913 290.683,352.764 290.672,355.414 288.021 L 357.393 286.043 357.196 267.407 L 357.000 248.772 355.384 247.053 C 353.180 244.708,349.270 244.669,346.970 246.970 M347.059 313.384 L 345.333 315.436 345.333 332.739 C 345.333 351.119,345.711 353.751,348.566 355.280 C 350.911 356.535,353.695 356.123,355.576 354.242 L 357.333 352.485 357.333 333.667 L 357.333 314.848 355.576 313.091 C 353.002 310.517,349.367 310.642,347.059 313.384 M347.681 378.926 C 346.805 379.801,345.888 381.588,345.642 382.897 C 345.397 384.205,345.302 392.663,345.431 401.693 L 345.667 418.110 347.844 420.055 C 350.282 422.233,351.851 422.456,354.627 421.020 C 357.657 419.454,358.000 417.267,358.000 399.546 C 358.000 382.278,357.592 379.566,354.767 378.054 C 352.471 376.825,349.404 377.202,347.681 378.926 M347.636 444.970 L 346.000 446.606 346.000 465.354 L 346.000 484.103 348.031 486.133 C 349.786 487.888,350.398 488.111,352.531 487.771 C 354.021 487.534,355.607 486.680,356.529 485.618 C 358.056 483.860,358.058 483.826,357.863 465.315 L 357.667 446.772 356.050 445.053 C 353.846 442.708,349.937 442.669,347.636 444.970 M348.134 510.685 C 347.336 511.429,346.514 512.711,346.307 513.535 C 346.100 514.359,346.021 522.328,346.132 531.242 L 346.333 547.451 348.204 549.059 C 350.759 551.255,353.956 551.195,356.242 548.909 L 358.000 547.152 358.000 530.006 L 358.000 512.861 356.365 511.097 C 354.291 508.859,350.308 508.660,348.134 510.685 " stroke="none" fill-rule="evenodd" ></path></svg>