<svg viewBox="0 0 400 600" xmlns="http://www.w3.org/2000/svg" xmlns:bx="https://boxy-svg.com"><path d="M66.609 12.188 C 65.217 13.257,64.000 15.593,64.000 17.198 C 64.000 19.038,81.639 48.286,83.751 49.947 C 84.720 50.709,86.101 51.333,86.820 51.333 C 89.058 51.333,91.958 49.149,92.698 46.905 C 93.290 45.112,93.171 44.295,91.976 41.952 C 89.127 36.369,75.132 13.638,73.841 12.500 C 72.318 11.156,68.185 10.978,66.609 12.188 M325.237 12.344 C 323.019 13.549,322.011 16.400,321.962 21.599 C 321.941 23.836,321.415 31.134,320.792 37.817 C 320.155 44.648,319.885 50.837,320.175 51.954 C 321.598 57.447,329.505 57.359,331.247 51.831 C 331.977 49.515,333.904 28.732,334.105 21.000 C 334.257 15.177,333.744 13.580,331.319 12.326 C 328.953 11.103,327.515 11.107,325.237 12.344 M101.651 68.264 C 99.644 69.138,98.000 71.674,98.000 73.894 C 98.000 75.184,115.259 104.222,117.149 106.112 C 119.266 108.229,122.159 108.341,124.473 106.394 C 127.109 104.176,127.667 101.923,126.264 99.161 C 125.661 97.972,121.436 90.773,116.876 83.163 C 110.840 73.089,108.061 69.054,106.659 68.329 C 104.362 67.142,104.230 67.140,101.651 68.264 M317.805 78.010 C 315.984 79.443,315.026 81.826,314.326 86.667 C 314.087 88.317,312.681 95.217,311.202 102.000 C 309.723 108.783,308.510 115.066,308.506 115.962 C 308.498 118.003,312.087 121.333,314.293 121.333 C 315.175 121.333,316.798 120.576,317.897 119.651 C 319.637 118.187,320.159 116.862,321.906 109.484 C 323.010 104.818,324.705 96.838,325.671 91.752 C 327.640 81.385,327.400 79.425,323.939 77.635 C 321.398 76.321,319.830 76.417,317.805 78.010 M136.000 124.473 C 134.145 125.155,132.745 126.794,132.305 128.798 C 131.959 130.370,132.462 131.930,134.685 136.190 C 136.235 139.160,139.290 146.558,141.474 152.629 C 143.658 158.700,145.892 164.165,146.438 164.773 C 149.031 167.662,153.879 166.674,155.674 162.891 C 156.749 160.625,156.719 160.403,154.323 153.119 C 146.672 129.850,141.855 122.320,136.000 124.473 M300.080 141.833 C 299.310 142.475,297.075 146.000,295.115 149.667 C 293.154 153.333,289.041 159.922,285.975 164.308 C 279.799 173.141,279.168 175.319,281.930 178.259 C 285.928 182.515,288.951 180.974,295.817 171.180 C 304.908 158.213,309.333 150.075,309.333 146.325 C 309.333 141.621,303.649 138.861,300.080 141.833 M154.970 188.303 C 152.956 190.317,152.911 192.296,154.692 200.333 C 155.424 203.633,156.778 210.833,157.701 216.333 C 158.774 222.730,159.815 226.934,160.591 228.000 C 163.116 231.471,167.567 231.409,170.205 227.865 L 171.546 226.064 170.046 216.865 C 167.291 199.970,164.943 190.046,163.282 188.279 C 161.181 186.042,157.219 186.054,154.970 188.303 M255.870 200.426 C 252.092 203.960,245.806 209.227,241.901 212.130 C 233.309 218.519,232.166 220.935,235.949 224.718 C 239.219 227.988,241.384 227.498,249.097 221.746 C 257.570 215.427,268.423 205.764,270.057 203.085 C 271.774 200.269,271.660 198.491,269.607 196.051 C 268.230 194.414,267.363 194.000,265.311 194.000 C 262.981 194.000,262.097 194.601,255.870 200.426 M207.000 232.392 C 204.800 233.324,197.750 236.180,191.333 238.738 C 177.365 244.306,176.582 244.712,175.452 246.960 C 173.704 250.440,176.580 255.333,180.373 255.333 C 182.116 255.333,195.490 250.385,206.333 245.728 C 213.850 242.500,217.333 239.828,217.333 237.290 C 217.333 234.894,215.444 232.169,213.254 231.406 C 212.088 230.999,211.104 230.674,211.067 230.682 C 211.030 230.691,209.200 231.461,207.000 232.392 M164.254 253.685 L 162.569 255.370 163.043 273.518 C 163.304 283.500,163.763 292.327,164.063 293.135 C 164.827 295.187,168.299 296.853,170.707 296.324 C 171.776 296.090,173.290 295.096,174.073 294.115 C 175.464 292.372,175.488 291.949,175.168 274.620 C 174.836 256.562,174.583 254.793,172.058 252.855 C 170.154 251.393,166.117 251.823,164.254 253.685 M167.667 317.949 C 166.933 318.257,165.783 319.121,165.111 319.868 C 163.985 321.121,163.895 322.652,163.967 339.357 C 164.053 359.289,164.258 360.450,167.969 361.987 C 169.607 362.666,170.397 362.664,172.052 361.979 C 176.021 360.334,176.081 359.988,175.864 339.751 L 175.667 321.362 174.000 319.722 C 172.085 317.838,169.593 317.140,167.667 317.949 M165.950 385.727 L 164.333 387.453 164.528 405.893 C 164.703 422.441,164.847 424.504,165.930 426.000 C 168.481 429.525,173.130 429.434,175.374 425.815 C 176.633 423.784,176.696 422.679,176.520 405.553 L 176.333 387.438 174.717 385.719 C 172.442 383.299,168.218 383.303,165.950 385.727 M166.354 452.097 L 164.590 454.194 164.795 472.264 C 165.018 491.882,165.138 492.539,168.802 494.056 C 172.225 495.474,176.132 493.246,176.884 489.447 C 177.077 488.468,177.060 479.935,176.845 470.485 C 176.455 453.324,176.453 453.301,174.803 451.652 C 172.318 449.167,168.657 449.360,166.354 452.097 M166.970 517.636 C 165.344 519.262,165.333 519.355,165.333 532.347 C 165.333 545.556,165.613 547.357,167.942 549.145 C 169.631 550.442,173.563 550.173,175.200 548.648 C 177.302 546.689,177.440 545.534,177.209 531.837 C 177.006 519.768,176.957 519.391,175.384 517.719 C 173.180 515.375,169.270 515.337,166.970 517.636 " stroke="none" fill-rule="evenodd" ></path></svg>