<svg viewBox="0 0 400 420" xmlns="http://www.w3.org/2000/svg"><path d="M146.615 365.949 C 144.173 368.391,144.051 371.209,146.274 373.796 L 147.882 375.667 161.287 375.872 L 174.691 376.078 176.679 374.090 C 179.785 370.984,179.200 367.000,175.347 365.007 C 173.814 364.215,170.754 364.000,160.982 364.000 L 148.564 364.000 146.615 365.949 M190.800 366.018 C 187.952 368.672,188.302 373.219,191.519 375.352 C 193.520 376.678,215.821 377.179,218.756 375.963 C 223.019 374.197,223.935 369.833,220.718 366.615 L 218.769 364.667 205.510 364.667 C 193.113 364.667,192.157 364.754,190.800 366.018 M236.238 365.299 C 232.390 366.929,231.572 371.675,234.615 374.718 L 236.564 376.667 248.312 376.667 C 259.897 376.667,260.083 376.644,261.697 375.030 C 264.154 372.573,264.116 369.240,261.601 366.667 C 260.006 365.034,259.743 364.997,248.819 364.847 C 242.685 364.763,237.024 364.967,236.238 365.299 " stroke="none" fill="black" fill-rule="evenodd"></path></svg>