<svg viewBox="0 0 372 400" xmlns="http://www.w3.org/2000/svg" xmlns:bx="https://boxy-svg.com"><path d="M84.630 13.696 C 68.627 14.679,67.347 15.158,67.701 20.029 C 67.978 23.846,69.946 24.683,77.239 24.088 C 80.281 23.840,87.461 23.436,93.194 23.192 C 102.104 22.812,103.837 22.575,105.129 21.559 C 107.314 19.840,107.251 16.070,105.006 14.305 C 103.174 12.864,99.802 12.763,84.630 13.696 M128.385 16.514 C 126.720 18.630,126.757 20.623,128.495 22.585 C 129.719 23.966,130.916 24.314,138.260 25.418 C 142.864 26.111,149.694 27.371,153.439 28.219 C 157.183 29.066,160.967 29.760,161.847 29.760 C 166.429 29.760,167.891 22.928,163.760 20.824 C 160.212 19.018,138.502 14.880,132.570 14.880 C 130.175 14.880,129.446 15.165,128.385 16.514 M27.806 21.418 C 20.423 22.933,13.312 24.523,12.004 24.951 C 7.626 26.385,6.937 30.895,10.670 33.674 L 12.351 34.925 22.760 32.671 C 28.486 31.431,35.626 29.948,38.627 29.377 C 45.336 28.099,47.120 26.877,47.120 23.560 C 47.120 21.717,46.746 20.876,45.486 19.885 C 44.588 19.178,43.263 18.614,42.541 18.632 C 41.820 18.650,35.189 19.904,27.806 21.418 M187.550 31.081 C 185.591 32.176,184.760 33.559,184.760 35.724 C 184.760 38.319,185.187 38.703,193.206 43.302 C 196.915 45.429,202.864 49.251,206.425 51.795 C 213.796 57.061,215.971 57.614,218.195 54.786 C 220.321 52.084,219.885 50.064,216.535 47.097 C 210.886 42.095,193.991 31.576,190.221 30.715 C 189.434 30.535,188.232 30.700,187.550 31.081 M233.316 68.824 C 231.692 69.478,230.640 71.272,230.640 73.386 C 230.640 74.289,232.767 78.127,235.755 82.614 C 238.568 86.838,242.250 93.017,243.937 96.345 C 247.457 103.287,249.266 104.813,252.427 103.504 C 254.550 102.624,255.446 101.212,255.425 98.776 C 255.395 95.175,242.091 72.462,238.235 69.429 C 236.552 68.105,235.440 67.968,233.316 68.824 M257.582 123.662 C 255.681 125.563,255.686 126.517,257.650 135.575 C 258.524 139.609,259.739 146.471,260.350 150.823 C 261.519 159.147,262.234 160.748,265.101 161.467 C 267.152 161.982,270.211 160.300,270.689 158.394 C 271.379 155.647,268.512 136.501,266.030 127.287 C 264.754 122.548,260.515 120.729,257.582 123.662 M263.690 183.160 L 261.950 184.660 262.166 201.605 C 262.372 217.735,262.444 218.617,263.669 219.945 C 265.036 221.427,267.721 221.779,269.676 220.733 C 271.851 219.569,272.106 217.029,271.729 200.261 L 271.366 184.077 269.829 182.869 C 267.773 181.252,265.794 181.345,263.690 183.160 M263.782 243.322 L 262.260 244.844 262.260 260.641 C 262.260 270.071,262.520 277.122,262.904 278.134 C 264.258 281.695,268.033 282.583,270.658 279.958 L 272.180 278.436 272.180 261.640 L 272.180 244.844 270.658 243.322 C 269.699 242.363,268.428 241.800,267.220 241.800 C 266.012 241.800,264.741 242.363,263.782 243.322 M264.120 303.180 C 262.941 304.359,262.880 305.247,262.880 321.353 C 262.880 337.332,262.949 338.360,264.099 339.595 C 265.777 341.396,267.614 341.864,269.665 341.014 C 272.568 339.812,272.800 338.418,272.800 322.153 C 272.800 306.605,272.427 303.688,270.296 302.547 C 268.424 301.545,265.450 301.850,264.120 303.180 M8.006 354.195 C 5.210 356.342,5.163 359.934,7.903 362.090 C 9.373 363.246,10.449 363.320,25.779 363.320 C 41.990 363.320,42.101 363.311,43.779 361.868 C 45.947 360.003,46.046 357.107,44.015 354.945 L 42.564 353.400 25.777 353.420 C 13.559 353.434,8.722 353.645,8.006 354.195 M68.510 354.133 C 65.368 355.975,64.807 359.363,67.242 361.798 L 68.764 363.320 85.448 363.320 C 101.389 363.320,102.206 363.263,103.766 362.035 C 105.764 360.464,105.969 357.340,104.216 355.174 L 103.031 353.710 86.391 353.558 C 74.538 353.450,69.393 353.615,68.510 354.133 M128.650 354.116 C 125.514 355.831,124.851 359.676,127.295 361.972 C 128.697 363.289,129.126 363.320,145.850 363.320 L 162.970 363.320 164.255 361.686 C 166.548 358.771,165.625 355.349,162.194 354.044 C 159.853 353.154,130.293 353.217,128.650 354.116 M188.491 354.414 C 185.721 355.578,185.022 359.862,187.240 362.080 C 188.421 363.261,189.307 363.320,205.744 363.320 C 222.360 363.320,223.051 363.272,224.158 362.049 C 225.689 360.357,225.659 356.813,224.099 355.298 C 222.987 354.218,221.581 354.108,206.533 353.915 C 195.219 353.770,189.657 353.923,188.491 354.414 M247.325 355.180 C 245.388 356.749,245.361 360.337,247.273 362.249 C 248.634 363.610,248.900 363.630,265.669 363.630 C 281.869 363.630,282.743 363.571,283.893 362.390 C 285.866 360.366,285.844 357.148,283.843 355.284 C 282.546 354.076,281.737 354.020,265.622 354.020 C 250.068 354.020,248.646 354.110,247.325 355.180 M307.182 355.542 C 305.531 357.192,305.203 359.884,306.455 361.514 C 308.176 363.756,309.666 363.940,326.107 363.940 L 342.296 363.940 343.818 362.418 C 345.952 360.285,345.900 357.031,343.706 355.305 C 342.146 354.077,341.329 354.020,325.388 354.020 L 308.704 354.020 307.182 355.542 " stroke="none" fill-rule="evenodd"></path></svg>