<svg viewBox="0 0 288 400" xmlns="http://www.w3.org/2000/svg" xmlns:bx="https://boxy-svg.com"><path d="M104.160 14.977 C 96.221 15.512,94.604 16.142,93.682 19.056 C 92.930 21.431,93.491 23.060,95.596 24.618 C 96.823 25.526,97.148 25.538,104.142 24.946 C 108.864 24.546,114.671 24.435,120.712 24.629 L 130.012 24.928 131.486 23.552 C 133.490 21.680,133.551 18.917,131.636 16.773 C 130.390 15.379,130.026 15.265,125.516 14.862 C 119.769 14.349,112.927 14.386,104.160 14.977 M67.920 21.485 C 66.077 21.821,57.350 24.586,56.105 25.229 C 52.944 26.862,52.783 31.766,55.829 33.623 C 56.671 34.136,57.763 34.557,58.255 34.558 C 60.021 34.562,71.269 30.673,72.303 29.701 C 75.720 26.491,72.596 20.634,67.920 21.485 M154.613 23.710 C 152.311 24.986,151.435 28.512,152.901 30.604 C 153.308 31.186,155.198 32.567,157.101 33.672 C 163.883 37.614,169.118 42.116,174.255 48.426 C 177.586 52.517,180.708 53.179,183.125 50.306 C 185.040 48.031,184.768 45.811,182.147 42.325 C 177.316 35.898,170.811 30.203,163.089 25.640 C 158.502 22.929,156.744 22.529,154.613 23.710 M189.360 70.054 C 188.141 70.553,186.926 71.937,186.511 73.298 C 186.334 73.881,186.628 76.797,187.164 79.778 C 188.372 86.501,189.119 94.338,189.120 100.320 C 189.121 103.703,189.338 105.310,189.961 106.548 C 191.816 110.236,196.953 110.038,198.558 106.217 C 200.255 102.176,197.623 75.512,195.155 71.746 C 193.924 69.868,191.526 69.167,189.360 70.054 M191.101 130.606 C 190.507 131.159,189.818 132.146,189.571 132.797 C 189.323 133.449,189.120 140.887,189.120 149.327 C 189.120 161.712,189.255 164.995,189.823 166.353 C 191.291 169.867,196.263 170.171,198.275 166.871 C 199.134 165.463,199.197 164.292,199.198 149.671 C 199.199 141.042,198.997 133.449,198.749 132.797 C 197.968 130.743,196.328 129.600,194.160 129.600 C 192.814 129.600,191.835 129.922,191.101 130.606 M190.770 191.072 L 189.360 192.543 189.360 209.192 C 189.360 224.486,189.431 225.944,190.232 227.124 C 191.943 229.645,195.734 229.916,197.846 227.669 C 198.959 226.484,198.960 226.476,199.100 210.322 C 199.177 201.433,199.115 193.656,198.961 193.039 C 198.473 191.082,196.412 189.600,194.180 189.600 C 192.574 189.600,191.901 189.890,190.770 191.072 M191.093 250.829 C 189.652 252.041,189.630 252.131,189.496 257.189 L 189.360 262.320 178.560 262.619 C 172.620 262.783,167.188 263.148,166.488 263.429 C 163.844 264.491,162.786 268.270,164.463 270.664 C 165.848 272.642,167.670 273.013,173.760 272.558 C 176.796 272.331,181.847 272.202,184.984 272.272 L 190.688 272.400 192.500 278.458 C 195.204 287.500,195.883 288.480,199.445 288.480 C 201.896 288.480,204.000 286.357,204.000 283.884 C 204.000 282.900,202.920 278.488,201.600 274.080 C 199.246 266.219,199.200 265.944,199.200 259.729 C 199.200 253.034,198.726 251.111,196.827 250.094 C 195.152 249.198,192.651 249.518,191.093 250.829 M131.760 270.975 C 125.878 273.158,114.394 278.666,110.264 281.285 C 109.001 282.087,107.742 283.331,107.465 284.051 C 106.727 285.974,107.294 288.552,108.731 289.800 C 110.835 291.628,112.738 291.252,118.984 287.776 C 124.736 284.575,132.133 281.299,137.994 279.357 C 141.985 278.035,144.000 276.266,144.000 274.085 C 144.000 271.075,141.937 268.816,139.200 268.829 C 138.276 268.834,134.928 269.799,131.760 270.975 M86.320 300.976 C 85.034 301.726,79.589 308.498,76.267 313.477 C 74.580 316.006,71.919 320.688,70.353 323.882 C 67.629 329.439,67.531 329.769,68.059 331.533 C 69.032 334.779,72.947 336.081,75.558 334.028 C 76.265 333.471,78.013 330.685,79.442 327.836 C 82.293 322.151,86.227 316.089,89.719 312.000 C 93.113 308.026,93.600 307.158,93.600 305.079 C 93.600 302.362,91.736 300.475,89.070 300.495 C 87.998 300.503,86.760 300.719,86.320 300.976 M206.102 307.901 C 204.172 308.726,203.040 310.367,203.040 312.337 C 203.040 314.240,211.407 342.473,212.437 344.044 C 213.251 345.287,214.951 346.080,216.799 346.080 C 218.514 346.080,221.280 343.219,221.280 341.444 C 221.280 340.690,219.254 333.301,216.777 325.025 C 212.071 309.296,211.543 308.138,208.800 307.528 C 208.140 307.381,206.926 307.549,206.102 307.901 M56.583 352.561 C 55.678 353.053,53.979 355.838,50.516 362.502 C 39.419 383.861,39.667 383.267,40.856 385.592 C 42.258 388.332,45.812 389.184,48.154 387.342 C 49.693 386.131,63.840 358.733,63.840 356.963 C 63.840 355.118,62.964 353.536,61.445 352.639 C 59.809 351.673,58.264 351.648,56.583 352.561 M222.423 365.692 C 219.393 367.589,219.428 368.931,222.804 380.160 C 225.123 387.875,225.233 388.106,227.030 389.035 C 230.544 390.852,234.266 388.570,234.227 384.624 C 234.203 382.225,229.665 368.129,228.436 366.636 C 226.915 364.789,224.475 364.406,222.423 365.692 " stroke="none" fill-rule="evenodd"></path></svg>