<svg viewBox="0 0 288 400" xmlns="http://www.w3.org/2000/svg" xmlns:bx="https://boxy-svg.com"><path d="M93.736 29.617 C 92.202 29.914,90.240 32.453,90.240 34.141 C 90.240 36.048,91.353 38.098,92.724 38.717 C 93.438 39.039,98.073 39.163,105.600 39.062 L 117.360 38.903 118.680 37.444 C 120.120 35.852,120.464 33.028,119.385 31.658 C 117.581 29.370,117.027 29.276,105.613 29.345 C 99.666 29.381,94.321 29.503,93.736 29.617 M69.120 32.870 C 62.423 34.223,56.018 35.846,53.929 36.719 C 52.231 37.428,50.880 39.566,50.880 41.544 C 50.880 43.313,53.706 46.080,55.514 46.080 C 56.267 46.080,58.366 45.656,60.178 45.138 C 61.991 44.619,66.310 43.636,69.777 42.953 C 77.500 41.432,78.578 41.027,79.463 39.316 C 80.954 36.433,79.943 33.582,76.993 32.349 C 75.090 31.554,75.897 31.501,69.120 32.870 M131.667 33.318 C 130.521 34.304,130.320 34.840,130.320 36.905 C 130.320 40.219,131.151 40.889,137.520 42.712 C 140.424 43.543,145.249 45.191,148.242 46.375 C 153.203 48.336,153.833 48.478,155.359 47.974 C 158.905 46.804,159.860 42.327,157.097 39.834 C 154.457 37.452,139.080 32.164,134.787 32.161 C 133.603 32.160,132.566 32.545,131.667 33.318 M168.053 50.110 C 166.555 50.940,165.638 52.647,165.617 54.647 C 165.603 55.976,166.127 56.805,168.647 59.447 C 172.416 63.396,175.615 67.355,177.806 70.780 C 179.957 74.142,181.857 75.195,184.400 74.433 C 186.607 73.771,187.898 72.002,187.898 69.638 C 187.898 67.200,182.908 60.036,177.090 54.120 C 173.021 49.983,172.296 49.442,170.843 49.457 C 169.939 49.466,168.684 49.760,168.053 50.110 M188.532 83.788 C 185.955 85.187,185.644 87.506,187.210 93.640 C 187.744 95.731,188.599 100.164,189.110 103.493 C 189.621 106.822,190.370 110.051,190.775 110.669 C 192.543 113.367,197.407 112.923,198.959 109.922 C 199.640 108.606,199.673 107.831,199.210 104.004 C 198.629 99.191,197.200 91.898,196.074 88.002 C 194.859 83.798,191.733 82.051,188.532 83.788 M192.027 124.219 L 190.689 125.558 190.337 136.600 C 189.898 150.374,190.325 151.898,194.793 152.497 C 196.388 152.711,196.904 152.534,198.292 151.294 L 199.920 149.840 200.063 137.860 L 200.206 125.880 198.706 124.380 C 196.671 122.344,193.967 122.279,192.027 124.219 M193.200 163.174 C 192.672 163.390,191.808 164.046,191.280 164.633 C 190.383 165.629,190.311 166.486,190.176 177.663 L 190.033 189.627 191.460 191.053 C 193.423 193.017,196.293 193.061,198.198 191.156 L 199.522 189.832 199.854 178.692 C 200.226 166.235,199.996 164.845,197.342 163.472 C 195.751 162.649,194.671 162.572,193.200 163.174 M193.597 202.900 C 192.098 203.183,190.246 205.209,189.899 206.947 C 189.734 207.768,189.600 212.960,189.600 218.484 C 189.600 226.662,189.740 228.798,190.352 229.982 C 192.091 233.345,197.147 233.308,198.839 229.920 C 199.562 228.472,199.679 226.768,199.679 217.591 C 199.680 211.734,199.474 206.400,199.221 205.736 C 198.490 203.812,195.840 202.476,193.597 202.900 M191.004 244.359 L 189.622 245.838 189.491 254.060 L 189.360 262.282 187.739 262.613 C 183.805 263.416,182.377 267.891,185.166 270.679 C 186.353 271.867,186.951 272.040,190.917 272.339 C 195.690 272.699,197.688 272.168,198.706 270.267 C 199.006 269.705,199.200 264.709,199.200 257.515 L 199.200 245.686 197.797 244.283 C 195.780 242.266,192.929 242.298,191.004 244.359 M161.734 263.781 C 153.594 264.897,147.254 266.292,145.964 267.252 C 143.160 269.339,143.429 273.629,146.465 275.254 C 148.202 276.185,148.236 276.184,153.905 275.135 C 157.037 274.555,162.084 273.760,165.120 273.367 C 170.234 272.706,170.737 272.546,171.960 271.199 C 174.980 267.872,172.507 262.932,167.904 263.097 C 167.033 263.128,164.256 263.436,161.734 263.781 M123.781 274.248 C 114.271 278.537,108.176 282.201,107.463 284.058 C 106.727 285.974,107.296 288.554,108.731 289.800 C 110.748 291.553,112.792 291.231,117.783 288.374 C 120.190 286.996,124.416 284.861,127.174 283.629 C 129.931 282.397,132.659 280.935,133.237 280.379 C 136.115 277.609,133.898 272.156,129.895 272.162 C 129.073 272.164,126.322 273.102,123.781 274.248 M197.962 282.309 C 196.641 282.950,195.360 285.181,195.360 286.841 C 195.360 288.277,200.169 304.847,201.435 307.774 C 202.361 309.914,204.788 311.260,206.890 310.798 C 208.750 310.389,210.720 307.999,210.720 306.150 C 210.720 304.605,205.957 287.984,204.683 285.082 C 203.460 282.298,200.501 281.077,197.962 282.309 M91.499 295.626 C 87.912 298.875,82.728 304.526,79.972 308.192 C 77.834 311.036,77.679 311.429,77.903 313.417 C 78.197 316.023,80.019 317.754,82.472 317.758 C 84.750 317.761,85.442 317.261,88.584 313.341 C 90.127 311.416,93.507 307.649,96.095 304.970 C 100.522 300.388,100.800 299.981,100.800 298.093 C 100.800 295.292,98.811 293.280,96.042 293.280 C 94.379 293.280,93.707 293.627,91.499 295.626 M209.172 320.908 C 206.092 322.580,206.160 324.227,209.821 336.598 C 212.920 347.073,213.715 348.595,216.347 349.098 C 217.793 349.374,219.669 348.783,220.910 347.661 C 222.624 346.110,222.455 344.170,219.825 335.197 C 218.446 330.491,216.915 325.554,216.424 324.227 C 215.071 320.570,212.208 319.260,209.172 320.908 M69.497 326.555 C 68.104 327.846,58.560 346.519,58.560 347.953 C 58.560 352.051,63.689 354.283,66.668 351.480 C 67.439 350.754,70.273 345.838,72.965 340.555 C 77.806 331.053,77.853 330.928,77.325 328.967 C 76.683 326.584,75.140 325.440,72.567 325.440 C 71.279 325.440,70.327 325.786,69.497 326.555 M219.735 359.954 C 218.458 361.095,218.183 361.685,218.223 363.194 C 218.266 364.799,222.805 380.963,224.227 384.577 C 225.690 388.294,231.303 388.313,233.062 384.606 C 233.977 382.678,233.953 382.547,230.594 371.280 C 227.560 361.104,227.235 360.322,225.646 359.383 C 223.548 358.144,221.544 358.338,219.735 359.954 M51.237 362.093 C 50.097 363.150,41.554 379.303,40.620 382.167 C 39.118 386.771,44.881 390.339,48.426 387.000 C 49.201 386.270,52.001 381.386,54.686 376.080 C 59.232 367.097,59.513 366.375,59.064 364.843 C 58.295 362.225,56.797 360.960,54.466 360.960 C 53.023 360.960,52.117 361.278,51.237 362.093 " stroke="none" fill-rule="evenodd" fill=" rgba(216, 216, 216, 0)"></path></svg>