<svg viewBox="0 0 365 400" xmlns="http://www.w3.org/2000/svg" xmlns:bx="https://boxy-svg.com"><path d="M247.600 19.262 C 246.347 20.340,246.071 21.126,246.071 23.608 C 246.071 28.448,249.312 30.860,253.204 28.918 C 254.726 28.159,257.695 27.983,269.007 27.983 C 285.860 27.983,287.133 27.603,287.133 22.565 C 287.133 21.616,286.542 20.346,285.765 19.623 C 284.453 18.404,283.664 18.343,266.763 18.148 C 249.418 17.949,249.105 17.967,247.600 19.262 M310.533 18.221 C 308.067 19.220,307.199 21.397,308.019 24.526 C 308.880 27.808,310.820 28.095,328.886 27.615 L 344.985 27.186 346.172 25.678 C 347.847 23.548,347.652 21.492,345.580 19.420 L 343.802 17.642 327.786 17.680 C 318.978 17.701,311.214 17.945,310.533 18.221 M78.494 18.706 C 71.102 18.877,70.166 19.023,68.913 20.200 C 67.379 21.641,67.078 24.614,68.305 26.211 C 69.985 28.400,71.480 28.592,86.861 28.592 C 102.498 28.592,105.347 28.235,106.471 26.134 C 107.234 24.708,107.234 22.133,106.471 20.707 C 105.149 18.238,103.567 18.124,78.494 18.706 M130.375 18.863 C 127.635 19.967,126.808 24.608,128.967 26.767 C 130.126 27.926,130.994 27.983,147.477 27.983 L 164.770 27.983 166.031 26.380 C 168.155 23.681,167.491 20.582,164.442 18.958 C 162.848 18.109,132.456 18.024,130.375 18.863 M189.314 19.484 C 188.586 20.162,187.827 21.364,187.629 22.155 C 187.209 23.826,188.691 27.053,190.131 27.605 C 190.673 27.813,198.574 27.983,207.690 27.983 C 224.106 27.983,224.275 27.970,225.495 26.615 C 227.222 24.696,227.579 23.361,226.867 21.488 C 225.667 18.331,225.418 18.290,207.404 18.269 C 191.388 18.251,190.578 18.305,189.314 19.484 M13.996 20.374 C 12.004 22.495,12.101 25.337,14.228 27.167 C 15.860 28.571,16.087 28.592,29.760 28.592 C 42.678 28.592,43.742 28.508,45.170 27.385 C 46.014 26.721,46.878 25.487,47.090 24.642 C 47.534 22.875,46.168 19.805,44.685 19.236 C 44.144 19.028,37.337 18.858,29.560 18.858 L 15.420 18.858 13.996 20.374 M248.339 50.290 C 247.914 50.462,247.161 51.385,246.666 52.341 C 245.938 53.749,245.767 57.171,245.767 70.260 L 245.767 86.439 247.260 87.932 C 249.236 89.908,252.365 89.946,254.177 88.017 C 255.470 86.641,255.500 86.227,255.500 69.569 C 255.500 52.544,255.499 52.528,254.092 51.206 C 252.764 49.959,250.184 49.548,248.339 50.290 M249.417 109.936 C 248.915 110.116,247.888 110.824,247.135 111.508 C 245.778 112.743,245.767 112.900,245.767 129.709 L 245.767 146.664 247.260 148.157 C 249.255 150.152,251.833 150.109,253.896 148.046 L 255.500 146.442 255.500 129.598 C 255.500 112.907,255.488 112.742,254.131 111.501 C 252.564 110.066,250.740 109.461,249.417 109.936 M247.345 171.094 L 245.813 172.462 245.710 189.192 C 245.654 198.393,245.821 206.430,246.082 207.053 C 246.681 208.481,249.679 209.772,251.561 209.413 C 252.349 209.262,253.489 208.592,254.095 207.923 C 255.089 206.826,255.213 205.136,255.377 190.541 C 255.570 173.251,255.354 171.625,252.693 170.412 C 250.451 169.391,249.050 169.569,247.345 171.094 M247.431 230.710 C 245.461 232.207,245.158 234.787,245.158 250.095 C 245.158 268.357,245.475 269.492,250.577 269.492 C 251.531 269.492,252.783 268.906,253.499 268.123 C 254.681 266.831,254.767 265.847,255.034 250.608 C 255.189 241.728,255.077 233.814,254.784 233.022 C 254.491 232.230,253.779 231.223,253.203 230.785 C 251.862 229.767,248.727 229.727,247.431 230.710 M248.417 290.169 C 245.291 291.432,245.157 292.248,245.178 309.929 C 245.198 327.280,245.237 327.533,248.105 329.061 C 249.878 330.006,252.044 329.502,253.658 327.770 C 254.836 326.505,254.892 325.682,254.892 309.527 C 254.892 293.419,254.833 292.550,253.675 291.392 C 253.006 290.722,252.207 290.175,251.900 290.175 C 251.593 290.175,250.977 290.055,250.531 289.909 C 250.085 289.763,249.134 289.880,248.417 290.169 M246.652 351.285 L 245.158 352.778 245.158 369.733 C 245.158 386.669,245.160 386.689,246.566 388.011 C 247.954 389.314,250.199 389.695,252.127 388.955 C 254.592 388.010,254.892 385.852,254.892 369.073 L 254.892 353.011 253.400 351.401 C 251.452 349.299,248.685 349.252,246.652 351.285 " stroke="none" fill-rule="evenodd"></path></svg>