<svg viewBox="0 0 356 400" xmlns="http://www.w3.org/2000/svg" xmlns:bx="https://boxy-svg.com"><path d="M18.070 18.070 C 17.152 18.988,16.613 20.204,16.613 21.360 C 16.613 22.516,17.152 23.732,18.070 24.650 L 19.526 26.107 36.490 26.107 L 53.454 26.107 54.910 24.650 C 56.837 22.724,56.837 19.996,54.910 18.070 L 53.454 16.613 36.490 16.613 L 19.526 16.613 18.070 18.070 M80.568 17.422 C 78.084 19.309,78.173 24.165,80.717 25.526 C 81.356 25.868,89.149 26.107,99.668 26.107 L 117.534 26.107 118.990 24.650 C 119.908 23.732,120.447 22.516,120.447 21.360 C 120.447 20.204,119.908 18.988,118.990 18.070 L 117.534 16.613 99.559 16.632 C 85.752 16.647,81.348 16.830,80.568 17.422 M144.648 17.422 C 143.060 18.629,142.334 21.108,143.031 22.943 C 144.213 26.051,144.318 26.068,163.639 26.088 L 181.614 26.107 183.070 24.650 C 183.988 23.732,184.527 22.516,184.527 21.360 C 184.527 20.204,183.988 18.988,183.070 18.070 L 181.614 16.613 163.639 16.632 C 149.832 16.647,145.428 16.830,144.648 17.422 M208.416 17.753 C 207.685 18.450,206.929 19.651,206.736 20.423 C 206.322 22.070,207.777 25.201,209.212 25.752 C 209.760 25.962,215.043 26.389,220.953 26.702 C 226.862 27.014,233.432 27.685,235.553 28.194 C 237.675 28.702,240.769 29.271,242.430 29.458 C 245.210 29.771,245.553 29.668,246.732 28.169 C 248.228 26.267,248.380 23.927,247.123 22.133 C 245.128 19.285,235.059 17.260,220.720 16.822 C 210.090 16.497,209.701 16.526,208.416 17.753 M37.650 29.936 L 36.193 31.393 36.193 49.140 C 36.193 66.195,36.241 66.948,37.423 68.450 C 38.977 70.426,42.685 70.641,44.467 68.860 C 46.212 67.115,46.370 65.135,46.169 47.563 L 45.983 31.342 44.319 29.911 C 42.143 28.041,39.535 28.051,37.650 29.936 M267.362 37.528 C 265.962 38.788,265.586 39.887,265.745 42.255 C 265.783 42.816,267.565 45.219,269.706 47.595 C 274.270 52.662,279.722 60.469,282.367 65.729 C 284.874 70.713,286.040 71.793,288.910 71.793 C 290.721 71.793,291.515 71.445,292.470 70.230 C 293.147 69.370,293.700 68.058,293.700 67.314 C 293.700 65.790,290.145 58.831,286.309 52.847 C 283.193 47.986,275.306 38.498,273.273 37.166 C 271.220 35.821,269.117 35.950,267.362 37.528 M37.650 94.016 L 36.193 95.473 36.193 113.327 L 36.193 131.181 37.650 132.637 C 40.555 135.542,45.220 133.951,45.989 129.794 C 46.185 128.732,46.264 120.609,46.165 111.742 L 45.983 95.620 44.545 94.090 C 42.627 92.050,39.648 92.018,37.650 94.016 M296.273 93.436 C 294.229 94.868,294.195 96.800,296.053 106.029 C 297.025 110.859,298.248 118.281,298.772 122.523 C 299.892 131.594,300.644 133.114,304.143 133.378 C 309.109 133.753,309.895 131.395,308.488 120.341 C 307.233 110.474,304.582 97.046,303.464 94.882 C 302.188 92.416,298.724 91.719,296.273 93.436 M302.555 157.576 C 301.138 159.084,301.109 159.340,300.585 174.969 C 300.293 183.694,300.238 191.818,300.464 193.022 C 301.173 196.802,304.725 198.707,307.898 197.009 C 309.872 195.953,310.216 193.276,310.589 176.070 L 310.958 159.011 309.476 157.529 C 307.452 155.505,304.484 155.525,302.555 157.576 M37.650 158.096 L 36.193 159.553 36.193 176.825 C 36.193 194.398,36.345 195.747,38.515 197.413 C 39.752 198.362,42.753 198.336,44.032 197.364 C 46.016 195.857,46.280 193.522,46.280 177.457 C 46.280 161.068,45.956 158.330,43.883 157.221 C 41.923 156.172,39.191 156.555,37.650 158.096 M39.964 220.571 C 39.263 220.689,38.195 221.333,37.590 222.001 C 36.579 223.118,36.476 224.655,36.317 240.975 L 36.143 258.735 37.903 260.494 C 40.179 262.770,42.286 262.778,44.546 260.519 L 46.280 258.785 46.271 241.681 C 46.265 229.295,46.060 224.179,45.530 223.135 C 44.714 221.530,41.915 220.241,39.964 220.571 M302.110 221.500 C 300.844 222.847,300.820 223.210,300.820 240.810 L 300.820 258.747 302.276 260.204 C 304.078 262.005,306.634 262.095,308.750 260.430 L 310.313 259.201 310.313 240.954 L 310.313 222.707 308.940 221.417 C 307.058 219.649,303.812 219.688,302.110 221.500 M303.970 284.200 C 300.861 285.482,300.755 286.224,300.943 305.257 L 301.117 322.878 302.781 324.309 C 304.620 325.889,305.956 326.078,308.169 325.070 C 310.786 323.877,310.971 322.383,310.785 303.913 C 310.619 287.519,310.548 286.550,309.423 285.446 C 307.958 284.008,305.691 283.489,303.970 284.200 M39.172 284.954 C 36.299 286.436,36.172 287.379,36.337 305.996 C 36.487 323.036,36.513 323.358,37.812 324.656 C 39.760 326.603,43.055 326.456,44.874 324.342 L 46.280 322.707 46.280 305.270 C 46.280 288.025,46.265 287.816,44.945 286.339 C 43.288 284.485,41.100 283.960,39.172 284.954 M304.083 348.378 C 301.441 349.824,301.412 350.040,301.432 368.722 C 301.453 387.985,301.455 388.002,304.686 389.230 C 306.744 390.013,309.436 389.087,310.414 387.259 C 311.086 386.003,311.169 352.034,310.504 350.301 C 310.138 349.347,307.270 347.683,306.041 347.711 C 305.617 347.721,304.736 348.021,304.083 348.378 M38.155 349.718 L 36.490 351.149 36.304 367.666 C 36.090 386.561,36.335 388.257,39.466 389.565 C 41.844 390.559,43.896 389.992,45.330 387.945 C 46.148 386.778,46.280 384.212,46.280 369.543 C 46.280 351.491,46.096 350.121,43.517 348.945 C 41.329 347.949,39.988 348.142,38.155 349.718 " stroke="none" fill-rule="evenodd"></path></svg>