<svg viewBox="0 0 334 400" xmlns="http://www.w3.org/2000/svg" xmlns:bx="https://boxy-svg.com"><path d="M35.802 10.278 C 33.721 11.183,32.287 13.647,32.287 16.317 C 32.287 17.865,33.783 20.334,40.397 29.694 C 44.858 36.008,49.150 41.679,49.935 42.297 C 54.286 45.719,61.198 41.194,59.789 35.847 C 59.512 34.794,55.653 28.805,51.213 22.539 C 41.777 9.218,40.527 8.223,35.802 10.278 M282.098 22.025 C 279.903 23.216,279.085 25.255,278.653 30.617 C 278.444 33.219,277.909 38.529,277.466 42.417 C 276.344 52.249,276.338 55.209,277.435 56.884 C 279.758 60.429,285.802 60.449,288.115 56.920 C 289.028 55.526,290.745 42.212,291.486 30.781 L 291.854 25.099 289.881 23.126 C 288.290 21.535,287.493 21.158,285.765 21.176 C 284.586 21.188,282.936 21.570,282.098 22.025 M65.897 52.543 C 63.513 53.617,62.347 55.484,62.347 58.227 C 62.347 60.198,62.945 61.393,66.393 66.314 C 79.570 85.118,80.106 85.728,83.436 85.725 C 87.562 85.720,90.864 81.849,89.927 78.115 C 89.526 76.517,74.831 55.494,72.746 53.535 C 71.062 51.953,68.145 51.531,65.897 52.543 M276.251 73.195 C 273.730 74.290,273.053 76.119,270.788 87.953 C 267.326 106.046,267.480 104.868,268.308 106.868 C 270.270 111.604,277.359 112.011,279.681 107.521 C 280.449 106.038,284.505 86.487,285.319 80.349 C 285.777 76.895,284.633 74.511,281.892 73.211 C 279.721 72.180,278.591 72.177,276.251 73.195 M95.957 94.850 C 93.616 95.905,92.407 97.782,92.407 100.360 C 92.407 103.059,92.311 102.890,99.939 113.656 L 106.322 122.666 103.679 124.114 C 97.928 127.263,87.035 136.238,85.087 139.432 C 81.511 145.297,88.454 151.953,93.957 147.934 C 94.900 147.245,97.630 144.956,100.023 142.848 C 104.518 138.888,110.040 135.050,113.724 133.325 C 115.857 132.327,117.457 130.100,117.457 128.129 C 117.457 127.539,117.831 126.745,118.289 126.365 C 119.831 125.086,120.444 121.804,119.542 119.657 C 118.624 117.469,104.261 97.104,102.565 95.584 C 101.056 94.231,98.067 93.899,95.957 94.850 M263.886 124.508 C 262.320 125.908,261.502 127.866,257.683 139.364 C 255.263 146.648,253.283 153.353,253.283 154.265 C 253.283 158.006,255.798 160.320,259.866 160.320 C 262.276 160.320,264.098 159.210,265.206 157.068 C 267.053 153.497,273.880 131.704,273.880 129.380 C 273.880 125.931,271.737 123.578,268.236 123.184 C 266.001 122.932,265.469 123.094,263.886 124.508 M126.017 137.183 C 121.992 138.935,121.270 143.409,124.293 147.878 C 131.559 158.621,139.456 169.180,140.623 169.711 C 146.275 172.287,152.026 166.895,149.354 161.524 C 147.347 157.490,133.422 138.485,131.705 137.439 C 129.684 136.206,128.396 136.148,126.017 137.183 M71.532 157.281 C 68.415 158.834,55.110 181.831,55.110 185.665 C 55.110 190.696,61.474 193.932,65.358 190.877 C 66.179 190.231,68.124 187.162,69.680 184.057 C 71.237 180.952,74.356 175.363,76.613 171.637 C 81.008 164.382,81.477 162.614,79.771 159.726 C 78.911 158.269,75.576 156.405,73.886 156.436 C 73.510 156.443,72.450 156.823,71.532 157.281 M245.963 172.299 C 244.977 172.835,243.357 175.235,241.082 179.530 C 239.208 183.065,235.927 188.798,233.790 192.268 C 229.345 199.485,228.950 201.408,231.331 204.238 C 233.215 206.477,236.118 207.289,238.573 206.264 C 241.235 205.151,245.082 199.427,252.647 185.320 C 256.428 178.269,256.416 174.895,252.601 172.569 C 250.472 171.271,248.039 171.172,245.963 172.299 M156.048 179.502 C 152.008 181.259,151.244 185.810,154.254 190.185 C 161.021 200.026,168.937 210.846,169.962 211.660 C 172.337 213.544,177.275 212.648,178.996 210.021 C 179.934 208.590,180.222 204.888,179.490 203.653 C 179.247 203.241,175.532 197.922,171.236 191.831 C 161.936 178.648,160.567 177.536,156.048 179.502 M48.294 204.160 C 46.435 205.313,45.854 206.539,42.958 215.430 C 37.566 231.983,36.910 235.790,38.992 238.437 C 41.103 241.122,45.868 241.407,48.518 239.008 C 49.095 238.487,50.205 235.911,50.985 233.286 C 51.765 230.660,53.639 224.754,55.148 220.161 C 58.526 209.885,58.648 207.724,56.001 205.076 C 54.494 203.569,53.671 203.186,51.965 203.198 C 50.786 203.206,49.134 203.639,48.294 204.160 M217.378 214.943 C 216.766 215.304,214.136 217.636,211.533 220.124 C 206.866 224.587,199.970 229.903,198.847 229.903 C 198.530 229.903,197.091 228.249,195.648 226.228 C 192.779 222.206,190.290 220.683,187.565 221.282 C 183.959 222.074,181.582 225.842,182.552 229.226 C 183.120 231.206,199.062 253.681,200.411 254.403 C 201.789 255.140,205.194 255.101,206.699 254.332 C 210.336 252.472,210.992 247.772,208.160 243.863 C 207.224 242.570,206.535 241.314,206.630 241.071 C 206.724 240.829,209.307 238.744,212.368 236.438 C 215.430 234.132,219.876 230.244,222.249 227.798 C 226.360 223.561,226.563 223.231,226.563 220.791 C 226.563 217.217,224.462 214.859,220.979 214.525 C 219.611 214.394,217.991 214.582,217.378 214.943 M33.725 255.093 C 32.033 256.803,31.838 257.448,30.161 266.922 C 27.083 284.311,26.925 285.821,27.950 287.971 C 29.763 291.773,35.098 292.627,38.126 289.599 C 39.772 287.952,39.564 288.738,41.778 275.828 C 42.723 270.317,43.765 264.254,44.093 262.355 C 45.083 256.626,42.838 253.283,38.001 253.283 C 35.935 253.283,35.213 253.589,33.725 255.093 M215.987 264.278 C 213.344 265.598,211.730 268.863,212.492 271.345 C 213.181 273.589,228.988 295.916,230.437 296.691 C 231.870 297.458,235.088 297.410,236.877 296.595 C 238.736 295.748,239.927 293.450,239.909 290.747 C 239.897 288.926,238.725 286.979,231.481 276.741 C 224.878 267.410,222.669 264.685,221.215 264.077 C 218.837 263.084,218.340 263.103,215.987 264.278 M27.141 305.441 C 26.300 305.980,25.264 307.178,24.837 308.103 C 24.016 309.881,22.257 328.604,22.263 335.488 C 22.266 339.202,22.386 339.601,23.979 341.194 C 25.418 342.632,26.122 342.907,28.374 342.907 C 31.975 342.907,34.279 340.871,34.718 337.302 C 35.191 333.454,36.752 312.809,36.746 310.490 C 36.733 305.964,31.013 302.958,27.141 305.441 M246.197 306.435 C 243.009 307.821,241.325 311.895,242.784 314.692 C 244.162 317.334,259.103 338.011,260.178 338.764 C 262.777 340.584,268.093 339.210,269.379 336.387 C 270.968 332.899,270.441 331.740,261.524 319.112 C 251.766 305.293,250.753 304.455,246.197 306.435 M276.385 348.697 C 272.543 350.393,271.224 354.225,273.281 357.711 C 275.761 361.915,289.036 380.228,290.188 381.035 C 290.846 381.496,292.481 381.873,293.821 381.873 C 298.441 381.873,301.540 376.826,299.398 372.791 C 299.042 372.122,295.169 366.530,290.791 360.365 C 284.432 351.410,282.473 349.030,281.055 348.535 C 278.852 347.767,278.462 347.781,276.385 348.697 M23.026 358.106 L 20.875 360.076 20.699 373.499 L 20.524 386.922 22.453 388.851 C 24.066 390.464,24.781 390.780,26.819 390.780 C 28.159 390.780,29.814 390.389,30.496 389.911 C 33.174 388.036,33.400 386.718,33.400 373.003 L 33.400 360.181 31.851 358.447 C 30.668 357.124,29.696 356.646,27.739 356.425 C 25.394 356.161,24.993 356.304,23.026 358.106 " stroke="none" fill-rule="evenodd" fill=" rgb(216, 216, 216)"></path></svg>