<svg viewBox="0 0 372 400" xmlns="http://www.w3.org/2000/svg" xmlns:bx="https://boxy-svg.com"><path d="M99.975 30.510 C 98.253 32.361,98.162 35.306,99.764 37.286 C 100.909 38.702,101.325 38.762,112.319 39.109 C 124.765 39.502,126.242 39.238,127.615 36.373 C 128.630 34.255,127.693 31.371,125.620 30.235 C 124.816 29.794,119.884 29.419,112.840 29.264 L 101.370 29.011 99.975 30.510 M71.920 30.814 C 66.975 31.346,62.317 32.011,61.567 32.292 C 58.041 33.618,57.440 38.695,60.567 40.744 C 62.017 41.694,62.919 41.690,73.378 40.695 C 86.108 39.484,87.597 38.924,87.916 35.230 C 88.175 32.234,86.531 30.364,83.384 30.075 C 82.023 29.951,76.864 30.283,71.920 30.814 M141.050 32.336 C 139.153 33.373,138.260 34.779,138.260 36.727 C 138.260 39.475,140.490 41.215,145.099 42.062 C 147.305 42.468,152.396 43.541,156.411 44.448 L 163.713 46.098 165.401 44.842 C 167.372 43.376,167.971 39.496,166.517 37.614 C 165.542 36.353,159.554 34.665,149.508 32.819 C 141.948 31.430,142.634 31.469,141.050 32.336 M32.240 36.898 C 23.394 38.722,21.821 39.226,20.615 40.618 C 18.877 42.625,18.841 44.611,20.505 46.726 C 22.169 48.841,23.242 48.820,35.596 46.430 C 46.901 44.242,48.360 43.470,48.360 39.668 C 48.360 37.036,46.993 35.493,44.289 35.071 C 43.289 34.915,37.867 35.737,32.240 36.898 M178.222 43.682 C 175.191 46.712,176.619 50.131,181.907 52.509 C 183.988 53.444,188.542 55.683,192.027 57.485 C 195.513 59.286,199.083 60.760,199.961 60.760 C 203.279 60.760,205.636 56.414,203.987 53.334 C 202.868 51.243,184.420 42.160,181.292 42.160 C 180.440 42.160,179.059 42.845,178.222 43.682 M214.096 62.611 C 212.416 63.304,211.420 65.090,211.420 67.405 C 211.420 68.871,212.892 70.570,220.052 77.366 C 227.342 84.287,228.984 85.560,230.620 85.560 C 231.849 85.560,233.112 85.004,234.078 84.038 C 237.032 81.085,235.871 78.393,228.757 71.701 C 219.218 62.727,217.058 61.388,214.096 62.611 M239.602 93.282 C 237.351 95.533,237.684 97.608,241.249 103.535 C 242.991 106.431,245.355 110.665,246.503 112.944 C 249.555 119.005,252.267 120.429,255.666 117.755 C 258.784 115.303,257.643 111.479,250.039 98.890 C 248.186 95.821,246.218 92.961,245.666 92.535 C 244.035 91.275,241.268 91.616,239.602 93.282 M256.927 129.167 C 254.832 130.969,254.824 132.722,256.881 139.641 C 257.720 142.462,258.899 146.849,259.501 149.391 C 260.696 154.437,262.460 156.860,264.938 156.860 C 266.679 156.860,269.468 154.848,269.985 153.220 C 270.372 152.000,268.678 144.196,266.200 135.780 C 263.934 128.088,260.789 125.845,256.927 129.167 M264.988 168.336 L 263.432 169.892 263.806 179.961 C 264.012 185.499,264.319 190.938,264.489 192.047 C 265.131 196.247,269.936 198.039,272.692 195.105 C 273.920 193.798,274.036 193.040,273.996 186.580 C 273.923 174.788,273.317 170.201,271.593 168.365 C 269.650 166.297,267.038 166.285,264.988 168.336 M267.276 207.142 C 264.329 208.309,264.161 209.095,264.140 221.805 C 264.121 232.928,264.204 233.824,265.360 234.980 C 266.690 236.310,269.664 236.615,271.536 235.613 C 273.522 234.550,274.040 231.459,274.040 220.662 C 274.040 210.731,273.975 210.178,272.645 208.715 C 270.950 206.850,269.262 206.355,267.276 207.142 M265.849 247.605 C 265.266 248.048,264.499 249.174,264.144 250.106 C 263.240 252.484,263.304 271.893,264.221 273.616 C 265.943 276.849,269.421 277.475,271.898 274.998 C 273.409 273.487,273.420 273.391,273.420 261.466 C 273.420 249.714,273.389 249.427,271.985 248.108 C 270.381 246.601,267.484 246.363,265.849 247.605 M266.656 287.122 C 263.709 288.289,263.541 289.075,263.520 301.785 C 263.501 312.908,263.584 313.804,264.740 314.960 C 266.367 316.587,269.915 316.605,271.525 314.995 C 273.257 313.263,273.534 310.880,273.309 299.606 C 273.129 290.530,272.992 289.457,271.870 288.380 C 270.240 286.815,268.494 286.394,266.656 287.122 M265.229 327.585 C 263.225 329.108,262.830 331.706,262.912 342.809 L 262.993 353.710 255.516 354.020 C 249.528 354.268,247.825 354.544,246.965 355.406 C 245.415 356.961,245.576 360.551,247.272 362.249 C 248.565 363.542,249.285 363.643,258.627 363.841 C 269.817 364.077,272.336 363.784,274.075 362.045 C 275.672 360.448,275.631 357.264,273.990 355.517 C 272.768 354.216,272.704 353.502,272.774 341.902 C 272.845 330.071,272.802 329.612,271.476 328.200 C 269.942 326.567,266.956 326.273,265.229 327.585 M8.006 354.195 C 5.210 356.342,5.163 359.934,7.903 362.090 C 9.333 363.215,10.436 363.320,20.770 363.320 C 31.266 363.320,32.189 363.228,33.706 362.035 C 36.014 360.220,36.014 356.500,33.706 354.685 C 32.184 353.488,31.285 353.401,20.531 353.420 C 12.438 353.434,8.696 353.665,8.006 354.195 M47.402 354.922 C 46.443 355.881,45.880 357.152,45.880 358.360 C 45.880 359.568,46.443 360.839,47.402 361.798 C 48.911 363.308,49.020 363.320,60.761 363.320 L 72.599 363.320 74.120 361.679 C 75.754 359.916,76.064 357.414,74.845 355.826 C 73.201 353.684,71.480 353.400,60.153 353.400 C 49.057 353.400,48.906 353.418,47.402 354.922 M87.929 354.594 C 85.145 356.784,85.170 360.363,87.986 362.525 C 88.678 363.056,92.479 363.286,100.797 363.300 C 112.370 363.320,112.653 363.289,113.972 361.885 C 115.760 359.981,115.783 356.491,114.017 354.891 C 112.851 353.835,111.491 353.690,101.126 353.519 C 90.239 353.339,89.442 353.404,87.929 354.594 M128.650 354.095 C 125.508 355.867,124.852 359.677,127.295 361.972 C 128.666 363.260,129.265 363.320,140.653 363.320 C 152.486 363.320,152.588 363.308,154.098 361.798 C 156.025 359.871,156.034 357.671,154.125 355.450 L 152.630 353.710 141.260 353.553 C 133.691 353.449,129.476 353.630,128.650 354.095 M168.640 354.202 C 166.299 355.386,165.244 358.008,166.189 360.290 C 166.608 361.301,167.451 362.396,168.064 362.724 C 168.677 363.052,174.498 363.320,180.999 363.320 C 191.993 363.320,192.907 363.233,194.060 362.080 C 195.390 360.750,195.695 357.776,194.693 355.904 C 194.359 355.281,193.202 354.462,192.121 354.085 C 189.306 353.104,170.627 353.197,168.640 354.202 M207.188 355.455 C 205.397 357.361,205.436 360.244,207.275 361.972 C 208.648 363.261,209.238 363.320,220.870 363.320 L 233.030 363.320 234.315 361.686 C 235.022 360.788,235.600 359.431,235.600 358.670 C 235.600 357.909,235.022 356.552,234.315 355.654 L 233.030 354.020 220.783 354.020 C 208.783 354.020,208.509 354.049,207.188 355.455 M287.168 355.455 C 284.884 357.886,285.451 361.537,288.344 363.033 C 290.533 364.165,310.299 364.342,312.692 363.252 C 315.720 361.872,316.423 357.906,314.058 355.542 C 312.547 354.031,312.451 354.020,300.526 354.020 C 288.774 354.020,288.487 354.051,287.168 355.455 M327.926 354.815 C 325.130 356.962,325.083 360.554,327.823 362.710 C 329.253 363.835,330.356 363.940,340.690 363.940 C 351.186 363.940,352.109 363.848,353.626 362.655 C 355.934 360.840,355.934 357.120,353.626 355.305 C 352.104 354.108,351.205 354.021,340.451 354.040 C 332.358 354.054,328.616 354.285,327.926 354.815 " stroke="none" fill-rule="evenodd" fill=" rgba(216, 216, 216, 0)"></path></svg>