<?xml version="1.0" standalone="no"?>
<!DOCTYPE svg PUBLIC "-//W3C//DTD SVG 1.1//EN" "http://www.w3.org/Graphics/SVG/1.1/DTD/svg11.dtd" >
<svg xmlns="http://www.w3.org/2000/svg" xmlns:xlink="http://www.w3.org/1999/xlink" version="1.1" viewBox="-10 0 996 2048">
   <path fill="currentColor"
d="M846 1656h-27q-6 -77 -52 -129l-434 -498q-111 56 -111 144q0 68 71 175q82 122 82 194q0 96 -73 96h-189v-27q60 -16 60 -69q0 -33 -38 -131q-38 -97 -38 -150q0 -161 198 -274l-123 -139q-77 -88 -77 -183q0 -86 70 -162h26q5 87 52 140l376 427q29 -144 111 -269
q-159 -26 -159 -160q0 -79 41 -138h26q16 62 77 77l86 20q113 27 113 127q0 44 -9 71q-33 10 -109 10q-104 164 -104 268q0 77 53 138l93 107q78 89 78 184q0 86 -70 151z" />
</svg>
