<?xml version="1.0" standalone="no"?>
<!DOCTYPE svg PUBLIC "-//W3C//DTD SVG 1.1//EN" "http://www.w3.org/Graphics/SVG/1.1/DTD/svg11.dtd" >
<svg xmlns="http://www.w3.org/2000/svg" xmlns:xlink="http://www.w3.org/1999/xlink" version="1.1" viewBox="-10 0 868 2048">
   <path fill="currentColor"
d="M514 1663l-16 -23q26 -38 26 -103q0 -53 -4 -161q-5 -108 -5 -161q0 -277 174 -413h-467q-155 0 -155 -126q0 -98 61 -164h26q16 70 100 70h414q70 0 96.5 25.5t26.5 93.5q0 88 -42 115.5t-76.5 85.5t-34.5 140q0 70 11 210q11 141 11 211q0 176 -146 200z" />
</svg>
