<?xml version="1.0" standalone="no"?>
<!DOCTYPE svg PUBLIC "-//W3C//DTD SVG 1.1//EN" "http://www.w3.org/Graphics/SVG/1.1/DTD/svg11.dtd" >
<svg xmlns="http://www.w3.org/2000/svg" xmlns:xlink="http://www.w3.org/1999/xlink" version="1.1" viewBox="-10 0 975 2048">
   <path fill="currentColor"
d="M707 1663l-16 -21q26 -44 26 -105q0 -59 -8 -177q-8 -119 -8 -178q0 -241 117 -380h-589q-151 0 -151 -126q0 -98 61 -164h27q16 70 94 70h488q63 0 96 21t33 98v49q0 37 -36.5 96.5t-36.5 184.5q0 72 23 216t23 216q0 178 -143 200zM102 1664l-14 -22q26 -27 26 -73
q0 -31 -3 -94t-3 -94q0 -209 150 -209q20 0 34 8v27q-48 31 -48 131q0 33 4 98t4 97q0 122 -150 131z" />
</svg>
