<?xml version="1.0" standalone="no"?>
<!DOCTYPE svg PUBLIC "-//W3C//DTD SVG 1.1//EN" "http://www.w3.org/Graphics/SVG/1.1/DTD/svg11.dtd" >
<svg xmlns="http://www.w3.org/2000/svg" xmlns:xlink="http://www.w3.org/1999/xlink" version="1.1" viewBox="-10 0 596 2048">
   <path fill="currentColor"
d="M510 794q-81 18 -181 18q-23 108 -23 172q0 91 23 194q39 184 39 267q0 195 -142 218l-17 -20q30 -43 30 -110q0 -62 -16 -184t-16 -183q0 -187 79 -356q-208 0 -208 -143q0 -94 55 -164h27q12 57 66 69q207 8 250 43t43 120q0 27 -9 59z" />
</svg>
