<?xml version="1.0" standalone="no"?>
<!DOCTYPE svg PUBLIC "-//W3C//DTD SVG 1.1//EN" "http://www.w3.org/Graphics/SVG/1.1/DTD/svg11.dtd" >
<svg xmlns="http://www.w3.org/2000/svg" xmlns:xlink="http://www.w3.org/1999/xlink" version="1.1" viewBox="-10 0 986 2048">
   <path fill="currentColor"
d="M717 1663l-16 -21q26 -39 26 -105q0 -59 -8 -177q-8 -119 -8 -178q0 -243 116 -381h-506q-98 73 -98 240q0 67 20 203q20 135 20 203q0 195 -149 216l-13 -21q36 -56 30 -177l-13 -253q-12 -262 145 -411q-100 -1 -137.5 -28.5t-37.5 -96.5q0 -98 61 -164h27q16 70 99 70
h483q77 0 103.5 27.5t25.5 91.5q0 83 -38.5 149t-38.5 181q0 72 24 216q23 144 23 216q0 179 -140 200z" />
</svg>
