<?xml version="1.0" standalone="no"?>
<!DOCTYPE svg PUBLIC "-//W3C//DTD SVG 1.1//EN" "http://www.w3.org/Graphics/SVG/1.1/DTD/svg11.dtd" >
<svg xmlns="http://www.w3.org/2000/svg" xmlns:xlink="http://www.w3.org/1999/xlink" version="1.1" viewBox="-10 0 984 2048">
   <path fill="currentColor"
d="M747 1638h-530q-1 -79 -30 -233q-42 -222 -42 -332q0 -129 52 -264q-77 -14 -103.5 -44.5t-26.5 -95.5q0 -80 42 -166h27q7 73 108 78q119 3 119 128q0 44 -13 88q-44 14 -105 14q-35 112 -35 195q0 193 102 428h414q85 -180 85 -425q0 -220 -165 -220q-138 0 -198 194
l-32 -8q84 -405 272 -405q187 0 187 438q0 272 -128 630z" />
</svg>
