<?xml version="1.0" standalone="no"?>
<!DOCTYPE svg PUBLIC "-//W3C//DTD SVG 1.1//EN" "http://www.w3.org/Graphics/SVG/1.1/DTD/svg11.dtd" >
<svg xmlns="http://www.w3.org/2000/svg" xmlns:xlink="http://www.w3.org/1999/xlink" version="1.1" viewBox="-10 0 983 2048">
   <path fill="currentColor"
d="M518 1660h-37q-178 0 -277.5 -124t-99.5 -331q0 -241 110 -404q-61 0 -90 -38.5t-29 -86.5q0 -95 61 -164h26q16 70 99 70h244q192 0 273 128.5t81 390.5q0 306 -89.5 432.5t-271.5 126.5zM560 802h-287q-86 144 -86 317q0 335 268 335h88q134 0 197.5 -73t63.5 -246
q0 -202 -61 -267.5t-183 -65.5z" />
</svg>
