<?xml version="1.0" standalone="no"?>
<!DOCTYPE svg PUBLIC "-//W3C//DTD SVG 1.1//EN" "http://www.w3.org/Graphics/SVG/1.1/DTD/svg11.dtd" >
<svg xmlns="http://www.w3.org/2000/svg" xmlns:xlink="http://www.w3.org/1999/xlink" version="1.1" viewBox="-10 0 940 2048">
   <path fill="currentColor"
d="M67 1667l42 -203l265 -33q0 -203 -55 -248q-75 -62 -91.5 -101.5t-16.5 -92.5q0 -61 21 -182q-157 -29 -157 -140q0 -85 40 -164h27q16 67 86 75l47 4q119 12 119 147q0 31 -10 59q-64 19 -111 19q0 114 8 149t50 63q62 40 76 70.5t14 106.5v230l60 -8q59 -9 78.5 -32
t43.5 -131q23 -100 87 -237q55 -117 55 -149q0 -57 -51 -68q-147 -34 -147 -142q0 -74 49 -156h27q9 41 34.5 58t97.5 28q108 16 108 108q0 66 -86.5 249t-86.5 406q0 242 -278 275z" />
</svg>
