<?xml version="1.0" standalone="no"?>
<!DOCTYPE svg PUBLIC "-//W3C//DTD SVG 1.1//EN" "http://www.w3.org/Graphics/SVG/1.1/DTD/svg11.dtd" >
<svg xmlns="http://www.w3.org/2000/svg" xmlns:xlink="http://www.w3.org/1999/xlink" version="1.1" viewBox="-10 0 940 2048">
   <path fill="currentColor"
d="M741 1992l-23 -8v-837q0 -198 -37.5 -271.5t-180.5 -73.5h-267q-60 96 -60 165q0 44 20.5 61.5t87.5 30.5q87 16 87 83v50q0 38 -34 38q-15 0 -44 -5q-30 -4 -44 -4q-72 0 -114 53h-33q-32 -64 -32 -129q0 -180 119 -343q-90 -18 -90 -126q0 -94 63 -164h26q17 70 98 70
h151q156 0 229 24t101 83t36 228l20 450q12 281 12 476q0 51 -10.5 87t-80.5 62z" />
</svg>
