<?xml version="1.0" standalone="no"?>
<!DOCTYPE svg PUBLIC "-//W3C//DTD SVG 1.1//EN" "http://www.w3.org/Graphics/SVG/1.1/DTD/svg11.dtd" >
<svg xmlns="http://www.w3.org/2000/svg" xmlns:xlink="http://www.w3.org/1999/xlink" version="1.1" viewBox="-10 0 1260 2048">
   <path fill="currentColor"
d="M821 1638h-559q-29 -154 -63 -276q-48 -175 -48 -285q0 -149 41 -269q-125 -37 -125 -136q0 -94 50 -169h27q10 37 31 52t88 29q100 21 100 155q0 34 -6 54q-64 21 -118 21q-23 103 -23 230q0 163 116 390l31 -1q136 -250 240 -629q-124 -46 -124 -146q0 -86 51 -155h27
q12 56 56 67l63 14q101 23 101 138q0 41 -9 71q-45 14 -112 14q-75 343 -217 627h318q46 -152 254 -444q53 -73 53 -124q0 -52 -54 -70l-13 -4q-100 -34 -100 -118q0 -95 58 -171h26q7 48 51 64l56 19q95 33 95 137q0 90 -93 234.5t-164 317t-105 363.5z" />
</svg>
