<?xml version="1.0" standalone="no"?>
<!DOCTYPE svg PUBLIC "-//W3C//DTD SVG 1.1//EN" "http://www.w3.org/Graphics/SVG/1.1/DTD/svg11.dtd" >
<svg xmlns="http://www.w3.org/2000/svg" xmlns:xlink="http://www.w3.org/1999/xlink" version="1.1" viewBox="-10 0 1151 2048">
   <path fill="currentColor"
d="M957 1657l-22 -7v-691q0 -72 -23 -106.5t-123 -50.5q-152 -25 -152 -152q0 -92 58 -147h27q9 62 83 75l84 13q69 11 102 54t33 171v717q0 89 -67 124zM386 1657l-22 -7v-691q0 -72 -22.5 -106.5t-122.5 -50.5q-152 -25 -152 -152q0 -92 58 -147h27q8 62 83 75l84 13
q70 11 102.5 54t32.5 171v717q0 89 -68 124z" />
</svg>
