<?xml version="1.0" standalone="no"?>
<!DOCTYPE svg PUBLIC "-//W3C//DTD SVG 1.1//EN" "http://www.w3.org/Graphics/SVG/1.1/DTD/svg11.dtd" >
<svg xmlns="http://www.w3.org/2000/svg" xmlns:xlink="http://www.w3.org/1999/xlink" version="1.1" viewBox="-10 0 1102 2048">
   <path fill="currentColor"
d="M850 1160l-28 -32q106 -79 106 -220q0 -101 -149 -107q-166 -6 -166 -141q0 -70 47 -157h27q10 68 91 75l91 6q134 10 134 185v75q0 237 -153 316zM304 1160l-28 -32q106 -79 106 -220q0 -101 -149 -107q-166 -6 -166 -141q0 -70 47 -157h27q10 68 91 75l91 6
q134 10 134 185v75q0 237 -153 316z" />
</svg>
