<svg viewBox="0 0 400 420" xmlns="http://www.w3.org/2000/svg" xmlns:bx="https://boxy-svg.com"><path d="M339.365 4.415 C 338.066 4.961,336.950 6.113,336.396 7.478 C 335.908 8.682,334.527 17.113,333.326 26.213 L 331.142 42.759 332.472 44.541 C 335.074 48.026,339.986 48.021,342.260 44.530 C 343.240 43.026,347.463 15.030,347.498 9.806 C 347.529 5.261,343.579 2.643,339.365 4.415 M58.886 4.977 C 57.723 5.480,56.448 6.496,56.052 7.235 C 54.291 10.526,55.063 12.145,64.730 25.425 C 69.898 32.524,75.143 39.308,76.387 40.500 C 79.371 43.360,82.033 43.403,84.800 40.636 C 88.048 37.388,87.417 35.907,76.361 20.817 C 71.003 13.504,65.955 6.914,65.143 6.171 C 63.050 4.256,61.318 3.926,58.886 4.977 M96.897 58.592 C 94.343 60.184,93.485 63.165,94.815 65.828 C 96.868 69.939,115.705 94.841,117.188 95.405 C 121.493 97.041,125.333 94.520,125.333 90.059 C 125.333 87.998,123.869 85.650,115.312 73.989 C 109.800 66.479,104.774 59.816,104.143 59.183 C 102.306 57.341,99.298 57.096,96.897 58.592 M329.014 68.926 C 327.199 70.740,327.342 70.053,324.639 89.886 C 323.524 98.074,322.809 105.424,323.051 106.220 C 324.601 111.315,331.478 112.045,333.975 107.380 C 334.915 105.623,339.377 72.913,338.872 71.480 C 337.380 67.247,332.069 65.871,329.014 68.926 M135.282 112.615 C 132.993 114.905,132.767 117.397,134.581 120.370 C 135.264 121.491,139.009 126.721,142.902 131.993 L 149.982 141.579 145.824 143.906 C 139.728 147.317,132.328 152.931,126.833 158.312 C 122.411 162.643,122.000 163.275,122.000 165.740 C 122.000 169.218,124.197 171.467,127.595 171.467 C 129.595 171.467,130.828 170.696,135.560 166.486 C 141.847 160.892,146.794 157.156,151.559 154.404 C 153.333 153.380,155.412 151.820,156.179 150.937 C 156.946 150.055,158.229 149.333,159.030 149.333 C 163.079 149.333,165.912 143.695,163.637 140.164 C 158.716 132.523,142.820 111.772,141.505 111.272 C 138.829 110.255,137.316 110.581,135.282 112.615 M320.097 131.833 C 318.756 133.110,317.408 135.893,315.654 141.000 C 314.270 145.033,311.531 151.931,309.568 156.329 C 307.606 160.726,306.000 165.174,306.000 166.213 C 306.000 168.451,309.220 172.000,311.251 172.000 C 314.751 172.000,316.181 170.482,319.724 163.003 C 324.100 153.766,329.350 139.315,329.467 136.179 C 329.539 134.277,329.127 133.408,327.435 131.896 C 324.764 129.510,322.555 129.491,320.097 131.833 M174.474 165.341 C 172.031 167.263,171.567 170.157,173.247 173.003 C 175.234 176.371,192.298 199.466,193.804 200.825 C 196.136 202.931,198.841 202.995,201.212 201.000 C 202.912 199.570,203.333 198.711,203.333 196.677 C 203.333 194.459,202.073 192.417,193.311 180.434 C 187.798 172.896,182.508 166.114,181.554 165.364 C 179.354 163.633,176.657 163.624,174.474 165.341 M104.815 186.822 C 102.605 187.887,94.054 202.663,88.397 215.193 C 86.196 220.067,85.992 220.954,86.626 222.878 C 87.987 227.000,93.514 228.494,96.192 225.462 C 96.741 224.841,99.057 220.583,101.340 216.000 C 103.622 211.417,107.255 204.639,109.412 200.938 C 114.338 192.485,114.635 189.052,110.619 186.975 C 108.427 185.842,106.931 185.802,104.815 186.822 M292.542 188.696 C 291.924 189.057,289.036 192.723,286.125 196.843 C 283.213 200.963,278.689 207.003,276.070 210.265 C 273.452 213.528,271.135 216.890,270.923 217.737 C 269.919 221.736,273.978 225.883,278.024 224.995 C 280.259 224.504,287.092 216.354,296.633 202.802 C 302.204 194.889,302.786 192.632,300.017 189.685 C 298.334 187.893,294.736 187.417,292.542 188.696 M213.350 218.650 C 211.769 220.231,211.042 222.784,211.589 224.833 C 211.809 225.658,216.617 232.632,222.273 240.330 C 233.675 255.848,234.775 256.808,239.077 255.011 C 241.304 254.080,241.587 254.103,243.158 255.339 C 246.192 257.725,248.147 257.117,253.989 251.970 C 259.908 246.753,260.667 245.697,260.667 242.667 C 260.667 239.813,259.751 238.335,257.372 237.349 C 254.264 236.062,252.188 237.013,246.887 242.153 C 244.200 244.759,241.903 246.765,241.783 246.612 C 241.663 246.459,237.121 240.246,231.689 232.806 C 226.258 225.366,221.189 218.841,220.425 218.306 C 218.438 216.914,214.915 217.085,213.350 218.650 M76.476 247.340 C 74.550 248.855,72.550 254.436,67.661 271.936 C 64.340 283.823,64.278 285.740,67.141 287.992 C 69.381 289.754,72.175 289.692,74.337 287.833 C 75.765 286.605,76.790 283.853,79.990 272.666 C 82.139 265.150,84.371 257.687,84.949 256.083 C 86.458 251.894,86.268 250.165,84.051 247.949 C 81.723 245.620,78.946 245.397,76.476 247.340 M252.474 272.008 C 250.421 273.624,249.613 276.697,250.705 278.739 C 251.142 279.555,256.008 286.357,261.519 293.853 C 268.483 303.328,272.134 307.734,273.492 308.305 C 278.832 310.551,283.423 305.150,280.622 299.917 C 279.255 297.363,261.305 273.068,259.872 271.833 C 258.063 270.274,254.574 270.356,252.474 272.008 M58.820 310.368 C 58.008 310.936,57.059 311.934,56.710 312.585 C 55.536 314.779,47.333 345.118,47.333 347.266 C 47.333 352.188,53.571 354.638,57.130 351.115 C 59.042 349.224,68.229 316.603,67.628 313.841 C 66.807 310.066,61.973 308.159,58.820 310.368 M290.970 325.636 C 287.719 328.888,288.358 330.431,299.020 345.050 C 304.348 352.356,309.603 359.158,310.697 360.167 C 313.508 362.756,316.649 362.673,318.941 359.949 C 321.953 356.369,321.522 355.322,311.244 341.242 C 299.289 324.865,298.483 324.000,295.172 324.000 C 293.337 324.000,292.140 324.466,290.970 325.636 M41.182 373.801 C 40.183 374.437,39.181 375.416,38.956 375.978 C 38.730 376.540,36.463 384.488,33.918 393.641 C 30.891 404.522,29.425 410.901,29.682 412.072 C 30.205 414.451,31.994 415.975,34.801 416.430 C 36.606 416.723,37.498 416.461,38.951 415.212 C 40.543 413.842,41.439 411.348,45.384 397.310 C 47.905 388.340,49.975 380.042,49.984 378.871 C 50.018 374.412,44.879 371.452,41.182 373.801 M332.333 377.283 C 330.059 378.238,328.400 380.620,328.400 382.930 C 328.400 384.720,330.408 387.863,339.224 399.871 C 349.108 413.335,350.253 414.654,352.408 415.058 C 353.747 415.309,355.483 415.175,356.419 414.749 C 358.605 413.753,360.203 409.955,359.364 407.748 C 358.707 406.021,339.372 379.415,337.863 378.163 C 336.561 377.082,333.841 376.649,332.333 377.283 " stroke="none" fill-rule="evenodd" ></path></svg>