<svg viewBox="0 0 400 450" xmlns="http://www.w3.org/2000/svg" xmlns:bx="https://boxy-svg.com"><path d="M198.206 4.648 C 194.761 6.095,194.586 7.174,194.801 25.658 L 195.000 42.784 196.871 44.392 C 199.458 46.616,202.276 46.494,204.718 44.051 L 206.667 42.103 206.667 25.088 C 206.667 8.394,206.639 8.042,205.167 6.370 C 203.496 4.472,200.430 3.713,198.206 4.648 M196.616 73.053 L 195.000 74.772 194.792 92.886 C 194.562 112.967,194.781 115.823,196.711 117.894 C 199.900 121.317,205.379 120.010,206.623 115.530 C 207.426 112.640,207.531 100.533,206.888 85.026 C 206.477 75.133,206.339 74.279,204.920 72.860 C 202.731 70.671,198.769 70.763,196.616 73.053 M196.970 146.970 L 195.333 148.606 195.333 169.354 L 195.333 190.103 197.282 192.051 C 199.725 194.494,202.543 194.616,205.129 192.391 L 207.000 190.782 207.000 169.778 L 207.000 148.774 205.384 147.054 C 203.180 144.708,199.270 144.669,196.970 146.970 M197.942 220.188 C 195.510 222.055,195.333 223.590,195.333 242.857 C 195.333 254.646,195.604 262.577,196.050 263.857 C 197.506 268.035,201.841 269.170,205.282 266.274 L 207.333 264.548 207.333 243.698 L 207.333 222.848 205.576 221.091 C 203.647 219.162,199.862 218.714,197.942 220.188 M197.537 294.947 L 195.667 296.561 195.789 317.445 L 195.911 338.328 197.966 340.164 C 199.186 341.254,200.790 342.000,201.913 342.000 C 204.387 342.000,207.134 339.407,207.664 336.572 C 207.894 335.341,207.989 325.832,207.875 315.441 L 207.667 296.549 205.796 294.941 C 203.320 292.812,200.009 292.815,197.537 294.947 M197.758 369.091 L 196.000 370.848 196.000 391.476 L 196.000 412.103 197.949 414.051 C 199.279 415.381,200.565 416.000,202.000 416.000 C 203.435 416.000,204.721 415.381,206.051 414.051 L 208.000 412.103 208.000 392.007 C 208.000 371.552,207.837 370.066,205.391 368.188 C 203.472 366.714,199.687 367.162,197.758 369.091 " stroke="none" fill="black" fill-rule="evenodd"></path></svg>