<svg viewBox="0 0 400 450" xmlns="http://www.w3.org/2000/svg" xmlns:bx="https://boxy-svg.com"><path d="M29.259 5.000 C 26.734 6.372,25.607 9.441,26.678 12.027 C 28.248 15.817,29.022 16.000,43.482 16.000 L 56.667 16.000 56.667 29.051 L 56.667 42.103 58.615 44.051 C 61.235 46.671,64.098 46.671,66.718 44.051 L 68.667 42.103 68.667 29.067 L 68.667 16.031 70.300 14.961 C 73.999 12.537,73.778 6.954,69.903 4.950 C 67.230 3.567,31.814 3.611,29.259 5.000 M99.259 5.000 C 96.734 6.372,95.607 9.441,96.678 12.027 C 98.312 15.973,98.470 16.000,119.505 16.000 C 140.815 16.000,141.264 15.917,142.657 11.696 C 143.573 8.920,142.501 6.293,139.903 4.950 C 137.230 3.567,101.814 3.611,99.259 5.000 M169.259 5.000 C 166.734 6.372,165.607 9.441,166.678 12.027 C 168.312 15.973,168.470 16.000,189.505 16.000 C 210.815 16.000,211.264 15.917,212.657 11.696 C 213.573 8.920,212.501 6.293,209.903 4.950 C 207.230 3.567,171.814 3.611,169.259 5.000 M237.949 8.615 C 235.549 11.016,235.386 13.879,237.510 16.348 C 238.760 17.801,240.481 18.432,247.490 20.011 C 252.148 21.060,260.054 23.287,265.058 24.959 C 270.063 26.632,275.036 28.000,276.109 28.000 C 278.744 28.000,281.333 25.350,281.333 22.653 C 281.333 18.245,279.608 17.039,267.667 13.097 C 260.049 10.583,244.151 6.688,241.449 6.675 C 240.596 6.670,239.021 7.544,237.949 8.615 M302.474 34.675 C 300.179 36.481,299.583 39.441,301.037 41.814 C 301.662 42.833,304.734 45.767,307.864 48.333 C 310.995 50.900,315.831 55.693,318.612 58.984 C 326.760 68.629,328.246 70.000,330.551 70.000 C 333.127 70.000,335.880 67.635,336.386 64.988 C 336.695 63.373,336.231 62.166,334.036 58.879 C 330.439 53.493,320.326 42.855,313.767 37.559 C 307.964 32.873,305.549 32.257,302.474 34.675 M59.276 72.188 C 56.843 74.055,56.667 75.590,56.667 94.857 C 56.667 106.646,56.937 114.577,57.383 115.857 C 58.840 120.035,63.174 121.170,66.616 118.274 L 68.667 116.548 68.667 95.698 L 68.667 74.848 66.909 73.091 C 64.980 71.162,61.195 70.714,59.276 72.188 M344.000 89.792 C 342.390 90.407,340.557 92.220,339.955 93.794 C 339.583 94.767,339.941 97.443,341.027 101.794 C 342.503 107.710,344.018 117.641,345.068 128.280 C 345.378 131.423,345.842 132.611,347.344 134.113 C 349.458 136.227,351.173 136.462,353.961 135.020 C 356.925 133.488,357.441 130.984,356.632 122.067 C 355.980 114.890,353.636 101.669,351.980 95.834 C 350.735 91.446,347.026 88.638,344.000 89.792 M58.871 146.941 L 57.000 148.549 56.788 166.775 C 56.553 186.933,56.773 189.814,58.711 191.894 C 61.652 195.051,66.770 194.179,68.415 190.240 C 69.547 187.532,69.732 153.796,68.637 149.853 C 67.371 145.296,62.481 143.838,58.871 146.941 M350.250 159.176 C 349.470 159.301,348.120 160.162,347.250 161.088 C 345.689 162.747,345.664 162.999,345.452 178.552 C 345.184 198.325,345.521 202.005,347.806 204.291 C 351.359 207.844,356.709 205.673,357.723 200.267 C 357.986 198.865,358.027 189.961,357.814 180.480 C 357.392 161.717,357.191 160.733,353.535 159.551 C 352.508 159.219,351.029 159.050,350.250 159.176 M58.970 220.970 L 57.333 222.606 57.333 243.354 L 57.333 264.103 59.282 266.051 C 61.913 268.682,64.764 268.672,67.412 266.024 L 69.388 264.048 69.194 243.410 L 69.000 222.772 67.384 221.053 C 65.180 218.708,61.270 218.669,58.970 220.970 M347.758 231.091 L 346.000 232.848 346.000 252.476 L 346.000 272.103 347.949 274.051 C 349.279 275.381,350.565 276.000,352.000 276.000 C 353.435 276.000,354.721 275.381,356.051 274.051 L 358.000 272.103 358.000 252.769 L 358.000 233.436 356.274 231.384 C 353.967 228.642,350.332 228.517,347.758 231.091 M59.942 294.188 C 57.504 296.060,57.333 297.574,57.333 317.333 C 57.333 330.324,57.580 337.236,58.078 338.210 C 60.101 342.166,63.996 343.039,67.282 340.274 L 69.333 338.548 69.333 317.698 L 69.333 296.848 67.576 295.091 C 65.647 293.162,61.862 292.714,59.942 294.188 M348.204 300.942 L 346.333 302.551 346.333 322.667 L 346.333 342.782 348.204 344.391 C 350.637 346.484,353.371 346.443,355.949 344.274 L 358.000 342.548 358.000 322.698 L 358.000 302.848 356.242 301.091 C 353.956 298.804,350.758 298.745,348.204 300.942 M59.537 368.941 L 57.667 370.549 57.454 388.775 C 57.219 408.933,57.440 411.814,59.378 413.894 C 62.319 417.051,67.436 416.179,69.082 412.240 C 70.214 409.532,70.399 375.796,69.304 371.853 C 68.038 367.296,63.147 365.838,59.537 368.941 M347.950 371.054 L 346.333 372.774 346.333 392.778 L 346.333 412.782 348.204 414.391 C 350.791 416.616,353.608 416.494,356.051 414.051 L 358.000 412.103 358.000 392.476 L 358.000 372.848 356.242 371.091 C 353.837 368.686,350.189 368.669,347.950 371.054 " stroke="none" fill-rule="evenodd" ></path></svg>