<svg viewBox="0 0 400 450" xmlns="http://www.w3.org/2000/svg" xmlns:bx="https://boxy-svg.com"><path d="M93.637 14.190 C 92.347 15.300,91.870 16.339,91.880 18.023 C 91.900 21.619,103.583 52.675,105.458 54.117 C 109.120 56.935,114.667 54.228,114.667 49.623 C 114.667 46.498,103.393 16.016,101.553 14.167 C 99.554 12.158,95.987 12.168,93.637 14.190 M354.333 14.630 C 350.826 16.066,350.784 16.308,350.551 36.440 L 350.333 55.214 351.950 56.940 C 353.907 59.031,357.753 59.287,359.990 57.476 C 362.166 55.714,362.605 52.026,362.638 35.266 C 362.669 18.786,362.298 16.533,359.294 14.980 C 357.189 13.891,356.294 13.828,354.333 14.630 M116.304 76.190 C 115.013 77.300,114.537 78.339,114.546 80.023 C 114.567 83.619,126.250 114.675,128.125 116.117 C 131.796 118.942,137.333 116.227,137.333 111.604 C 137.333 108.314,125.723 77.265,123.958 75.833 C 121.928 74.188,118.443 74.350,116.304 76.190 M352.230 81.259 C 350.950 82.057,349.983 83.306,349.759 84.452 C 349.556 85.487,349.040 94.008,348.611 103.387 C 347.747 122.303,347.815 122.767,351.663 124.375 C 353.300 125.059,354.394 125.127,355.811 124.633 C 359.293 123.419,359.809 121.544,360.605 107.224 C 361.716 87.222,361.629 84.410,359.833 82.370 C 357.780 80.037,354.873 79.612,352.230 81.259 M138.971 138.190 C 137.680 139.300,137.204 140.339,137.213 142.023 C 137.233 145.619,148.916 176.675,150.791 178.117 C 154.526 180.991,159.932 178.290,159.979 173.528 C 160.010 170.336,148.384 139.260,146.624 137.833 C 144.595 136.188,141.109 136.350,138.971 138.190 M347.083 147.432 C 345.142 149.108,344.087 152.841,339.338 174.837 C 337.225 184.625,337.221 184.684,338.468 186.820 C 340.747 190.722,345.850 190.884,348.308 187.132 C 348.883 186.254,350.527 180.166,351.961 173.601 C 353.396 167.037,355.056 159.603,355.652 157.082 C 357.305 150.083,356.049 147.024,351.199 146.237 C 349.400 145.945,348.505 146.205,347.083 147.432 M161.637 200.190 C 160.350 201.297,159.869 202.343,159.874 204.023 C 159.885 207.607,171.574 238.668,173.456 240.116 C 177.192 242.990,182.598 240.292,182.645 235.528 C 182.677 232.336,171.051 201.260,169.291 199.833 C 167.262 198.188,163.776 198.350,161.637 200.190 M330.832 211.500 C 330.061 212.325,328.088 216.900,326.447 221.667 C 324.805 226.433,322.083 233.835,320.398 238.116 C 318.712 242.396,317.333 246.544,317.333 247.334 C 317.333 249.473,320.842 252.667,323.192 252.667 C 326.603 252.667,328.301 250.565,331.669 242.176 C 336.310 230.615,340.667 217.600,340.667 215.293 C 340.667 210.650,334.020 208.086,330.832 211.500 M184.304 262.190 C 183.015 263.298,182.536 264.341,182.544 266.023 C 182.552 267.976,192.695 296.982,194.639 300.616 C 195.514 302.249,198.940 303.577,200.969 303.067 C 203.443 302.446,205.333 300.066,205.333 297.569 C 205.333 294.304,193.712 263.256,191.958 261.833 C 189.928 260.188,186.443 260.350,184.304 262.190 M305.155 271.997 C 304.224 272.729,302.646 274.754,301.648 276.497 C 300.649 278.240,296.388 284.847,292.178 291.179 C 285.153 301.746,284.558 302.881,284.953 304.984 C 285.737 309.162,290.492 311.315,293.808 308.993 C 297.517 306.395,313.950 280.625,314.500 276.544 C 314.777 274.486,314.532 273.811,312.985 272.377 C 310.726 270.284,307.530 270.129,305.155 271.997 M206.971 324.190 C 205.682 325.298,205.203 326.341,205.210 328.023 C 205.218 329.776,212.523 350.912,217.011 362.167 C 217.338 362.988,217.158 363.333,216.400 363.333 C 215.808 363.333,211.951 365.113,207.829 367.288 C 203.706 369.463,197.483 372.488,194.000 374.009 C 183.860 378.437,183.326 378.746,182.262 380.805 C 180.356 384.491,183.119 389.333,187.128 389.333 C 190.470 389.333,217.889 376.478,221.159 373.378 C 223.042 371.592,223.594 369.440,222.744 367.203 C 222.156 365.656,222.263 365.412,223.688 365.054 C 226.114 364.445,228.000 362.046,228.000 359.569 C 228.000 356.304,216.379 325.256,214.624 323.833 C 212.595 322.188,209.109 322.350,206.971 324.190 M260.131 329.582 C 256.575 333.019,250.667 338.298,247.000 341.312 C 240.372 346.763,238.735 348.631,238.690 350.802 C 238.613 354.502,242.600 357.642,246.101 356.638 C 248.554 355.934,259.989 346.541,268.640 338.122 C 276.194 330.771,276.810 329.191,273.607 325.384 C 272.214 323.729,271.371 323.333,269.238 323.333 C 266.806 323.333,266.078 323.832,260.131 329.582 M148.667 389.361 C 145.917 390.056,138.867 391.564,133.000 392.712 C 127.133 393.859,121.510 395.283,120.504 395.874 C 116.860 398.016,117.457 403.914,121.515 405.865 C 123.039 406.598,124.511 406.516,131.157 405.325 C 142.108 403.362,155.918 400.166,158.515 398.993 C 162.225 397.317,163.013 393.307,160.274 390.051 C 158.202 387.588,156.164 387.467,148.667 389.361 M70.667 398.641 C 61.283 398.876,55.847 399.279,54.925 399.808 C 52.681 401.095,51.662 404.242,52.688 406.718 C 54.375 410.792,54.854 410.877,74.185 410.533 C 93.852 410.183,95.471 409.842,96.541 405.825 C 97.850 400.908,94.710 397.894,88.533 398.141 C 86.590 398.219,78.550 398.444,70.667 398.641 " stroke="none" fill-rule="evenodd" ></path></svg>