<svg viewBox="0 0 400 600" xmlns="http://www.w3.org/2000/svg" xmlns:bx="https://boxy-svg.com"><path d="M42.905 13.328 C 39.119 14.855,38.237 19.673,41.200 22.636 L 43.067 24.502 60.367 24.797 C 69.882 24.959,78.633 24.834,79.814 24.520 C 83.795 23.460,85.362 18.497,82.738 15.256 C 81.669 13.936,80.626 13.627,75.905 13.235 C 67.970 12.576,44.604 12.642,42.905 13.328 M107.321 15.243 C 104.839 17.726,104.704 20.527,106.941 23.129 L 108.549 25.000 127.609 25.196 L 146.669 25.392 148.334 23.726 C 150.664 21.396,150.639 17.500,148.281 15.283 L 146.562 13.667 127.935 13.461 L 109.308 13.256 107.321 15.243 M173.120 15.729 C 171.211 17.638,170.791 20.408,172.054 22.767 C 173.586 25.631,176.196 26.000,194.888 26.000 L 212.485 26.000 214.242 24.242 C 216.647 21.838,216.664 18.190,214.281 15.950 L 212.561 14.333 193.734 14.138 L 174.906 13.943 173.120 15.729 M239.282 19.282 C 237.873 20.691,237.333 21.875,237.333 23.556 C 237.333 26.801,239.994 28.901,245.432 29.949 C 252.152 31.243,262.371 33.908,268.800 36.044 C 272.310 37.210,275.363 37.851,276.298 37.616 C 278.620 37.033,280.743 34.444,280.809 32.115 C 280.922 28.164,279.377 26.968,270.376 24.040 C 262.142 21.361,245.519 17.333,242.696 17.333 C 241.890 17.333,240.354 18.210,239.282 19.282 M300.303 42.303 C 298.580 44.026,298.139 47.102,299.304 49.279 C 299.655 49.934,302.730 52.532,306.137 55.053 C 309.545 57.574,315.683 62.868,319.778 66.818 C 325.815 72.642,327.594 74.000,329.188 74.000 C 333.486 74.000,336.399 69.305,334.432 65.549 C 332.322 61.518,319.840 49.889,311.381 44.072 C 305.608 40.102,302.931 39.675,300.303 42.303 M342.718 91.726 C 340.217 93.831,340.065 96.095,342.073 101.333 C 344.584 107.880,346.676 115.513,348.012 123.000 C 349.170 129.493,349.551 130.543,351.337 132.167 C 352.447 133.175,354.077 134.000,354.959 134.000 C 357.056 134.000,360.422 131.135,360.829 129.003 C 361.612 124.908,356.708 104.941,352.510 95.134 C 350.323 90.023,346.375 88.649,342.718 91.726 M353.495 155.648 C 352.300 156.175,351.065 157.295,350.749 158.137 C 350.434 158.978,349.669 164.167,349.050 169.667 C 348.431 175.167,347.343 182.667,346.631 186.333 C 344.966 194.913,344.976 195.078,347.282 197.385 C 348.691 198.794,349.875 199.333,351.556 199.333 C 355.388 199.333,356.905 196.833,358.639 187.663 C 360.257 179.106,361.947 165.888,361.979 161.537 C 362.016 156.536,357.921 153.693,353.495 155.648 M81.080 186.859 C 79.646 188.294,79.527 189.087,79.112 200.026 C 78.561 214.559,78.550 221.914,79.074 224.537 C 79.940 228.868,83.862 230.949,87.704 229.116 C 91.088 227.503,91.428 225.228,91.199 205.696 C 91.001 188.827,90.995 188.766,89.384 187.052 C 87.231 184.763,83.269 184.671,81.080 186.859 M339.058 220.833 C 337.975 221.798,336.292 225.273,334.338 230.575 C 332.668 235.107,329.808 242.244,327.984 246.435 C 324.034 255.507,323.821 257.837,326.718 260.274 C 330.696 263.622,333.878 262.204,336.952 255.714 C 341.983 245.092,348.667 227.521,348.667 224.917 C 348.667 223.942,347.845 222.409,346.718 221.282 C 344.319 218.883,341.436 218.714,339.058 220.833 M80.616 253.052 C 79.001 254.770,79.000 254.787,78.792 272.482 C 78.573 291.148,78.813 293.093,81.574 295.027 C 83.728 296.536,86.416 296.209,88.657 294.167 L 90.669 292.333 90.705 273.860 C 90.729 261.845,90.490 254.916,90.022 254.042 C 88.319 250.858,83.186 250.319,80.616 253.052 M311.889 279.702 C 310.911 280.224,307.780 284.030,304.932 288.159 C 302.084 292.288,297.409 298.750,294.543 302.518 C 290.327 308.063,289.333 309.817,289.333 311.715 C 289.333 316.037,294.095 318.757,298.000 316.667 C 300.246 315.465,316.622 293.352,319.596 287.506 C 320.887 284.968,320.492 282.675,318.444 280.817 C 316.439 278.999,313.988 278.582,311.889 279.702 M81.276 318.188 C 78.855 320.047,78.667 321.619,78.667 340.007 L 78.667 358.103 80.615 360.051 C 83.058 362.494,85.876 362.616,88.463 360.392 L 90.333 358.784 90.529 339.845 L 90.724 320.906 88.938 319.120 C 86.980 317.162,83.209 316.704,81.276 318.188 M269.667 331.266 C 268.567 331.960,264.803 335.184,261.302 338.430 C 257.801 341.677,252.215 346.632,248.889 349.441 C 242.453 354.876,241.336 356.789,242.690 360.056 C 243.605 362.265,247.305 364.200,249.542 363.638 C 251.452 363.159,264.709 351.995,272.833 344.023 C 278.048 338.907,278.667 338.042,278.667 335.876 C 278.667 333.988,278.213 333.070,276.616 331.726 C 274.180 329.677,272.377 329.557,269.667 331.266 M219.522 372.013 C 218.709 372.340,214.959 374.669,211.189 377.188 C 207.418 379.707,201.256 383.650,197.495 385.952 C 193.734 388.253,190.059 390.895,189.328 391.824 C 186.355 395.604,188.975 400.992,193.763 400.944 C 195.824 400.923,198.184 399.749,205.667 395.027 C 220.061 385.944,226.453 381.519,226.913 380.320 C 227.967 377.573,227.342 374.793,225.282 373.059 C 223.127 371.246,221.957 371.033,219.522 372.013 M80.303 384.970 L 78.667 386.606 78.588 404.136 C 78.544 413.778,78.556 422.117,78.614 422.667 C 78.937 425.720,81.638 428.000,84.934 428.000 C 87.086 428.000,89.834 425.235,90.328 422.572 C 90.556 421.341,90.651 412.782,90.538 403.552 C 90.334 386.840,90.327 386.765,88.717 385.052 C 86.513 382.708,82.603 382.670,80.303 384.970 M156.660 410.900 C 149.365 415.778,148.731 416.421,148.241 419.441 C 147.764 422.381,149.862 425.122,153.049 425.720 C 155.144 426.113,156.100 425.675,162.755 421.275 C 170.575 416.104,171.729 414.650,171.018 410.859 C 170.519 408.199,168.446 406.667,165.347 406.667 C 163.561 406.667,161.456 407.692,156.660 410.900 M80.204 450.941 L 78.333 452.549 78.123 469.438 C 78.007 478.727,78.102 487.336,78.334 488.569 C 78.866 491.408,81.612 494.000,84.087 494.000 C 85.224 494.000,86.773 493.268,87.970 492.167 L 89.961 490.333 90.410 473.302 C 90.892 455.058,90.576 452.279,87.801 450.335 C 85.647 448.827,82.358 449.089,80.204 450.941 M79.726 517.384 L 78.000 519.436 78.000 532.667 L 78.000 545.898 79.726 547.949 C 82.472 551.212,87.200 550.679,89.224 546.877 C 89.740 545.909,90.000 540.928,90.000 532.014 C 90.000 518.667,89.993 518.599,88.364 516.970 C 85.892 514.498,81.997 514.685,79.726 517.384 " stroke="none" fill-rule="evenodd" ></path></svg>