<?xml version="1.0" standalone="no"?>
<!DOCTYPE svg PUBLIC "-//W3C//DTD SVG 1.1//EN" "http://www.w3.org/Graphics/SVG/1.1/DTD/svg11.dtd" >
<svg xmlns="http://www.w3.org/2000/svg" xmlns:xlink="http://www.w3.org/1999/xlink" version="1.1" viewBox="-10 0 1239 2048">
   <path fill="currentColor"
d="M106 995q0 -120 29 -241t70 -173h-180v-170h561q284 0 410 121.5t126 386.5v88q0 336 -128 493.5t-394 157.5q-262 0 -378 -150.5t-116 -477.5v-35zM369 581q-68 120 -68 406v53q0 234 73 341t230 107q121 0 190.5 -45.5t100.5 -141.5t31 -296v-88q0 -181 -78 -258.5
t-264 -77.5h-215z" />
</svg>
