<?xml version="1.0" standalone="no"?>
<!DOCTYPE svg PUBLIC "-//W3C//DTD SVG 1.1//EN" "http://www.w3.org/Graphics/SVG/1.1/DTD/svg11.dtd" >
<svg xmlns="http://www.w3.org/2000/svg" xmlns:xlink="http://www.w3.org/1999/xlink" version="1.1" viewBox="-10 0 1239 2048">
   <path fill="currentColor"
d="M1039 413q10 -4 17.5 1t7.5 15q0 12 -7 56t-9 47q-5 8 -14 8t-15 -8l-4 -5l6 -49q7 -50 9.5 -56.5t8.5 -8.5zM205 415q10 -5 19 3q4 4 33 44q25 33 28.5 42t-3.5 17q-12 12 -25 -1q-6 -6 -34 -45q-22 -29 -26 -37.5t0 -16.5q2 -4 8 -6zM318 574q12 -8 22 2q3 3 33 44
q19 26 24.5 34.5t5.5 13.5q0 10 -7.5 14.5t-16.5 0.5q-4 -1 -33 -39.5t-34 -47.5q-3 -6 -1 -12t7 -10zM1009 605q6 -7 16 -4.5t13 11.5q1 4 -6 53.5t-9 53.5q-5 11 -17 9.5t-15 -12.5q-1 -5 5 -49t7.5 -51t5.5 -11zM432 735q8 -8 19 -4q3 1 29 35t37 51q5 7 0 17t-14 10
q-4 0 -8.5 4.5t-13.5 10.5q-21 12 -48 36q-16 15 -23 15q-8 0 -12.5 -5t-4.5 -12q0 -6 2 -9.5t12 -12.5q27 -27 57 -43l12 -7l-21 -29q-21 -28 -25 -34q-8 -13 2 -23zM982 792q11 -10 22 0q6 6 6 13t-9.5 33t-19.5 47q-8 16 -12.5 21t-12.5 5q-5 0 -10.5 -6t-5.5 -11
q0 -6 10.5 -29.5t18 -45.5t13.5 -27zM549 892q10 -9 21 0q5 4 35 44q20 27 25 35.5t5 13.5q0 7 -6 13q-12 9 -23 -1q-3 -3 -29.5 -39t-31.5 -44q-8 -13 4 -22zM342 955q8 -4 17 0.5t8 14t-12 27.5q-11 20 -23.5 45t-15.5 28q-6 7 -15.5 4.5t-12.5 -11.5q-2 -5 -1 -8.5
t6 -14.5q13 -28 28.5 -55t20.5 -30zM900 961q5 -3 12 -2t10 5q7 6 5 13.5t-15 25.5q-45 64 -55 66q-9 2 -16 -5.5t-5 -16.5q1 -4 15 -21.5t30 -40t19 -24.5zM665 1050q3 -3 9.5 -3.5t11.5 2.5q4 3 33.5 43t29.5 41l2.5 -1.5t5.5 -4.5l7 -7q12 -11 18.5 -14t13.5 0q9 4 9 16
q0 6 -3 11t-16.5 16.5t-19.5 13.5t-13 -4q-3 -3 -5 -3t-7 2q-9 4 -16.5 -2.5t-33.5 -40.5q-30 -42 -32 -47q-2 -10 6 -18zM257 1135q12 -9 23 2q5 5 5.5 10t-2.5 14t-15 49.5t-17 45.5q-10 9 -21 0q-7 -5 -6.5 -13t7.5 -34q19 -68 26 -74zM781 1208.5q5 -3.5 11.5 -3.5
t10.5 3q3 3 31 40.5t31 43.5q6 11 -2 20.5t-20 4.5q-5 -3 -35 -43.5t-32.5 -45t-1 -10.5t6.5 -9.5zM205 1323q7 -5 15.5 -1.5t10.5 11.5q1 6 -13 56.5t-18 54.5q-8 8 -18.5 4t-10.5 -15q0 -5 12.5 -52t15.5 -52q2 -3 6 -6zM895 1368q5 -5 13 -5q7 0 14 7.5t34 44.5
q23 31 26 39t-3 16q-11 13 -25 1q-6 -5 -35 -45q-23 -33 -27 -41.5t3 -16.5zM152 1512q9 -6 18 -0.5t9 15.5q0 6 -14 54q-9 32 -12.5 41.5t-6.5 12.5q-6 4 -12 3q-13 -2 -16 -13q-1 -5 13 -54.5t15 -52.5t6 -6zM1019 1522q-12 5 -12 17q0 6 32 50q22 30 28 37t11 8
q7 2 12 -0.5t8 -9.5t1 -11t-31.5 -45t-32.5 -43q-8 -7 -16 -3v0z" />
</svg>
