<?xml version="1.0" standalone="no"?>
<!DOCTYPE svg PUBLIC "-//W3C//DTD SVG 1.1//EN" "http://www.w3.org/Graphics/SVG/1.1/DTD/svg11.dtd" >
<svg xmlns="http://www.w3.org/2000/svg" xmlns:xlink="http://www.w3.org/1999/xlink" version="1.1" viewBox="-10 0 1239 2048">
   <path fill="currentColor"
d="M125 413q5 -3 20.5 -2.5t20 5.5t4.5 12t-5 13q-3 3 -6.5 4t-14.5 1q-13 0 -19 -2.5t-8 -9.5q-2 -5 0.5 -11.5t7.5 -9.5zM239 412q4 -1 53 -2q44 0 53.5 3t9.5 16q0 7 -5 12l-6 5h-53h-53l-5 -6q-7 -6 -5 -15t11 -13zM421 414q6 -3 55 -3.5t55 2.5q8 4 9.5 12.5t-5.5 14.5
l-6 6h-52q-39 0 -47 -0.5t-11 -4.5q-7 -6 -6 -14.5t8 -12.5zM603 423q6 -6 10 -6q11 0 50.5 8.5t48.5 13.5q9 4 10 13t-6 16q-6 4 -9 4.5t-13 -2.5q-30 -9 -70 -16q-16 -2 -21 -8q-12 -12 0 -23zM781 475q5 -2 9 -2q10 0 49 28.5t41 37.5q3 10 -2 17t-14 7q-7 0 -23 -14
t-40 -29.5t-26 -19.5q-4 -5 -2 -13.5t8 -11.5zM915 601q9 -4 15.5 1t16.5 23q10 16 21 42.5t11 32.5q0 7 -5 12.5t-12 5.5q-13 -1 -21 -22q-4 -13 -21 -46q-13 -24 -14.5 -29t0.5 -10q2 -7 9 -10zM977 774q10 -5 20 4q5 5 8 29t3 52q1 21 0.5 25.5t-4.5 8.5q-5 6 -12.5 6
t-12.5 -6q-4 -3 -5 -9t-2 -30q-1 -34 -4 -50q-2 -14 0 -20.5t9 -9.5zM978 962q5 -5 12.5 -5t12.5 5l5 5v53v52l-6 6q-6 6 -11.5 6t-12.5 -6l-6 -6v-52v-53zM984 1143q10 -4 18 4l6 6v51q0 52 -2 56q-3 5 -9.5 7t-11.5 1q-9 -4 -11 -12.5t-2 -50.5q0 -41 2 -50t10 -12z
M981 1329q4 -3 11 -2.5t11 5.5l5 5v53v53l-6 5q-11 12 -24 0l-6 -7v-50q0 -38 1.5 -48t7.5 -14zM983 1513q10 -6 20 4q4 3 4.5 10.5t0.5 47t-0.5 47t-4.5 10.5q-9 8 -18 5t-11 -12.5t-2 -50.5q0 -39 2 -48.5t9 -12.5zM78 1609l5 -5h56q39 0 47.5 0.5t11.5 3.5q8 8 5.5 17
t-13.5 12q-7 3 -57 2l-50 -1l-5 -5q-11 -13 0 -24zM270 1609q3 -4 10.5 -4.5t48.5 -0.5h55l5 5q6 5 5.5 12t-5.5 12q-4 4 -11 5t-44 1q-43 1 -54 -1t-14 -10q-4 -10 4 -19zM460 1609l5 -5h55q44 0 52.5 1.5t11.5 9.5q2 6 -1 13q-3 8 -14 10t-54 1l-50 -1l-5 -5
q-11 -13 0 -24zM653 1607q3 -3 58 -3h55l5 5q11 11 0 24l-5 5l-50 1q-42 1 -53 -1t-15 -9q-3 -6 -1.5 -12.5t6.5 -9.5zM841 1609q4 -4 11.5 -4.5t49 -0.5t49 0.5t11.5 4.5q6 7 3.5 16.5t-11.5 11.5q-8 3 -57 2q-37 0 -44 -1t-11 -5q-5 -5 -5.5 -12t4.5 -12zM1033 1608
q-7 7 -5.5 16t10.5 12q8 4 50.5 4t49.5 -4q10 -3 11.5 -12t-6.5 -16q-2 -3 -10.5 -3.5t-44.5 -0.5t-44 0.5t-11 3.5v0z" />
</svg>
