<?xml version="1.0" standalone="no"?>
<!DOCTYPE svg PUBLIC "-//W3C//DTD SVG 1.1//EN" "http://www.w3.org/Graphics/SVG/1.1/DTD/svg11.dtd" >
<svg xmlns="http://www.w3.org/2000/svg" xmlns:xlink="http://www.w3.org/1999/xlink" version="1.1" viewBox="-10 0 1047 2048">
   <path fill="currentColor"
d="M205 413q5 -3 38.5 -3t38.5 2q9 5 9 16t-9 16q-5 2 -38 2t-38 -3q-9 -4 -9 -14.5t8 -15.5zM360 413q7 -4 39.5 -2.5t50.5 6.5q16 4 22.5 8t8.5 11q1 6 -2 11q-6 8 -11.5 9t-16.5 -2q-28 -8 -61 -8q-20 0 -27 -2.5t-10 -9.5q-2 -6 0 -12t7 -9zM537 471q7 -4 13.5 -1.5
t17.5 13.5q16 16 30.5 37t19.5 35q3 10 -2 17t-14 7q-12 0 -22 -20q-12 -24 -35 -49q-15 -15 -16.5 -20t1 -11t7.5 -8zM623 637q8 -4 15.5 0t10.5 14q4 17 12 53.5t8 41.5q0 8 -6 13q-10 8 -20 1q-6 -3 -8.5 -12t-12.5 -54q-6 -29 -7.5 -37t0.5 -12q3 -5 8 -8zM659 827
q11 -10 22 0q4 4 6 11.5t9 42.5q8 49 8 53.5t-5 10.5q-12 12 -24 0q-4 -4 -6 -12t-8 -40q-8 -43 -8 -52t6 -14zM690 1016q6 -5 13 -5.5t11 3.5t6.5 14.5t9.5 50.5l7 47l-4 5q-6 8 -14.5 8t-14.5 -8q-3 -4 -11 -53.5t-8 -52.5t5 -9zM611 1039.5q45 -15.5 51 -15.5
q11 0 15.5 11t-3.5 19q-4 3 -51 19.5t-53 16.5q-5 0 -11 -6t-5 -13.5t6.5 -11.5t50.5 -19.5zM450 1098q21 -10 29 -11.5t14 3.5q5 5 5.5 12t-3.5 12q-4 4 -26 14.5t-44 25.5q-18 12 -25 13.5t-14 -6.5q-6 -6 -4.5 -12t5.5 -11q6 -6 25 -18t38 -22zM724 1201q4 -2 10 -1.5
t10 2.5q4 3 6.5 13.5t8.5 50.5q5 32 5.5 40t-1.5 12q-5 10 -16 10q-8 0 -14 -8q-3 -3 -11 -54q-5 -35 -6 -44t1 -13q3 -6 7 -8zM323 1207q5 -4 12 -4t11 5q6 5 6 10.5t-5 14.5q-19 34 -28 64q-6 20 -10 24q-6 6 -15.5 3.5t-12.5 -11.5q-4 -10 11 -49q6 -15 16 -34.5
t15 -22.5zM274 1386q9 -4 16 2t7 14t-7 49q-7 35 -9 44t-6 13q-12 11 -24 -1q-6 -6 -6 -10q0 -8 9.5 -54.5t11.5 -50.5q3 -4 8 -6zM749 1393q7 -7 17 -4.5t13 12.5q1 4 8 52q5 34 5.5 42t-1.5 12q-4 8 -12.5 9.5t-15.5 -4.5q-3 -4 -5 -12t-7 -41q-6 -43 -6.5 -52t4.5 -14z
M238 1573.5q6 -2.5 6.5 -2.5t6.5 2t9.5 8t-0.5 24q-4 20 -8 26.5t-14 6.5q-5 0 -10.5 -6t-5.5 -11.5t3 -21t5 -19.5t8 -6.5zM779 1579q-10 6 -6 32q3 18 8 23q12 10 23 -2q5 -4 5.5 -7t-0.5 -15q-2 -27 -11 -31q-10 -5 -19 0v0z" />
</svg>
