<?xml version="1.0" standalone="no"?>
<!DOCTYPE svg PUBLIC "-//W3C//DTD SVG 1.1//EN" "http://www.w3.org/Graphics/SVG/1.1/DTD/svg11.dtd" >
<svg xmlns="http://www.w3.org/2000/svg" xmlns:xlink="http://www.w3.org/1999/xlink" version="1.1" viewBox="-10 0 1239 2048">
   <path fill="currentColor"
d="M97 416l6 -6h61q50 0 60.5 2t13.5 10q2 6 0 12t-7 9t-66 3h-62l-6 -5q-7 -5 -7 -12.5t7 -12.5zM324 416l6 -6h60q51 0 61.5 2t12.5 10q3 6 1 12t-7 9t-67 3h-61l-6 -5q-6 -5 -6 -12.5t6 -12.5zM551 416l6 -6h60q50 0 60.5 2t13.5 10q2 6 0 12t-6.5 9t-66.5 3h-61l-6 -5
q-7 -5 -7 -12.5t7 -12.5zM777 416l6 -6h61q50 0 60.5 2t13.5 10q3 9 -2 16.5t-13 7.5q-3 0 -3.5 3.5t-0.5 20.5q0 18 -1 22t-5 8q-12 12 -24 1q-4 -3 -4.5 -7t-1.5 -23l-1 -25h-39h-40l-6 -5q-6 -5 -6 -12.5t6 -12.5zM1004 416l6 -6h51h50l6 6q6 5 6 12.5t-6 12.5l-6 5h-50
h-51l-6 -5q-6 -5 -6 -12.5t6 -12.5zM872 587q15 -9 25 5q3 5 3.5 64t-2.5 65q-3 10 -11.5 11.5t-15.5 -5.5l-6 -5l-1 -58q-1 -49 0 -61.5t8 -15.5zM874 813q12 -6 22 4q3 3 3.5 12.5t1.5 50.5q1 59 0 64q-3 14 -16.5 15t-17.5 -13q-2 -7 -2 -63t1.5 -61t7.5 -9zM872 1043
q9 -9 20 -3q8 4 9.5 14.5t1.5 59.5v61l-6 6q-12 11 -24 1l-5 -5l-1 -64v-64zM876 1267q15 -8 25 6q3 4 3.5 63t-2.5 66q-4 9 -12 11t-15 -5l-6 -6l-1 -58q-1 -48 0 -60.5t8 -16.5zM879 1493q-7 4 -8.5 14t-1.5 57q0 49 1.5 59.5t9.5 14t15.5 -0.5t9.5 -12q1 -5 0 -64
q-1 -42 -1.5 -51t-3.5 -12q-4 -5 -10 -6t-11 1v0z" />
</svg>
