<?xml version="1.0" standalone="no"?>
<!DOCTYPE svg PUBLIC "-//W3C//DTD SVG 1.1//EN" "http://www.w3.org/Graphics/SVG/1.1/DTD/svg11.dtd" >
<svg xmlns="http://www.w3.org/2000/svg" xmlns:xlink="http://www.w3.org/1999/xlink" version="1.1" viewBox="-10 0 1239 2048">
   <path fill="currentColor"
d="M150 416l5 -5h56q41 0 49 0.5t11 4.5q8 7 5 19q-2 8 -12.5 10t-52.5 2q-39 0 -49 -1.5t-14 -6.5t-3 -11.5t5 -11.5zM347 416q4 -4 12 -4.5t49 -0.5h56l5 5q6 7 5 15.5t-9 12.5q-6 3 -57 3t-58 -3q-8 -4 -8.5 -13t5.5 -15zM545 415q4 -3 10 -3.5t33 0.5q69 2 78 13
q11 12 0 23q-5 5 -12 5t-30 -3q-21 -3 -46 -3q-21 0 -27.5 -2t-10.5 -9q-6 -12 5 -21zM738 447q5 -4 11 -4q10 0 50.5 18.5t50.5 27.5q7 7 5.5 15t-10.5 13q-6 3 -10.5 1.5t-20.5 -9.5q-16 -10 -39 -19q-23 -10 -31 -13q-11 -5 -12.5 -14.5t6.5 -15.5zM904 549q7 -5 13.5 -3
t16.5 12q29 32 47 68q6 10 7 14t-1 8q-3 10 -12 12t-16 -5q-6 -6 -17.5 -25.5t-27.5 -39.5t-17.5 -23.5t1 -9t6.5 -8.5zM997 719q8 -3 16 1q6 4 8 10q9 27 10 77q1 22 0.5 27.5t-3.5 8.5q-9 10 -20 6q-7 -3 -9.5 -10.5t-2.5 -23.5q0 -35 -8 -71q-5 -19 9 -25zM1001 919
q6 -7 16.5 -4t13.5 12q1 5 0 57q0 39 -1 46t-4 11q-6 6 -13.5 6t-12.5 -6l-5 -5l1 -56q0 -40 1 -49t4 -12zM188 1038q5 -1 11 1.5t8 7.5q3 5 2 66v61l-5 5q-6 6 -13.5 6t-12.5 -6l-5 -5l1 -63q0 -45 1 -55t4 -13q4 -5 9 -5zM1005 1112q6 -2 7.5 -2t7.5 3q9 4 10.5 15t0.5 55
q-2 37 -2.5 44.5t-4.5 11.5q-5 5 -12 4.5t-12 -5.5q-4 -4 -4.5 -11t-1.5 -45q0 -43 1.5 -54.5t9.5 -15.5zM181 1266q5 -2 11.5 -1t10.5 4l5 5v62q0 63 -2 67q-5 8 -15.5 8.5t-15.5 -7.5q-3 -5 -3 -64.5t3 -66.5q3 -6 6 -7zM1005 1308q11 -4 20 6q3 4 4 12t1 48v54l-6 7
q-13 12 -24 0l-6 -5v-55q0 -44 1.5 -53.5t9.5 -13.5zM176 1496q8 -8 18.5 -4.5t12.5 14.5q1 7 0 64q0 42 -1 50t-4 12q-9 10 -21 5q-8 -4 -9.5 -16t-1.5 -61l1 -58zM1002 1507q-5 3 -6.5 6.5t-2.5 54.5q-1 36 -0.5 45t2.5 14q4 8 10 10q14 4 21 -10q4 -7 3 -60v-53l-6 -5
q-10 -8 -21 -2v0z" />
</svg>
