<?xml version="1.0" standalone="no"?>
<!DOCTYPE svg PUBLIC "-//W3C//DTD SVG 1.1//EN" "http://www.w3.org/Graphics/SVG/1.1/DTD/svg11.dtd" >
<svg xmlns="http://www.w3.org/2000/svg" xmlns:xlink="http://www.w3.org/1999/xlink" version="1.1" viewBox="-10 0 1239 2048">
   <path fill="currentColor"
d="M371 392q6 -6 10 -6q2 0 27.5 6t29.5 7q3 1 6.5 7t3.5 10t-6 11q-5 6 -12.5 6t-31.5 -6t-29 -11q-10 -12 2 -24zM501 422q6 -6 9 -6q7 0 50 11t47 14q5 4 6.5 10t-1.5 11t-9 9q-3 2 -9 1.5t-33 -7.5q-37 -8 -47 -11q-14 -4 -18 -13.5t5 -18.5zM674 457q7 -1 66 13
q25 6 32 10.5t7 13.5q0 14 -13 17q-3 1 -35 -6t-53 -12q-17 -5 -17 -19q0 -5 4 -11t9 -6zM833 500q5 -4 12 -4t26 5q22 5 33 6t17 4t12.5 5.5t9.5 7.5q5 7 0.5 16.5t-13.5 10.5q-5 0 -21.5 -3.5t-40 -1t-28.5 2.5t-10 -5.5t-4 -11.5q0 -16 1.5 -22t5.5 -10zM727 554
q13 -8 18 -9t12 3q12 6 8 20q-2 7 -21 18.5t-42 35.5q-16 16 -20.5 19.5t-10.5 3.5q-10 0 -15 -9t0 -18q10 -15 30 -33t41 -31zM621 701q8 -3 15.5 1t9 11t-2.5 24q-4 20 -5 53q-1 25 -2 30t-5 10q-12 12 -25 -1l-6 -6l1 -36q1 -36 5 -55q6 -27 15 -31zM607 905q13 -11 24 0
q6 5 7 20t1 58l-1 44l-6 5q-13 11 -24 -1q-4 -3 -4.5 -9t-2.5 -35q-1 -40 0 -59q0 -12 1 -16t5 -7zM608 1108q5 -6 12.5 -6.5t12.5 5.5q4 3 5 10.5t2 46.5q1 53 -1 60q-4 14 -17.5 14t-16.5 -14q-2 -8 -2 -59v-51zM610 1308q6 -6 13.5 -5.5t12.5 6.5l5 6v57v56l-5 6
q-12 11 -25 0l-5 -5l-1 -58l-1 -57zM612 1509l-5 5v57v57l6 6q12 13 24 0l6 -6v-57l-1 -57l-6 -5q-12 -11 -24 0v0z" />
</svg>
