<?xml version="1.0" standalone="no"?>
<!DOCTYPE svg PUBLIC "-//W3C//DTD SVG 1.1//EN" "http://www.w3.org/Graphics/SVG/1.1/DTD/svg11.dtd" >
<svg xmlns="http://www.w3.org/2000/svg" xmlns:xlink="http://www.w3.org/1999/xlink" version="1.1" viewBox="-10 0 1239 2048">
   <path fill="currentColor"
d="M89 414q6 -3 60.5 -3t60.5 3q9 4 9.5 14t-8.5 16l-5 3v39v39l-5 6q-12 12 -25 0l-5 -6v-39v-39h-40q-32 0 -39 -1.5t-11 -10.5q-2 -6 0 -12t8 -9zM297.5 414q5.5 -3 60.5 -3t61 3q12 7 8 20q-3 10 -12 11.5t-57 1.5q-47 0 -55.5 -1.5t-12.5 -10.5q-2 -6 0 -12t7.5 -9z
M506.5 414q5.5 -3 60 -3t60.5 3q13 7 9 20q-3 10 -12.5 11.5t-56.5 1.5t-56 -1.5t-12 -10.5q-3 -6 -0.5 -12t8 -9zM711 425q6 -6 10 -6q7 0 34.5 7t44.5 12q26 9 33 14t7 15q0 6 -4.5 11t-10.5 5t-33 -9t-52.5 -15t-29.5 -11q-10 -12 1 -23zM903 503q7 -6 14 -4t20 12
q15 12 33.5 32t27 32t7 18t-6.5 10.5t-11 4.5q-5 0 -11 -5.5t-24 -27.5q-16 -18 -32.5 -32t-20.5 -19q-7 -12 4 -21zM178 614q5 -3 12 -2t11 5l5 5v63v62l-6 5q-7 6 -15.5 4t-11.5 -11q-2 -6 -2 -63q0 -43 1 -53t6 -15zM1027 667q7 -3 14 2.5t10 15.5q10 35 14 78
q2 20 0.5 27.5t-8.5 11.5q-11 6 -20 -3q-5 -6 -7 -17q-5 -51 -12 -79q-5 -20 -3 -24q3 -9 12 -12zM177 837q8 -7 17.5 -4t11.5 13q3 9 2.5 61.5t-2.5 58.5q-4 9 -13.5 10.5t-15.5 -5.5q-5 -4 -6 -17t0 -58l1 -54zM1046 873.5q4 -0.5 10 1.5q8 3 9.5 11.5t2.5 50.5q2 52 0 59
q-2 12 -12 16t-17 -4q-6 -5 -7 -18.5t0 -57.5q0 -35 0.5 -42t4.5 -11q5 -5 9 -5.5zM178 1058q5 -5 12.5 -5t12.5 5l4 5l1 62l1 61l-6 6q-12 12 -25 0l-5 -5v-62v-62zM1038 1088q6 -6 13.5 -5.5t12.5 6.5l5 6v58v57l-6 6q-6 6 -12 6t-12 -6l-6 -6v-58v-59zM180 1276
q5 -3 12 -2t11 5l5 5v62v62l-6 6q-7 6 -15 4t-12 -11q-2 -4 -2 -62q0 -44 1 -54.5t6 -14.5zM1040 1296q12 -11 24 1l5 5v59v59l-6 6q-12 10 -23 0l-6 -5v-60v-60zM179 1499q8 -7 17 -4t12 13q3 9 2.5 61.5t-2.5 58.5q-4 9 -13.5 10.5t-15.5 -5.5q-5 -5 -6 -17.5t0 -57.5
l1 -54zM1039 1505l-5 5v60v60l6 5q12 10 23 -1l6 -6v-59v-58l-5 -6q-6 -5 -13 -5t-12 5v0z" />
</svg>
