<?xml version="1.0" standalone="no"?>
<!DOCTYPE svg PUBLIC "-//W3C//DTD SVG 1.1//EN" "http://www.w3.org/Graphics/SVG/1.1/DTD/svg11.dtd" >
<svg xmlns="http://www.w3.org/2000/svg" xmlns:xlink="http://www.w3.org/1999/xlink" version="1.1" viewBox="-10 0 1239 2048">
   <path fill="currentColor"
d="M220 413q9 -8 20 -2q7 3 9 11.5t1 36.5v35l-6 4q-11 10 -23 0l-6 -5v-37v-37zM817 426q14 -7 22 -8t14 4q5 4 5.5 11.5t-3.5 12.5q-4 4 -20 12q-27 13 -61 40q-13 10 -18.5 12t-13.5 -2t-8 -16q0 -6 9 -14q32 -30 74 -52zM936 420q9 -5 21 1q6 4 15.5 13.5t13.5 16.5
q8 13 16 42.5t6 38.5q-3 14 -17 14q-9 0 -13.5 -5.5t-6.5 -19.5q-9 -54 -32 -69q-15 -10 -9 -23q3 -7 6 -9zM665 552q8 -3 16.5 1t9.5 11t-2.5 12.5t-16.5 19.5q-16 18 -33 39q-19 22 -24 26.5t-11 4.5q-10 0 -15.5 -8t-1.5 -16t39 -48t39 -42zM226 577q5 -3 13 1q7 2 9 8.5
t2.5 59.5t-2.5 60q-2 8 -9 11t-15 -1q-7 -3 -8.5 -13.5t-1.5 -57.5q1 -48 2.5 -56.5t9.5 -11.5zM988 624q5 -5 12 -5t12 4q4 4 5 8t2 24q2 26 2 61q0 25 -0.5 30t-4.5 9q-12 12 -25 0q-4 -4 -4.5 -9.5t-1.5 -32.5q-2 -38 -2 -61q0 -17 0.5 -21t4.5 -7zM226 792
q7 -3 14.5 1.5t8.5 13.5q2 7 0 62q-1 40 -1.5 48t-4.5 12q-5 4 -12.5 4t-11.5 -5l-5 -5v-60q0 -44 0.5 -53t3.5 -12q4 -5 8 -6zM993 838q5 -5 12.5 -4.5t12.5 4.5q3 4 4 11.5t2 48.5q1 43 -0.5 56t-6.5 18q-5 4 -12 3.5t-12 -5.5l-5 -5l-1 -57q0 -57 1 -61.5t5 -8.5z
M224 1008q6 -3 14 0t10 9q1 5 0 63v58l-5 5q-5 5 -12.5 5t-12.5 -5l-5 -5v-58q0 -48 1.5 -58.5t9.5 -13.5zM992 1053q12 -10 24 0q3 4 4 7.5t1 15.5q0 17 -3 57.5t-5 44.5q-4 12 -17 12t-16 -11q-1 -5 1 -37.5t4 -57.5q1 -19 2 -23t5 -8zM223 1222q7 -3 15 1q6 2 8 11t5 44
q2 38 4 48q2 14 1 20t-5 11q-12 12 -23 2q-8 -7 -13 -65q-4 -39 -2 -54t10 -18zM971 1267q11 -10 22 0q6 5 6 13q0 19 -16 75q-7 21 -8 28q-4 13 -14.5 17t-18.5 -5q-5 -6 -5 -9t8 -29.5t14 -55.5q4 -19 6 -24.5t6 -9.5zM258 1435q4 -4 10.5 -4t10.5 2q3 3 13 20
q20 35 40 55q11 11 15 16q7 11 -0.5 20.5t-19.5 5.5q-11 -4 -34.5 -33t-35.5 -53q-6 -13 -5.5 -18.5t6.5 -10.5zM902 1466q9 -7 19 2q7 6 6 13.5t-11 22.5t-37.5 43.5t-33.5 29.5q-9 2 -16 -2.5t-7 -14.5q0 -5 3 -9t18 -18q21 -19 38 -41.5t21 -25.5zM413 1575q8 -8 25 -2
q28 10 69 18q25 4 29.5 6t7.5 7q6 11 -2 20q-5 5 -13 5.5t-31 -3.5q-31 -6 -55.5 -13.5t-30.5 -12.5q-5 -5 -4.5 -12.5t5.5 -12.5zM729 1592q-24 7 -69 9q-22 1 -27 2t-9 5q-12 12 1 24l6 6l30 -1q36 -1 63 -6.5t32 -12.5q7 -9 2.5 -18.5t-15.5 -9.5q-8 0 -14 2v0z" />
</svg>
