<?xml version="1.0" standalone="no"?>
<!DOCTYPE svg PUBLIC "-//W3C//DTD SVG 1.1//EN" "http://www.w3.org/Graphics/SVG/1.1/DTD/svg11.dtd" >
<svg xmlns="http://www.w3.org/2000/svg" xmlns:xlink="http://www.w3.org/1999/xlink" version="1.1" viewBox="-10 0 1239 2048">
   <path fill="currentColor"
d="M151 413q3 -3 58.5 -3t62.5 3q9 3 10.5 13t-6.5 16q-3 3 -12 4t-50 1q-47 0 -57.5 -2t-13.5 -11q-1 -5 1 -12t7 -9zM358 417l5 -5h60q42 0 51.5 1t13.5 3q7 7 6 17t-11 13q-5 3 -62 2h-57l-5 -6q-12 -12 -1 -25zM569 425q5 -7 13 -7q23 0 82 18q23 6 30.5 11t7.5 14
q0 5 -5.5 11.5t-10.5 6.5q-4 0 -31.5 -8t-54 -13t-31.5 -12q-10 -10 0 -21zM768 493q6 -6 11 -6q10 0 53.5 32t47.5 43q4 9 -1 16.5t-15 7.5q-7 0 -16 -8q-31 -26 -59 -45q-22 -15 -24 -18q-3 -4 -2 -11t5 -11zM920 636q10 -8 21 -2q6 3 29 44.5t28 57.5q2 9 -3 16.5
t-13 7.5q-12 0 -16 -9q-2 -4 -14 -29t-25 -46q-11 -19 -12.5 -26.5t5.5 -13.5zM1004 827q11 -6 21 3q6 7 14 60.5t4 64.5q-1 4 -6.5 7t-11.5 3q-5 0 -10 -5t-6 -11q-1 -7 -3 -28t-7.5 -51t-2.5 -35t8 -8zM1018 1042q12 -13 24 0l6 5v60v60l-5 5q-5 5 -12.5 5t-12.5 -6l-5 -5
l-1 -59v-59zM1023 1249q8 -4 17 1q7 3 8.5 15t1.5 58l-1 54l-5 5q-5 6 -12.5 6t-12.5 -6l-5 -5v-56q-1 -55 0 -58q1 -10 9 -14zM1020 1464q6 -6 12 -6t12 6l6 6v58v58l-5 7q-5 6 -13 6t-13 -6l-5 -7v-58v-58zM1020 1675q13 -14 25 0l5 6v59v58l-6 6q-6 6 -12 6t-12 -6l-6 -6
v-59v-58zM1019 1885l-5 5l-1 56q-1 56 1 62q4 14 18 12.5t17 -15.5q1 -7 1 -61l-1 -54l-6 -5q-12 -11 -24 0v0z" />
</svg>
