<?xml version="1.0" standalone="no"?>
<!DOCTYPE svg PUBLIC "-//W3C//DTD SVG 1.1//EN" "http://www.w3.org/Graphics/SVG/1.1/DTD/svg11.dtd" >
<svg xmlns="http://www.w3.org/2000/svg" xmlns:xlink="http://www.w3.org/1999/xlink" version="1.1" viewBox="-10 0 1239 2048">
   <path fill="currentColor"
d="M249 -128q16 -9 24 7q3 5 3 61.5t-3 62.5q-6 11 -18 8.5t-15 -15.5q-1 -8 -0.5 -59t1.5 -56q3 -6 8 -9zM249 87q9 -5 18 0q7 3 8.5 14t1.5 54t-1.5 54t-8.5 15q-11 5 -20 -3l-7 -6l-1 -54q0 -46 1.5 -58.5t8.5 -15.5zM250 300q7 -4 14.5 -1t10.5 11q2 6 2 61
q0 44 -1.5 54t-9.5 14q-11 4 -19 -4l-6 -6v-60q0 -47 1.5 -56t7.5 -13zM350 414l7 -5h57q48 0 58 2t13 10q5 13 -7 21q-5 3 -63 3h-58l-7 -5q-6 -5 -6 -13t6 -13zM565 414l6 -5h57q48 0 58 2t13 10q5 13 -6 21q-5 3 -64 3h-58l-6 -5q-6 -5 -6 -13t6 -13zM778 418q5 -5 17 -4
q27 3 65 18t45 26q3 4 2 11t-4 10q-6 6 -12.5 5t-21.5 -9q-33 -17 -67 -24q-20 -4 -24 -9q-11 -13 0 -24zM949 533q5 -5 12.5 -5t11.5 5q10 10 20 48t10 64q0 11 -5 15q-12 13 -24 0q-5 -4 -7 -26q-6 -44 -19 -75q-8 -17 1 -26zM973 739q8 -4 15 2t7 16q0 6 -8.5 46
t-13.5 58q-3 10 -10 14q-16 8 -24 -7q-2 -6 -1.5 -11t6.5 -28q7 -32 13 -57q3 -18 6.5 -24.5t9.5 -8.5zM914 949q11 -9 22 2q6 6 6 10q0 8 -19.5 58.5t-24.5 55.5q-4 4 -11 5t-11 -2q-8 -6 -8 -15q0 -4 11 -30.5t20.5 -53t14.5 -30.5zM829 1145q10 -7 20 0q7 5 7 14
t-29.5 56.5t-37.5 51.5q-12 5 -20 -6q-5 -6 -2.5 -14.5t15.5 -28.5q16 -24 29.5 -47t17.5 -26zM709 1318q8 -4 16 1.5t8 14.5q0 6 -3 10.5t-17 18.5q-53 56 -64 62t-20.5 -2.5t-4.5 -18.5q2 -4 41.5 -43.5t43.5 -42.5zM522 1479q24 -17 32 -19t15 5q8 8 4 19
q-3 6 -51.5 37.5t-55.5 31.5q-6 0 -11 -6.5t-5 -13t4.5 -11t21 -14.5t46.5 -29zM350 1575l-40 17.5t-27 14.5q-7 6 -3.5 16t12.5 12q8 2 66 -25q25 -11 29 -18q7 -15 -7 -23q-6 -3 -11 -2t-19 8v0z" />
</svg>
