<?xml version="1.0" standalone="no"?>
<!DOCTYPE svg PUBLIC "-//W3C//DTD SVG 1.1//EN" "http://www.w3.org/Graphics/SVG/1.1/DTD/svg11.dtd" >
<svg xmlns="http://www.w3.org/2000/svg" xmlns:xlink="http://www.w3.org/1999/xlink" version="1.1" viewBox="-10 0 1239 2048">
   <path fill="currentColor"
d="M735 420q5 -6 14 -6t31 5q26 7 52.5 19.5t37.5 23.5q5 5 5.5 12t-5.5 12q-9 10 -29 -2q-40 -24 -85 -34q-12 -2 -16.5 -4.5t-6.5 -7.5q-5 -9 2 -18zM162 423q6 -4 12.5 -3.5t10.5 5.5q6 6 36 58q24 43 28.5 54t-2.5 18q-6 6 -14.5 5t-14.5 -10q-4 -6 -33 -57
q-20 -36 -24.5 -45t-3.5 -14q1 -7 5 -11zM608 425q15 -5 22 -5t12 5q5 4 5 12t-5 12q-4 4 -22 10q-34 12 -67 36q-17 12 -22 14q-8 3 -15.5 -2t-7.5 -14q0 -6 8 -15q15 -13 41.5 -28.5t50.5 -24.5zM927 549q9 -9 20 -3t36.5 62t21.5 67q-3 6 -8.5 9.5t-10.5 2.5
q-7 -1 -11.5 -7.5t-12.5 -29.5q-11 -28 -26 -56.5t-15 -34t6 -10.5zM443 564q12 -2 18 7q4 6 2 13.5t-12 23.5q-14 21 -30 54q-16 31 -23 37.5t-17 1.5q-5 -3 -7.5 -9t-1.5 -11q2 -7 16.5 -35.5t25.5 -45.5q20 -34 29 -36zM288 633q6 -2 7 -2t7 2q4 2 10.5 12t27.5 46
q32 56 33 60q3 8 -4.5 15.5t-15.5 5.5q-6 -1 -9 -5q-5 -4 -36 -59t-31 -58q0 -11 11 -17zM1007 770q4 -2 6 -2t8 2q7 3 9 9q3 9 6.5 45t3.5 62q0 17 -0.5 21.5t-3.5 8.5q-6 6 -14 6t-13 -6q-3 -4 -4 -8t-1 -18q0 -35 -6 -86q-2 -18 -0.5 -24t9.5 -10zM339 783q6 -3 8 -3t8 2
q10 5 10 15q0 4 -10 38.5t-15 59.5q-5 21 -10 28t-13 7q-6 0 -12 -5.5t-6 -10.5q0 -4 8 -36t14 -55q7 -25 10 -31.5t8 -8.5zM1014 1009q9 -5 17 -1q7 3 8.5 13t2.5 60q0 51 -1 62t-9 15q-11 6 -19 -3l-6 -5l-1 -62q-2 -51 -0.5 -63t8.5 -16zM290 1014q8 -4 16 2
q7 6 6.5 15.5t-10.5 57.5q-13 59 -15 64.5t-8 8.5t-12 2q-5 -1 -9.5 -6.5t-4.5 -10.5q0 -7 13.5 -65t15.5 -62q3 -4 8 -6zM1013 1249q12 -10 23 1l6 6l1 61q2 51 0.5 63.5t-9.5 15.5q-11 6 -20 -2l-7 -6v-67v-67zM233 1251q7 -7 17 -4t12 12q1 4 -12 67q-10 42 -13 53t-6 14
q-12 10 -24 -1q-5 -6 -5 -10.5t13 -65.5t18 -65zM182 1484q7 -7 16.5 -4.5t12.5 12.5q1 3 -10.5 57.5t-14.5 65.5q-5 15 -17 15q-6 0 -11.5 -4t-6.5 -9.5t12.5 -66.5t18.5 -66zM1014 1489q6 -6 12.5 -6t11.5 6l6 5v63q1 62 0.5 66t-6.5 9.5t-10 5.5q-5 0 -10.5 -3.5
t-6.5 -8.5q-3 -7 -3 -69v-63zM542 1604q5 -2 68 -2t67 2q9 5 9 16t-9 16q-4 2 -67 2t-67 -2q-9 -5 -9 -16q-1 -11 8 -16zM781 1604q-9 5 -9 16t9 16q5 2 67.5 2t67.5 -2q9 -5 9 -16t-9 -16q-5 -2 -68 -2t-67 2v0z" />
</svg>
