<?xml version="1.0" standalone="no"?>
<!DOCTYPE svg PUBLIC "-//W3C//DTD SVG 1.1//EN" "http://www.w3.org/Graphics/SVG/1.1/DTD/svg11.dtd" >
<svg xmlns="http://www.w3.org/2000/svg" xmlns:xlink="http://www.w3.org/1999/xlink" version="1.1" viewBox="-10 0 1239 2048">
   <path fill="currentColor"
d="M133 417l6 -5h54q55 0 59 2q8 3 9 12.5t-5 15.5l-6 5h-44h-43v53v53l-5 6q-12 13 -25 0l-5 -5l1 -57q0 -57 0.5 -58.5t-0.5 -8.5t4 -13zM334 414q4 -2 59 -2h55l5 5q6 6 5.5 13.5t-7.5 12.5q-4 4 -59 4h-55l-6 -5q-7 -6 -6 -15.5t9 -12.5zM527 417l6 -6l46 1q41 1 54 3
t17 7q10 11 -1 23q-4 5 -9.5 5.5t-30.5 -1.5q-20 -2 -49 -2h-28l-5 -6q-12 -12 0 -24zM723 438q6 -4 9 -4q7 0 46.5 13t53.5 20q6 3 9.5 9t2.5 11t-6.5 10t-9.5 5t-29.5 -10t-48.5 -17q-20 -6 -24.5 -8t-7.5 -8q-6 -11 5 -21zM900 520q7 -6 13.5 -5t20.5 12t37.5 34t27.5 30
q5 9 0 17.5t-16 8.5q-4 0 -8.5 -3.5t-18.5 -18.5q-22 -22 -40 -36t-20 -18q-6 -11 4 -21zM138 629q10 -4 20 5l4 5l1 51q0 41 -1.5 52.5t-7.5 15.5q-5 4 -11.5 3.5t-10.5 -5.5l-5 -5v-56q0 -40 0.5 -48.5t3.5 -11.5q3 -4 7 -6zM1026 668q10 -7 19 1q7 6 16.5 32t15.5 58
q4 18 2 24q-4 11 -17 11q-14 0 -18 -20q-8 -40 -19 -69q-6 -16 -7 -20t1 -8q3 -6 7 -9zM131 831q5 -6 12.5 -6t12.5 5l5 5v54q0 55 -2 59q-4 8 -12.5 10t-14.5 -5l-6 -5v-56v-55zM1063 859q7 -3 14 1t9 11t2 58q0 42 -1 49.5t-10 11.5q-5 2 -12 0q-8 -3 -10 -12t-3 -54
l-1 -53l4 -6q4 -5 8 -6zM131 1027q12 -11 23 0l6 5l1 49q0 41 -1 52.5t-5.5 16t-11.5 4.5t-13 -4l-5 -5v-56v-57zM1060 1059q5 -5 12 -5t12 5l5 4l2 52q1 51 0 57q-2 13 -14.5 15t-18.5 -9q-3 -5 -3 -60v-54zM138 1218q10 -1 17 6l4 4v55q0 45 -1.5 54.5t-8.5 12.5
q-13 5 -21 -5q-3 -3 -3.5 -12t-0.5 -48v-55l5 -5q5 -6 9 -7zM1065 1254q11 -7 22 3l4 4l1 55q0 45 -1.5 54.5t-9.5 12.5q-11 5 -19 -4q-3 -3 -4 -8t-2 -23q-3 -73 1 -85q2 -6 8 -9zM129 1420q6 -5 11 -5q6 0 11 3t6.5 8t2 52t-1.5 54q-2 14 -15 15.5t-19 -10.5q-2 -6 -1 -59
v-53zM1062 1452q5 -5 12 -4.5t13 5.5l5 6v53q0 54 -2 58q-6 13 -19 10.5t-15 -16.5q-1 -8 0 -57l1 -50zM138 1607q4 -3 12 -3.5t47 -0.5q44 0 53.5 1.5t12.5 9.5q4 11 -5 20l-4 4h-56q-46 0 -54.5 -1.5t-11.5 -10.5q-4 -11 6 -19zM337 1605q4 -2 59 -2l56 1l4 5q5 6 4.5 13
t-5.5 11l-6 5h-55h-56l-5 -5q-7 -7 -5.5 -16t9.5 -12zM532 1605.5q5 -2.5 57.5 -3t58.5 2.5q5 2 7.5 8.5t0.5 12.5q-3 9 -11.5 10.5t-53.5 1.5q-46 0 -54.5 -1.5t-11.5 -10.5q-2 -5 0 -11.5t7 -9zM726 1608l6 -5h56l57 1l4 5q11 12 -1 24l-5 5h-55h-56l-5 -5q-6 -5 -6.5 -12
t5.5 -13zM926 1606q-8 4 -8.5 12.5t5.5 15.5l5 4h55q46 0 55 -1.5t12 -10.5q3 -11 -7 -19q-4 -3 -12 -3.5t-47 -0.5q-54 0 -58 3v0z" />
</svg>
