<?xml version="1.0" standalone="no"?>
<!DOCTYPE svg PUBLIC "-//W3C//DTD SVG 1.1//EN" "http://www.w3.org/Graphics/SVG/1.1/DTD/svg11.dtd" >
<svg xmlns="http://www.w3.org/2000/svg" xmlns:xlink="http://www.w3.org/1999/xlink" version="1.1" viewBox="-10 0 600 2048">
   <path fill="currentColor"
d="M291 1716q13 -11 25 0l5 5l1 56q1 56 -1 63q-1 6 -6 11t-10.5 5t-12.5 -5l-6 -6v-62v-62zM292 1937l-5 5v62v32l6 6q6 6 12 6t12 -6l6 -6l-1 -31q0 -56 -1 -56q-4 -13 -6 -15q-5 -3 -12 -2t-11 5v0zM292 416q12 -5 21 5q3 4 3.5 11t0.5 45v50l-6 6q-11 12 -23 1l-6 -5
v-51q-1 -41 0.5 -50t9.5 -12zM287 620q5 -5 12.5 -5.5t12.5 4.5q3 3 4 8.5t2 27.5q3 77 -1 91q-3 10 -13 12.5t-17 -5.5q-4 -4 -5 -16.5t0 -57.5v-54zM288 840q5 -5 12.5 -5t12.5 5l5 5v63v63l-6 4q-12 11 -23 -1l-6 -5v-62v-62zM291 1058q4 -3 11 -2t12 5l5 5v62v63l-6 5
q-8 6 -16 4t-12 -12q-2 -6 -2 -62q0 -43 1.5 -53.5t6.5 -14.5zM290 1281q12 -10 24 0l6 5l1 56q0 57 -1 63q-1 7 -6.5 11.5t-11 4.5t-11.5 -5l-6 -6v-62l-1 -62zM290 1502l-5 5v62v61l6 6q6 6 12 6t12 -6l6 -6v-60q0 -45 -1 -55.5t-7 -15.5q-4 -3 -11 -2t-12 5v0z" />
</svg>
