<?xml version="1.0" standalone="no"?>
<!DOCTYPE svg PUBLIC "-//W3C//DTD SVG 1.1//EN" "http://www.w3.org/Graphics/SVG/1.1/DTD/svg11.dtd" >
<svg xmlns="http://www.w3.org/2000/svg" xmlns:xlink="http://www.w3.org/1999/xlink" version="1.1" viewBox="-10 0 989 2048">
   <path fill="currentColor"
d="M302.5 413q5.5 -3 60 -3t60.5 3t8.5 9t0.5 12q-4 9 -12.5 10.5t-56 1.5t-56.5 -2t-13 -10q-2 -6 0.5 -12t8 -9zM506 421q9 -9 35 0q35 11 64 34q16 12 20 18.5t0 15.5q-6 13 -19 9q-5 -1 -18 -11q-28 -22 -64 -34q-17 -6 -20 -10q-3 -5 -2.5 -11.5t4.5 -10.5zM656 555
q12 -12 24 -1q7 7 17.5 44t13.5 64q1 11 -3 16q-9 12 -22 5q-5 -2 -7.5 -8t-4.5 -20q-6 -36 -18 -69q-5 -15 -5 -20.5t5 -10.5zM693 755q4 -2 10 -0.5t10 5.5q3 3 4 10.5t1 34.5q2 33 2 47t-1.5 24t-3.5 12.5t-7 3.5q-6 2 -12.5 0t-9.5 -7q-2 -5 -3 -61q-1 -38 -0.5 -48
t2.5 -13q3 -6 8 -8zM695 964q4 -2 10.5 -0.5t10.5 5.5l5 5v58q1 57 -2.5 62t-10 7t-11.5 0q-8 -3 -9.5 -12.5t-1.5 -55.5q-1 -46 0.5 -55.5t8.5 -13.5zM701 1172q10 -1 17 6q4 4 4.5 12t0.5 49q1 47 -0.5 57t-10.5 14q-12 5 -20 -6q-3 -3 -3.5 -13.5t-0.5 -49.5l-1 -58l5 -5
q4 -5 9 -6zM696 1384q4 -3 11.5 -2.5t11.5 5.5l5 5v50q1 50 0 58q0 11 -7 16.5t-16 2.5t-11 -13.5t-2 -56.5q0 -41 1 -51t7 -14zM701 1590q9 -4 19 5q4 4 5 13t-1 17q-2 5 -3.5 7t-9 3.5t-17.5 2t-34 0.5h-50l-6 -6q-11 -11 -1 -23l5 -6h40l41 -1l4 -5q3 -5 8 -7zM192 1604
q4 -2 59 -2q43 0 53 1t14 7q2 3 2 10t-2 10q-4 6 -14.5 7t-53.5 1h-57l-6 -6q-7 -7 -5.5 -15.5t10.5 -12.5zM401 1604q-9 4 -10.5 12.5t5.5 15.5l6 6h56q57 0 62 -2q9 -5 9 -16t-9 -16q-4 -2 -59 -2t-60 2v0z" />
</svg>
