<?xml version="1.0" standalone="no"?>
<!DOCTYPE svg PUBLIC "-//W3C//DTD SVG 1.1//EN" "http://www.w3.org/Graphics/SVG/1.1/DTD/svg11.dtd" >
<svg xmlns="http://www.w3.org/2000/svg" xmlns:xlink="http://www.w3.org/1999/xlink" version="1.1" viewBox="-10 0 1239 2048">
   <path fill="currentColor"
d="M111 409q4 -1 38 -0.5t53 0.5q13 0 16.5 1t7.5 5q7 7 4.5 16t-12.5 12q-7 3 -58 1q-38 -1 -45.5 -1.5t-11.5 -4.5q-7 -7 -4.5 -17t12.5 -12zM300 415l6 -6l66 1h66l5 6q5 6 5 12.5t-4.5 11t-17.5 7.5q-29 6 -61 23q-17 9 -24.5 10.5t-12.5 -4.5q-6 -5 -5.5 -12t5.5 -13
l6 -5l-14 -1q-15 -1 -20 -6t-5 -12t5 -12zM497 416l5 -5h56h56l6 6q7 7 5 15.5t-11 11.5q-6 3 -53 3.5t-56 -2.5q-10 -3 -13 -12t5 -17zM697 414q9 -5 46 1q22 4 44 11t26.5 12t5 12t-4.5 12t-10 5.5t-17 -3.5q-38 -13 -68 -16q-14 -1 -18 -2q-5 -1 -8.5 -6t-3.5 -11
q0 -10 8 -15zM879 482q6 -2 10.5 -1.5t11.5 5.5q17 12 43.5 38.5t30.5 35.5q3 8 -2.5 15t-15.5 7q-4 0 -8.5 -3.5t-19.5 -18.5q-21 -22 -39.5 -37.5t-19.5 -20.5q-3 -13 9 -20zM255 522q7 -7 14 -7q15 0 17 14q1 5 -1 9.5t-11 17.5q-13 20 -26 45.5t-17 29.5q-8 6 -17.5 1.5
t-9.5 -15.5q0 -9 19 -44t32 -51zM1000 635q8 -8 17.5 -4t16.5 18q11 22 22.5 52.5t11.5 36.5q0 7 -5.5 12t-12.5 5t-11.5 -5.5t-11.5 -24.5q-9 -24 -20.5 -49t-11.5 -30t5 -11zM179 695q11 -7 21 2q5 6 5.5 12.5t-4.5 25.5t-10 46t-7 32q-3 9 -12 10t-16 -6q-6 -6 -6 -9
q0 -8 9.5 -52.5t12.5 -52.5q2 -5 7 -8zM1064 821q11 -12 23 -2q6 5 9 25q12 64 12 85q0 10 -8.5 15.5t-17.5 0.5q-5 -3 -7.5 -10t-5.5 -30q-3 -26 -7 -47t-3.5 -26.5t5.5 -10.5zM145 891q9 -8 19 -3.5t10 16.5q0 15 -2.5 56t-3.5 46q-3 11 -13 13t-17 -7q-3 -4 -3.5 -10
t0.5 -34q1 -39 2.5 -55.5t7.5 -21.5zM1088 1013q12 -7 22 4l4 5l-1 56v55l-7 6q-9 8 -19 3q-7 -3 -8.5 -12.5t-1.5 -51.5q1 -51 3.5 -57t7.5 -8zM140 1089q12 -12 24 0q5 5 6.5 21t4.5 49q3 34 2.5 41t-5.5 11q-6 5 -10 5q-6 0 -11 -3.5t-7 -8.5q-5 -16 -9 -87l-1 -22z
M1072 1212q11 -10 22 0q6 4 6 12t-5 32q-15 67 -25 76q-7 7 -15 5.5t-12 -10.5q-2 -5 -1 -10t6 -24q8 -26 13 -51q3 -16 5 -21.5t6 -8.5zM170 1279q3 -1 10 -1q8 0 12.5 6.5t11.5 28.5q8 27 17 49q7 18 8 23.5t-2 10.5q-5 9 -16 9q-7 0 -11.5 -5.5t-11.5 -22.5t-15.5 -43
t-9.5 -34q-1 -6 1.5 -12.5t5.5 -8.5zM1011 1394q11 -6 19 3q6 6 6 12.5t-7 18.5q-13 21 -32.5 46.5t-26.5 29.5t-14 1.5t-10 -10.5q-3 -6 -1 -11.5t12 -16.5q22 -27 40 -56q9 -15 14 -17zM254 1457q7 -3 13.5 0.5t15.5 15.5t34.5 36.5t27.5 29.5q3 9 -4.5 17t-16.5 5
q-8 -2 -31 -24.5t-41 -45.5q-9 -11 -9 -17q0 -13 11 -17zM868 1542q14 -8 18 -8q5 0 10 3.5t7 8.5q4 13 -14 25q-32 21 -74 37q-11 4 -15 5t-8 -1q-9 -4 -11 -13.5t5 -15.5q3 -3 21 -10q31 -13 61 -31zM404 1579q5 -3 8.5 -2.5t14.5 4.5q35 13 70 20q15 3 19.5 6t6.5 10
t-2 13t-9 8q-12 3 -58 -10.5t-54 -21.5q-6 -7 -5 -15t9 -12zM690 1602q-10 2 -49 3q-31 0 -39 1.5t-12 8.5q-3 4 -2 11t5 11q3 2 10 3t34 0q45 0 62 -3.5t20 -13.5q2 -5 -1 -11.5t-9 -8.5q-6 -3 -7 -3t-12 2v0z" />
</svg>
