<?xml version="1.0" standalone="no"?>
<!DOCTYPE svg PUBLIC "-//W3C//DTD SVG 1.1//EN" "http://www.w3.org/Graphics/SVG/1.1/DTD/svg11.dtd" >
<svg xmlns="http://www.w3.org/2000/svg" xmlns:xlink="http://www.w3.org/1999/xlink" version="1.1" viewBox="-10 0 1239 2048">
   <path fill="currentColor"
d="M212 423.5q5 -4.5 12.5 -4.5t12.5 4q4 5 22 54t18 56q0 11 -10 15.5t-18 -1.5q-5 -3 -23.5 -53t-18.5 -59q0 -7 5 -11.5zM1019 425q7 -3 15 1q7 3 9 13.5t2 49.5q-1 38 -2.5 51t-6.5 17.5t-12.5 3.5t-12.5 -5l-5 -6l1 -58q1 -47 2.5 -55.5t9.5 -11.5zM282 615
q5 -4 12 -4.5t12 3.5q4 3 22.5 53t18.5 58q0 11 -10 15.5t-18 -1.5q-5 -4 -23.5 -54t-18.5 -58q0 -7 5 -12zM1012 631q14 -8 24 3q4 5 4.5 18t-2.5 59q-2 34 -4.5 42.5t-10.5 11.5q-6 2 -12 -1q-9 -3 -10.5 -12t0.5 -53q3 -52 4 -58t7 -10zM352 807q5 -4 12 -4.5t12 3.5
q4 3 22.5 53t18.5 57q0 12 -9.5 16.5t-18.5 -1.5q-4 -4 -23 -54t-19 -58q0 -7 5 -12zM996 836q6 -5 13 -4q11 2 14.5 9.5t-0.5 24.5q-3 13 -12 51q-8 37 -11 42q-6 8 -15.5 8t-14.5 -9q-3 -5 -2.5 -10t4.5 -27q11 -52 15.5 -66.5t8.5 -18.5zM422 999q5 -4 12 -4.5t12 3.5
q4 3 23 53t18 57q0 11 -9.5 16t-18.5 -1q-4 -4 -23 -54t-19 -58q0 -7 5 -12zM946 1034q7 -8 19 -3.5t12 15.5q0 14 -28 83q-8 19 -13.5 25.5t-13.5 6.5q-5 0 -11.5 -5.5t-6.5 -10.5t9.5 -29t19 -50.5t13.5 -31.5zM493 1191q5 -4 12 -4.5t11 3.5q4 3 23 53t19 57q0 6 -4 11
t-10 6q-5 2 -11 -0.5t-8 -6.5q-5 -9 -21.5 -56t-16.5 -51q0 -7 6 -12zM867 1221q12 -10 24 1q6 6 5 13q-2 10 -29 52.5t-35 48.5q-8 5 -17 1t-11 -14q-1 -5 2.5 -11.5t19.5 -30.5q24 -36 29.5 -46t11.5 -14zM563 1383q5 -5 12 -5t11 4q5 3 23.5 53t18.5 57q0 6 -4 11t-9 6
q-4 1 -4.5 2t1.5 5q4 10 -5 19q-8 7 -53 28t-53 21q-9 0 -14 -9t-1 -17q3 -5 8 -8t29 -13q19 -9 42.5 -21t26.5 -12t2 -4q-11 -26 -24 -63.5t-13 -41.5q0 -8 6 -12zM727 1399q14 -13 18.5 -16t9.5 -3q9 0 14 6q7 9 4.5 16t-19.5 24q-20 19 -42 37.5t-28 19.5
q-8 2 -15.5 -3.5t-7.5 -14.5q0 -5 5 -11t21 -18q20 -17 40 -37zM382 1584q18 -4 24.5 -3.5t11.5 6.5q7 7 5 15t-10 12q-16 8 -85 20q-24 4 -30 1q-9 -4 -10 -14.5t7 -15.5q6 -4 39 -10.5t48 -10.5zM141 1613q-44 1 -49 4t-7 9t0 12q4 10 13 11.5t54 0.5t56 -3t13 -12
q3 -11 -3.5 -17.5t-21.5 -5.5q-11 0 -55 1v0z" />
</svg>
