<?xml version="1.0" standalone="no"?>
<!DOCTYPE svg PUBLIC "-//W3C//DTD SVG 1.1//EN" "http://www.w3.org/Graphics/SVG/1.1/DTD/svg11.dtd" >
<svg xmlns="http://www.w3.org/2000/svg" xmlns:xlink="http://www.w3.org/1999/xlink" version="1.1" viewBox="-10 0 1239 2048">
   <path fill="currentColor"
d="M174 415q6 -3 57.5 -3t57.5 3q14 7 8 21q-3 9 -11.5 10.5t-53 1.5t-53.5 -1.5t-12 -10.5q-5 -14 7 -21zM370 415q6 -3 57.5 -3t57.5 3q14 7 8 21q-3 9 -11.5 10.5t-53 1.5t-53.5 -1.5t-12 -10.5q-5 -14 7 -21zM566 415q6 -2 60 -3h54l5 5q12 12 -1 25l-4 5l-54 1
q-45 0 -54 -1.5t-12 -9.5q-6 -15 6 -22zM759 433q8 -7 40 6q33 13 55 27t22 21q0 13 -12 18q-7 3 -16 -2q-55 -29 -72 -35q-13 -4 -18 -8q-7 -5 -6.5 -13.5t7.5 -13.5zM147 490q6 -6 15 -3.5t13 11.5q2 5 2 50t-2 54t-6 13q-11 9 -23 -1l-6 -5l-1 -48q0 -43 1 -54.5t7 -16.5
zM923 538q8 -4 14.5 -0.5t19.5 19.5q18 23 31.5 47t13.5 32q0 6 -5 11t-11 5q-12 0 -23 -19q-16 -31 -37 -58q-13 -16 -13 -20q0 -12 10 -17zM146 686q6 -5 13.5 -4t12.5 7q3 4 3 57.5t-3 58.5q-4 9 -13 9.5t-15 -6.5l-5 -6l1 -55v-56zM1008 713q4 -4 12 -4q9 0 13.5 7.5
t10.5 29.5q14 59 14 77q0 9 -9.5 14t-17.5 0q-5 -3 -7 -9t-6 -28q-4 -24 -10 -49q-5 -19 -5 -26t5 -12zM145 883q11 -11 23 -1l6 5v57v57l-6 5q-13 11 -24 -1l-5 -4v-56v-56zM1040 904q11 -6 21 3q6 7 7 72q0 33 -2 42.5t-10 12.5t-15.5 -1t-9.5 -13q-1 -6 -1 -55
q0 -39 1.5 -48t8.5 -13zM235 992q4 -1 17 -0.5t52 0.5h39l6 6q11 12 1 24l-5 5l-32 1q-32 0 -56.5 -1t-29.5 -6q-7 -7 -4 -17t12 -12zM428 996q6 -3 59 -2l54 1l5 6q10 12 -1 23l-6 6h-50q-39 0 -51.5 -1.5t-16.5 -6.5q-4 -7 -2 -15t9 -11zM1037 1104q5 -5 12.5 -5t12.5 5
l5 6v55l1 55l-6 6q-12 12 -24 0l-6 -6v-55v-56zM1037 1301q5 -6 12.5 -6t12.5 6l6 5v56v56l-6 5q-9 9 -20 3q-7 -4 -8.5 -15t-1.5 -52v-51zM1039 1496q9 -9 21 -3q6 4 8 15t2 49q0 40 -2 50.5t-8 13.5q-11 6 -21 -3l-6 -6l-1 -48q0 -49 1 -56t6 -12zM1039 1692q5 -5 12.5 -5
t12.5 5l5 6v55q1 41 0.5 48.5t-4.5 11.5q-4 5 -11.5 6t-13.5 -5l-6 -6v-55v-56zM1040 1887q-4 4 -5 8.5t-1 52.5l1 49l6 4q12 11 23 0l6 -5v-51v-51l-5 -5q-5 -5 -12.5 -5.5t-12.5 3.5v0z" />
</svg>
