<?xml version="1.0" standalone="no"?>
<!DOCTYPE svg PUBLIC "-//W3C//DTD SVG 1.1//EN" "http://www.w3.org/Graphics/SVG/1.1/DTD/svg11.dtd" >
<svg xmlns="http://www.w3.org/2000/svg" xmlns:xlink="http://www.w3.org/1999/xlink" version="1.1" viewBox="-10 0 1239 2048">
   <path fill="currentColor"
d="M184 411q4 -2 60 -2l55 1l5 5q10 12 -1 24l-6 6h-54q-41 0 -51 -1.5t-14 -6.5q-2 -3 -2 -10t2 -10.5t6 -5.5zM381 411q4 -2 60 -2l55 1l5 5q10 12 -1 24l-6 6h-54q-41 0 -51 -1.5t-14 -6.5q-2 -3 -2 -10t2 -10.5t6 -5.5zM578 411q4 -2 60 -2l55 1l5 5q10 12 -1 24l-6 6
h-54q-54 0 -58 -3q-9 -5 -9 -15q0 -11 8 -16zM767 441q7 -5 15 -3.5t28.5 12t43 24.5t25.5 19q6 8 1 17.5t-15 9.5q-7 0 -29 -14.5t-44.5 -25.5t-25.5 -15q-4 -5 -3.5 -12.5t4.5 -11.5zM153 487q5 -7 12 -7t13 5q3 4 4 9.5t2 30.5q2 45 1.5 60t-4.5 20q-4 8 -12.5 8.5
t-14.5 -6t-6 -81.5q0 -25 0.5 -30t4.5 -9zM928 555q6 -3 8 -3t6 2q10 4 38.5 46t28.5 52q0 6 -5.5 11.5t-11.5 5.5q-7 0 -11.5 -4.5t-14.5 -21.5q-13 -20 -25 -37q-19 -24 -21 -28.5t0 -11.5q2 -8 8 -11zM157 681q4 -3 10.5 -3.5t11.5 2.5q5 4 6.5 16.5t1.5 52.5v50l-6 6
q-12 12 -23 0l-6 -5l-1 -51q-2 -51 -0.5 -57.5t6.5 -10.5zM1022 727q6 -4 9.5 -4t9.5 4q4 3 6 7t6 17q20 64 21 84q0 10 -6 15q-10 9 -20 1q-5 -3 -7 -8t-7 -24q-5 -23 -13 -50q-7 -23 -6.5 -30t7.5 -12zM158 879q5 -5 12 -5t13 5l5 5l1 57l1 56l-7 6q-7 6 -14.5 4.5
t-12.5 -9.5q-3 -6 -3 -60v-54zM1063.5 918.5l7.5 -2.5q4 0 9 4t7 8q2 6 4 47.5t2 53.5q-2 21 -18 21q-8 0 -13 -5q-4 -4 -5 -15t-3 -69q-1 -31 2 -36t7.5 -6.5zM240 999q9 -4 79 -2q24 1 30 2t9 4q9 9 2 21q-3 7 -14.5 8.5t-53.5 -0.5l-53 -1l-5 -6q-6 -7 -4.5 -14.5
t10.5 -11.5zM431 1004l5 -6h55q55 0 59 2q9 5 9 15.5t-9 15.5q-4 3 -56 3t-58 -3q-8 -5 -9.5 -12.5t4.5 -14.5zM1063 1115q11 -4 19 5q5 4 5 15.5t-5 41.5q-6 36 -9 48t-8 17q-11 9 -22 0q-5 -5 -5.5 -12t3.5 -28q4 -19 8 -48q3 -22 5.5 -29t8.5 -10zM1014 1310q8 -8 19 -3
q5 3 7.5 9t0.5 12q-2 7 -14 31.5t-21 39.5q-13 22 -21.5 27t-17.5 -4q-6 -7 -5 -14.5t13 -27.5q14 -23 23.5 -44t15.5 -26zM909 1470q9 -5 19 3t3 19.5t-36 35.5q-44 35 -56 35q-7 0 -12.5 -5t-5.5 -11.5t4 -10.5t19 -15q18 -12 39.5 -30.5t25.5 -20.5zM734 1576
q12 -4 15.5 -4.5t8.5 2.5q8 4 9.5 13t-4.5 15q-6 5 -44.5 16.5t-58.5 13.5q-10 1 -16 -3q-11 -11 -3 -23q2 -5 5.5 -6.5t13.5 -3.5q44 -9 74 -20zM126 1608q5 -4 8.5 -4.5t17.5 0t17.5 1.5t7.5 5q10 12 -1 23q-5 4 -8.5 5t-16.5 1t-17 -1t-8 -4q-7 -6 -7 -13t7 -13z
M253 1606q5 -3 60 -3l56 1l5 6q10 12 -1 23l-6 6h-54q-45 0 -55 -2t-13 -10q-2 -6 0.5 -12t7.5 -9zM450 1606q-5 3 -7.5 9t-0.5 12q3 8 13 10t55 2h54l6 -6q11 -11 1 -23l-5 -6l-56 -1q-55 0 -60 3v0z" />
</svg>
