<?xml version="1.0" standalone="no"?>
<!DOCTYPE svg PUBLIC "-//W3C//DTD SVG 1.1//EN" "http://www.w3.org/Graphics/SVG/1.1/DTD/svg11.dtd" >
<svg xmlns="http://www.w3.org/2000/svg" xmlns:xlink="http://www.w3.org/1999/xlink" version="1.1" viewBox="-10 0 1239 2048">
   <path fill="currentColor"
d="M225 420q4 -3 11.5 -2.5t10.5 3.5t25.5 39.5t29.5 49.5q4 8 2 14t-7.5 10t-10.5 4q-4 0 -9 -4t-32 -49.5t-27 -49.5q0 -9 7 -15zM1002 421q9 -5 19 0q5 2 6.5 7.5t1.5 18.5q-1 17 -4 52t-5 40q-4 13 -17 13t-16 -12q-1 -6 2 -42.5t3 -49.5q1 -22 10 -27zM331 589
q8 -4 15 0q6 3 30.5 44.5t28.5 47.5q6 12 -5.5 22t-22.5 -1q-4 -4 -30.5 -49t-26.5 -47q0 -13 11 -17zM980 618q8 -7 18 -1q8 4 9 11.5t-3 30.5q-6 28 -12 53.5t-12 30.5t-11 5t-11 -5.5t-6 -10.5t8 -42t10 -46q2 -20 10 -26zM434 757q13 -4 25.5 15t29.5 72q5 16 5.5 20
t-1.5 9q-4 8 -13 10t-15 -4q-3 -4 -15 -37t-20.5 -49.5t-6.5 -22.5q2 -9 11 -13zM927 810q8 -7 18 -2t10 15q0 17 -41 75q-16 22 -24.5 26.5t-17.5 -5.5q-6 -7 -4 -14.5t16 -27.5q17 -24 28 -44t15 -23zM491 949q5 -5 12.5 -5t12.5 5q7 8 20 86l5 28l-4 5q-6 8 -15 8t-14 -8
q-4 -5 -9 -35t-9 -48t-4 -24.5t5 -11.5zM794 986q14 -14 18.5 -17t9.5 -3q8 0 13 6q8 10 2 22q-4 6 -24 23.5t-39 32.5q-18 13 -25.5 14.5t-14.5 -5.5q-8 -9 -4.5 -16.5t22.5 -21.5q21 -16 42 -35zM647 1082q12 -5 12.5 -5.5t6.5 2.5q5 1 8.5 6.5t3.5 10.5q0 12 -33 26
q-67 29 -78 29q-8 0 -13.5 -9t-1.5 -17q3 -5 10 -8.5t38 -15.5q35 -14 47 -19zM519 1146q4 -5 11.5 -5.5t11.5 2.5q6 4 7.5 14.5t2.5 50.5q0 40 -0.5 47.5t-3.5 11.5q-4 5 -10 7q-5 1 -11.5 -2t-8.5 -8q-1 -4 -3 -59l-1 -54zM529 1339q10 -4 19 5l5 5l1 55q0 46 -1.5 54.5
t-10.5 12.5q-6 2 -12 0q-8 -4 -10 -13.5t-2 -54.5q0 -55 3.5 -59t7.5 -5zM524 1542q5 -5 13 -5t13 5l5 5l1 55q0 38 -0.5 47t-3.5 14q-5 8 -13.5 8t-14.5 -8q-4 -5 -4 -60l-1 -56zM525 1742q5 -7 12.5 -7t12.5 5q4 4 5 11t2 46q1 51 0 57q-2 8 -9.5 12.5t-15.5 1.5
q-8 -4 -9.5 -13t-2.5 -53v-54zM527 1938q-4 4 -4.5 9.5t-0.5 35.5q0 29 1.5 37.5t6.5 12.5q4 3 11 2.5t11 -3.5q4 -5 5 -12.5t1 -38.5q-1 -27 -1.5 -33t-4.5 -9q-5 -6 -12.5 -6t-12.5 5v0z" />
</svg>
