<?xml version="1.0" standalone="no"?>
<!DOCTYPE svg PUBLIC "-//W3C//DTD SVG 1.1//EN" "http://www.w3.org/Graphics/SVG/1.1/DTD/svg11.dtd" >
<svg xmlns="http://www.w3.org/2000/svg" xmlns:xlink="http://www.w3.org/1999/xlink" version="1.1" viewBox="-10 0 1239 2048">
   <path fill="currentColor"
d="M252 412q11 -4 19 3q5 5 30.5 44.5t26.5 45.5q3 12 -10 19q-7 3 -13.5 0.5t-32.5 -43.5q-24 -39 -27.5 -46.5t-0.5 -13.5q3 -7 8 -9zM1004 414q11 -10 23 2q5 5 5 10.5t-20 44.5t-25 44q-5 4 -12 4t-12 -5t-4 -13t20 -45t25 -42zM351 577q9 -9 19 -3q5 2 33 46
q22 35 25.5 44.5t-3.5 16.5q-5 6 -12 6t-12.5 -6t-30.5 -46q-21 -33 -24 -42t5 -16zM922 574q5 -3 8 -3t9 3q5 2 7.5 8t1.5 11q-3 9 -26 51.5t-26 45.5q-12 9 -23 -2q-6 -6 -5 -12.5t24.5 -52t29.5 -49.5zM457 735q6 -3 8 -3t7 3t30 42q24 37 28 45.5t2 14.5q-2 4 -7.5 8
t-10.5 4q-4 0 -10 -5q-6 -6 -32 -47.5t-26 -44.5q0 -13 11 -17zM831 749q12 -6 21 3q5 5 5 12q0 5 -23.5 51t-27.5 50q-10 8 -20 1.5t-8 -19.5q0 -3 24 -49.5t29 -48.5zM562 894.5q4 -0.5 9.5 1t8 4.5t28.5 45q22 35 25 43.5t-4 15.5q-11 12 -23 2q-5 -5 -31 -47
q-21 -34 -24.5 -43t2.5 -16q5 -5 9 -5.5zM740 925q8 -7 18 -2q5 3 7.5 9t1.5 11q-3 8 -25.5 50.5t-26.5 45.5q-5 5 -11 5t-11.5 -6t-5.5 -11.5t24 -52t29 -49.5zM656 1061q4 -5 10.5 -5.5t11.5 3.5q3 2 23 32.5t31 48.5q8 15 -2 25q-11 11 -21 3q-5 -4 -31 -47
q-22 -35 -25.5 -44t3.5 -16zM757 1223q11 -13 25 -1q5 5 29.5 43t26.5 45q2 6 -1 12q-7 12 -21 9q-5 -1 -10 -8t-25 -38q-27 -43 -28 -49.5t4 -12.5zM860 1382q9 -7 20 -3q4 2 31.5 45t28.5 50t-4 13t-12 6q-8 0 -15.5 -9t-29.5 -43q-20 -34 -23 -43t4 -16zM965 1542
q4 -3 11 -2.5t10 3.5t24 37q19 29 21.5 37t-4.5 15q-5 4 -8 5t-14.5 1t-14.5 -1t-7 -5q-12 -11 -3 -22q3 -3 2 -6t-8 -15q-17 -26 -17 -34t8 -13zM224 1604q4 -2 58 -1h53l5 6q10 12 -1 23l-6 6h-54h-54l-6 -6q-6 -7 -4.5 -15.5t9.5 -12.5zM415 1604q4 -2 58 -1h53l5 6
q10 12 -1 23l-6 6h-54h-54l-6 -6q-7 -7 -5.5 -15.5t10.5 -12.5zM606 1604q4 -2 57 -1h54l5 6q10 12 -2 23l-5 6h-54h-54l-6 -6q-7 -7 -5.5 -15.5t10.5 -12.5zM797 1604q-9 4 -10.5 12.5t5.5 15.5l6 6h54h53l6 -6q12 -11 1 -23l-4 -6h-54q-53 -1 -57 1v0z" />
</svg>
