<?xml version="1.0" standalone="no"?>
<!DOCTYPE svg PUBLIC "-//W3C//DTD SVG 1.1//EN" "http://www.w3.org/Graphics/SVG/1.1/DTD/svg11.dtd" >
<svg xmlns="http://www.w3.org/2000/svg" xmlns:xlink="http://www.w3.org/1999/xlink" version="1.1" viewBox="-10 0 1239 2048">
   <path fill="currentColor"
d="M118 408q3 -1 42 -1t57 1q16 2 20 6q6 8 3 17t-12 11q-6 2 -58 1l-52 -1l-6 -6q-6 -6 -4.5 -15t10.5 -13zM311 414l6 -6l56 1h56l5 5q5 5 5.5 12.5t-5.5 13.5l-5 5l-57 -1h-57l-5 -6q-10 -12 1 -24zM509 416l5 -6l57 1h56l5 5q6 5 6 12.5t-6 12.5l-5 6h-53
q-42 0 -53.5 -2t-14.5 -8q-7 -12 3 -21zM707.5 426q5.5 -6 10.5 -6q6 0 35 7.5t48 13.5q20 6 25.5 10.5t5.5 13.5q0 5 -4 10t-9 6q-5 2 -23 -4q-34 -12 -70 -19q-24 -4 -24 -19q0 -7 5.5 -13zM891 496q10 -11 33 5q19 13 42 34t27 30q5 9 -0.5 17.5t-14.5 8.5
q-6 0 -28.5 -21.5t-41 -35.5t-20.5 -18q-7 -11 3 -20zM1018 644q8 -7 16.5 -4t13.5 14q9 22 17.5 57.5t7.5 44.5q-1 5 -7 10t-11 5t-11 -5.5t-10 -27.5q-6 -35 -18 -65q-8 -21 2 -29zM1051 836q9 -4 17 1t8 17q0 26 -10 78q-4 21 -8.5 28t-12.5 7q-7 0 -13 -6
q-5 -5 -5.5 -9.5t3.5 -23.5q4 -20 7.5 -50t5 -34.5t8.5 -7.5zM232 930q5 -5 12.5 -5t12.5 5q4 4 4.5 11t1.5 45q0 44 -1.5 55.5t-9.5 15.5q-9 4 -16.5 0t-9.5 -14q-2 -11 0 -74q1 -24 2 -30t4 -9zM1007 1032q12 -10 23 1q6 6 6 11q0 6 -12 37.5t-23 55.5q-14 28 -31 13
q-6 -5 -5.5 -13t9.5 -28q10 -23 19 -48t14 -29zM231 1129q6 -7 15 -6t13 9q2 4 2 59v56l-6 5q-11 10 -21 3q-6 -5 -7.5 -15.5t-1.5 -52.5q1 -40 1.5 -47.5t4.5 -10.5zM926 1209q10 -6 19 3q10 8 4 20q-7 13 -33.5 49t-31.5 39q-9 4 -17.5 -1t-8.5 -14q0 -7 15.5 -27.5
t31 -43.5t21.5 -25zM233 1324q4 -3 11 -2t12 5l5 5v57l-1 57l-6 5q-12 10 -23 -1l-6 -6v-54q0 -42 1 -52t7 -14zM799 1363q11 -6 21 2q6 5 6 12q0 5 -3 9t-15 16q-18 18 -41.5 38t-28.5 21t-11.5 -2.5t-8.5 -8.5q-3 -7 0.5 -13.5t17.5 -18.5q18 -15 37.5 -33t25.5 -22z
M648 1486q9 -4 17 3q10 8 5 22q-2 5 -64 44q-28 18 -35 18q-11 0 -15.5 -9.5t1.5 -18.5q4 -5 25 -17.5t41.5 -26t24.5 -15.5zM230 1525q5 -5 12.5 -5t12.5 5q4 4 4.5 11t1.5 45q0 50 -1 57q-1 6 -6 11t-10 5q-8 0 -13 -4.5t-6 -11.5v-56v-52zM459 1603q19 -13 26 -13
q15 0 17 13q2 8 -2.5 13.5t-21.5 17.5q-23 14 -30 13t-11 -6.5t-3 -12t5 -10.5t20 -15zM230 1723q11 -10 22 -2q7 5 8 16.5t0 52.5l-1 51l-6 6q-6 5 -11.5 5t-11 -5t-6.5 -11q-1 -7 -1 -57l1 -51zM228 1923l-5 6v39v40l5 6q6 8 15 7t14 -10q2 -4 2 -45q0 -30 -0.5 -35.5
t-4.5 -9.5q-5 -5 -13 -5t-13 7v0z" />
</svg>
