<?xml version="1.0" standalone="no"?>
<!DOCTYPE svg PUBLIC "-//W3C//DTD SVG 1.1//EN" "http://www.w3.org/Graphics/SVG/1.1/DTD/svg11.dtd" >
<svg xmlns="http://www.w3.org/2000/svg" xmlns:xlink="http://www.w3.org/1999/xlink" version="1.1" viewBox="-10 0 1239 2048">
   <path fill="currentColor"
d="M582 415q21 -1 57 -1q27 0 32.5 0.5t8.5 4.5q6 5 6 12.5t-5 12.5q-4 3 -11.5 4t-45.5 2q-52 1 -59 -1q-10 -3 -13 -12t5 -16q3 -4 7 -5t18 -1zM364 418q6 -3 59 -3h54l5 5q6 6 5.5 13.5t-6.5 12.5l-6 5h-56h-55l-6 -6q-6 -8 -4.5 -15.5t10.5 -11.5zM166 419q4 -2 59 -2
h54l5 5q12 12 0 25l-5 5l-56 1h-56l-6 -6q-7 -6 -5.5 -15t10.5 -13zM756 426q5 -3 12 -2.5t25 6.5q20 7 44 18.5t31 19.5q6 5 7 7t0 7q-1 6 -6.5 10.5t-11 4.5t-30 -12.5t-43.5 -19.5q-23 -7 -27 -9.5t-6 -7.5q-4 -7 -1.5 -13t6.5 -9zM924 530q11 -5 22 7q14 16 32.5 50
t18.5 45q0 12 -11 16t-19 -4q-5 -5 -5 -7q0 -3 -12 -25.5t-19 -33.5q-11 -16 -15 -24q-3 -6 -3.5 -8t2.5 -7q3 -7 9 -9zM996 712q8 -4 15.5 -1t10.5 11q5 18 7 77l2 34l-6 5q-12 12 -24 1q-4 -3 -5 -7.5t-2 -24.5q-2 -26 -4 -54q-2 -23 -1 -30.5t7 -10.5zM1004 911
q12 -8 22 2q4 3 5 7.5t2 19.5q1 23 1 57q0 25 -0.5 30.5t-4.5 9.5q-5 5 -13 5t-13 -6q-3 -4 -4 -11.5t-2 -46.5q-1 -42 0 -52.5t7 -14.5zM1006 1112q12 -12 24 0q4 4 5 9t2 30q1 34 1 55q0 16 -1 20t-4 8q-5 6 -12.5 6.5t-12.5 -5.5q-4 -3 -5 -8.5t-2 -27.5q-1 -32 -1 -57
q0 -18 0.5 -22t5.5 -8zM1010 1310q6 -6 10 -6q5 0 10.5 3.5t7.5 8.5t2 59l1 54l-6 5q-5 4 -11.5 4.5t-11.5 -3.5t-6.5 -17t-1.5 -53v-49zM1014 1506q-4 4 -5.5 10t-0.5 58l1 53l6 5q5 5 12 5t12 -5l5 -5v-53q0 -53 -2 -59q-3 -9 -12 -11.5t-16 2.5v0z" />
</svg>
