<?xml version="1.0" standalone="no"?>
<!DOCTYPE svg PUBLIC "-//W3C//DTD SVG 1.1//EN" "http://www.w3.org/Graphics/SVG/1.1/DTD/svg11.dtd" >
<svg xmlns="http://www.w3.org/2000/svg" xmlns:xlink="http://www.w3.org/1999/xlink" version="1.1" viewBox="-10 0 1239 2048">
   <path fill="currentColor"
d="M77 420q9 -9 20 -5q5 2 8.5 14t9.5 51q6 36 7 45t-1 13q-3 5 -9 8t-11 1q-8 -3 -11 -13t-10 -50q-9 -51 -9 -55t6 -9zM644 417q11 -6 20 2q4 3 5 6t1 10q0 15 -3 57.5t-5 46.5q-1 5 -6.5 8.5t-12.5 1.5t-11 -7q-3 -4 -3 -11.5t3 -46.5q3 -53 5 -58.5t7 -8.5zM1120 417
q7 -5 17.5 0t10.5 13t-6 47.5t-8 42.5q-5 9 -15.5 8.5t-15.5 -9.5q-2 -4 -1.5 -11.5t4.5 -36.5q5 -34 7 -42.5t7 -11.5zM1095 597q9 -6 18 -1t9 16q0 7 -7 54.5t-9 51.5q-2 6 -9 9t-12 0t-9 -8q-3 -4 -2.5 -11t5.5 -46q8 -52 9 -56.5t7 -8.5zM114 614q5 -3 7 -3q4 0 9 2.5
t7 5.5q3 5 12 58q7 44 6.5 52.5t-9.5 14.5q-6 3 -13 0.5t-9 -7t-11 -56.5q-7 -43 -7 -53t8 -14zM631 618q3 -3 8.5 -3t9.5 2q7 4 7.5 14.5t-2 53t-5 52t-10.5 12.5q-6 3 -12.5 -0.5t-9.5 -10.5q-2 -4 2 -58q3 -40 4.5 -49t7.5 -13zM1066 796.5q5 -4.5 12 -3.5q6 1 11 6t5 10
q0 4 -7 56l-7.5 45t-5.5 12q-6 7 -16 4.5t-12 -11.5q-1 -3 4.5 -46.5t8.5 -59.5q2 -8 7 -12.5zM144 816q10 -11 22 -2q5 4 7.5 13.5t9.5 53.5q6 34 6.5 41.5t-1.5 12.5q-4 8 -12 9t-14 -5q-5 -4 -7 -12t-8 -46q-9 -52 -9 -55.5t6 -9.5zM615 822q6 -8 16 -5.5t13 12.5
q1 5 -0.5 22.5t-4.5 31.5q-3 18 -10 38t-10 23q-6 5 -13 4.5t-12 -6.5q-4 -5 -3.5 -10.5t7.5 -30.5q7 -24 9.5 -48.5t7.5 -30.5zM1040 994q9 -4 17 1q5 4 6.5 6.5t1.5 9.5q0 9 -7 56.5t-9 50.5q-2 4 -9 7q-12 5 -21 -7q-3 -4 -2.5 -11.5t6.5 -48.5q8 -54 10.5 -58t6.5 -6z
M554.5 1009q3.5 -3 11 -3t13 6t5.5 10q0 6 -26 46t-37 50q-8 8 -18.5 3.5t-10.5 -15.5q0 -7 16 -28.5t29.5 -43.5t17 -25zM182 1011q6 -3 7 -3t7 2q7 3 9 7q2 5 10.5 57.5t7.5 55.5q-4 11 -14.5 12.5t-16.5 -7.5q-3 -5 -12 -58q-7 -44 -7 -53t9 -13zM435 1164q6 -3 16 2
q4 2 6 7.5t1 10.5t-25.5 27.5t-49.5 41.5q-12 8 -18 8.5t-12 -5.5q-9 -8 -5 -19q1 -3 26 -23t40 -33.5t21 -16.5zM1007 1194q8 -4 15 -2t10 9t-2 25q-8 31 -19 59t-17 32q-11 9 -22 -2q-6 -5 -6 -9.5t10.5 -31.5t14.5 -39q7 -27 9.5 -33t6.5 -8zM212 1211q8 -6 17 -2.5
t11 13.5q2 7 7.5 38.5t6 32.5t13.5 -6q9 -5 11.5 -5t8.5 2q12 6 10 20q-1 5 -7.5 10t-23.5 14q-11 6 -16 10q-6 4 -13 2.5t-12 -7.5q-2 -4 -11 -56.5t-8 -56.5q1 -6 6 -9zM925 1374q10 -6 20 4q6 6 5 12.5t-9 17.5q-10 14 -38.5 42.5t-33.5 29.5q-10 2 -17 -5.5t-4 -16.5
q2 -6 19.5 -22t35.5 -38t22 -24zM243.5 1412q5.5 -6 12.5 -6q12 0 16 8q2 3 11 57q7 40 7.5 47.5t-2.5 11.5q-9 12 -19 9q-8 -3 -11.5 -13t-10.5 -51q-9 -52 -9 -54.5t5.5 -8.5zM753 1516q27 -14 28 -14q4 0 9 3.5t7 8.5q5 10 -2 19q-5 6 -51 27t-54 21q-4 0 -9.5 -5
t-6.5 -9q-1 -6 2 -11.5t8 -8.5q7 -3 24.5 -10t44.5 -21zM570 1580q17 -4 24.5 -4t12.5 4q5 5 5 12t-5 12t-32 11q-61 12 -80 12q-11 0 -15.5 -10.5t3.5 -18.5q5 -5 37.5 -10t49.5 -8zM290 1598q-9 4 -11.5 13.5t4.5 16.5q4 4 18 5.5t57 1.5l44 1l5 -6q6 -5 6 -12t-5 -12
q-4 -3 -11 -4t-43 -2q-49 -1 -55 -2t-9 0v0z" />
</svg>
