<?xml version="1.0" standalone="no"?>
<!DOCTYPE svg PUBLIC "-//W3C//DTD SVG 1.1//EN" "http://www.w3.org/Graphics/SVG/1.1/DTD/svg11.dtd" >
<svg xmlns="http://www.w3.org/2000/svg" xmlns:xlink="http://www.w3.org/1999/xlink" version="1.1" viewBox="-10 0 1239 2048">
   <path fill="currentColor"
d="M74 419l5 -5h56h55l6 6q11 11 1 23l-5 5l-54 1q-43 1 -53.5 -0.5t-13.5 -7.5q-7 -14 3 -22zM273 417q5 -3 60 -3h54l6 6q12 12 0 24q-4 4 -7.5 4.5t-14.5 0.5h-16l-1 47q0 35 -0.5 41.5t-4.5 10.5q-5 5 -12.5 5t-12.5 -5l-5 -6v-46v-47h-20q-20 0 -24 -2q-9 -4 -10 -15
t8 -15zM470 417q5 -3 60 -3l56 1l4 5q11 12 -1 24l-5 5h-54q-45 0 -55 -1.5t-13 -9.5q-2 -6 0.5 -12t7.5 -9zM668 418q7 -3 46 4q56 9 67 16q9 6 9 17q0 3 -6 8.5t-10 6.5q-5 0 -32 -6t-49 -10q-19 -2 -25 -5t-9 -9t0.5 -13t8.5 -9zM854.5 473q6.5 -4 10 -4t23.5 11t38 23
q27 18 34 26.5t3 17.5q-2 5 -9 8.5t-11 2.5t-20 -13q-27 -20 -58 -37q-12 -6 -16 -11t-2 -13q1 -7 7.5 -11zM1007 595q11 -4 19 2q4 4 18.5 26.5t23.5 40.5q10 22 11.5 30.5t-4.5 14.5q-10 9 -21 3q-4 -2 -17.5 -29.5t-26.5 -47.5t-13 -23q0 -12 10 -17zM324 626q5 -6 12 -6
q14 0 16.5 9.5t2.5 60.5v55l-5 5q-5 6 -12.5 6t-12.5 -6l-5 -5l-1 -57v-57zM1079 778q7 -7 16.5 -4.5t12.5 12.5q4 12 8 54t3 51q-2 10 -12.5 13.5t-17.5 -4.5q-4 -3 -5 -8t-2 -25q-2 -29 -5 -49q-3 -21 -2.5 -28t4.5 -12zM325 828q4 -5 11.5 -5t12.5 4q3 2 4 6t2 18
q2 30 1.5 60.5t-2.5 35.5q-5 13 -18 11t-16 -16q-1 -7 -1 -58q1 -38 1.5 -45t4.5 -11zM1094.5 971l6.5 -3l7 2q8 3 10 13t2 55v54l-6 5q-11 12 -23 1l-6 -4v-56q-1 -56 1 -60t8.5 -7zM326 1031q5 -5 12.5 -5t12.5 5l5 5v57v58l-5 5q-5 5 -12.5 5t-12.5 -5l-5 -6v-57v-57z
M1091 1172q5 -5 12 -5t12 5q3 3 4 8.5t2 28.5q1 33 1 56l-1 23l-7 6q-9 8 -19 4q-8 -4 -9.5 -14.5t-1.5 -54.5l1 -53zM327 1233q5 -5 12.5 -4.5t12.5 5.5l5 5l-1 48q-1 48 -3 58q-3 14 -12.5 17.5t-17.5 -4.5q-5 -5 -5.5 -7.5t0.5 -11.5q1 -12 2 -53q1 -35 2 -42t5 -11z
M1091 1368q11 -9 22 -1q6 4 7.5 16t0.5 53l-2 51l-6 5q-8 7 -19 2q-7 -4 -8.5 -15.5t-1.5 -53.5l1 -52zM300 1432q8 -8 18.5 -3.5t10.5 15.5q0 9 -13.5 40.5t-26.5 51.5q-9 12 -15 15.5t-14 -0.5q-11 -4 -11 -16q0 -4 12 -22q19 -32 31 -67q4 -10 8 -14zM1095 1561
q7 -3 14.5 0.5t9.5 9.5q1 5 1 33q-1 21 -2 25t-5 8q-12 10 -23 -1l-6 -6v-28q0 -23 2 -30.5t9 -10.5zM179 1589q-25 14 -68 17q-16 1 -20.5 2t-7.5 5q-5 5 -5 12t4 12q4 3 7.5 4t15.5 1q46 0 88 -19q9 -5 13 -9.5t4 -11.5q0 -10 -10 -14t-21 1v0zM915 1638z" />
</svg>
