<svg xmlns="http://www.w3.org/2000/svg" xmlns:xlink="http://www.w3.org/1999/xlink" version="1.1" viewBox="-30 0 985 2048">
   <path fill="none" d="M313 1734q0 -32 23 -55t55 -23q34 0 57 23t23 55q0 34 -23 57t-57 23q-32 0 -55 -23t-23 -57zM543 1734q0 -32 23 -55t55 -23q34 0 56.5 23t22.5 55q0 34 -22.5 57t-56.5 23q-32 0 -55 -23t-23 -57zM428 1943q0 -34 23 -57t55 -23q34 0 57 23t23 57t-24 57t-56 23
t-55 -24t-23 -56zM758 1736q0 -34 23 -57t55 -23q34 0 56.5 23t22.5 57q0 32 -22.5 55t-56.5 23q-32 0 -55 -23t-23 -55zM756 1943q0 -34 24 -57t56 -23q33 0 56 24t23 56q0 34 -23.5 57t-55.5 23q-34 0 -57 -23t-23 -57z" stroke="black" stroke-width="40" stroke-location="inside"></path>
</svg>