<svg viewBox="0 0 334 400" xmlns="http://www.w3.org/2000/svg" xmlns:bx="https://boxy-svg.com"><path d="M35.802 10.278 C 33.720 11.183,32.287 13.647,32.287 16.319 C 32.287 18.884,37.885 26.887,40.578 28.173 C 43.062 29.359,46.094 28.508,48.170 26.040 C 50.421 23.365,49.914 20.704,46.140 15.386 C 42.158 9.774,39.725 8.572,35.802 10.278 M283.525 10.249 C 280.437 11.638,280.071 12.809,279.144 24.262 C 278.676 30.053,278.050 37.132,277.755 39.993 C 277.297 44.422,277.353 45.480,278.129 47.115 C 279.143 49.252,281.369 50.658,283.733 50.655 C 285.632 50.652,288.612 48.915,289.471 47.308 C 290.165 46.013,292.118 26.584,292.370 18.481 C 292.526 13.460,292.505 13.367,290.831 11.688 C 288.816 9.668,286.033 9.120,283.525 10.249 M61.600 49.017 C 60.801 49.645,59.856 51.131,59.500 52.319 C 58.608 55.296,58.908 55.821,72.374 74.813 C 84.509 91.927,85.469 92.919,89.138 92.113 C 93.071 91.249,95.606 86.914,94.105 83.619 C 92.604 80.324,70.005 49.104,68.686 48.503 C 66.489 47.502,63.225 47.738,61.600 49.017 M275.168 77.318 C 274.193 77.930,273.153 78.882,272.859 79.434 C 272.565 79.987,271.531 84.572,270.562 89.623 C 269.593 94.675,267.688 103.411,266.330 109.037 C 264.971 114.663,263.860 120.003,263.860 120.903 C 263.860 124.548,266.273 126.889,270.047 126.908 C 272.973 126.922,275.032 125.639,276.027 123.181 C 278.104 118.049,285.252 83.628,284.732 81.259 C 283.872 77.344,278.593 75.169,275.168 77.318 M106.752 112.428 C 104.866 113.912,103.884 116.468,104.344 118.700 C 104.565 119.774,109.665 127.468,116.803 137.497 C 127.938 153.139,129.067 154.537,131.152 155.261 C 133.207 155.975,133.613 155.949,135.579 154.983 C 138.358 153.616,139.964 150.925,139.495 148.421 C 139.224 146.980,124.392 125.299,115.611 113.509 C 113.847 111.140,109.122 110.563,106.752 112.428 M98.391 128.022 C 94.789 129.132,83.548 139.883,76.552 148.908 C 67.165 161.019,66.180 163.708,69.806 167.334 C 71.382 168.910,72.106 169.227,74.135 169.227 C 77.366 169.227,78.369 168.428,82.653 162.438 C 88.314 154.526,94.160 147.951,100.218 142.687 C 106.660 137.090,107.769 135.031,106.161 131.660 C 104.695 128.586,101.466 127.074,98.391 128.022 M254.611 152.475 C 253.229 153.318,252.336 154.816,250.215 159.849 C 246.161 169.473,242.543 177.019,238.543 184.196 C 235.735 189.233,234.913 191.221,234.913 192.974 C 234.913 195.764,236.432 197.853,239.099 198.734 C 241.639 199.572,243.889 199.033,245.617 197.172 C 248.385 194.191,258.194 174.832,262.796 163.264 C 264.098 159.992,264.448 158.382,264.225 156.702 C 263.621 152.165,258.681 149.993,254.611 152.475 M152.091 175.662 C 150.480 176.790,149.187 179.327,149.187 181.359 C 149.187 183.053,149.971 184.242,165.511 206.102 C 171.026 213.860,174.282 217.940,175.437 218.537 C 180.005 220.899,185.756 216.186,184.332 211.249 C 183.743 209.209,162.600 179.118,159.988 176.602 C 158.464 175.134,157.660 174.793,155.720 174.793 C 154.406 174.793,152.773 175.184,152.091 175.662 M53.117 191.955 C 51.296 193.099,50.522 194.456,48.139 200.678 C 43.232 213.493,37.853 231.256,37.853 234.644 C 37.853 237.551,39.407 239.685,42.054 240.416 C 44.376 241.057,47.302 240.364,48.674 238.848 C 49.207 238.259,51.112 232.922,52.909 226.987 C 54.706 221.052,57.461 212.830,59.031 208.715 C 62.758 198.953,62.963 198.223,62.573 196.145 C 61.810 192.079,56.598 189.769,53.117 191.955 M213.426 218.773 C 212.232 219.693,209.391 222.058,207.113 224.029 C 204.835 226.000,201.409 228.525,199.501 229.641 C 194.687 232.457,193.978 233.360,194.123 236.500 C 194.189 237.923,194.313 240.856,194.399 243.017 C 194.578 247.524,193.107 245.055,208.623 266.895 C 215.218 276.177,219.097 281.137,220.315 281.846 C 222.684 283.223,225.603 282.720,227.760 280.562 C 229.054 279.268,229.347 278.493,229.347 276.362 C 229.347 273.854,228.872 273.078,217.677 257.290 L 206.008 240.832 207.797 239.751 C 211.076 237.769,218.459 231.756,221.136 228.888 C 223.504 226.350,223.780 225.784,223.780 223.470 C 223.780 221.273,223.496 220.602,221.887 218.993 C 219.348 216.453,216.532 216.380,213.426 218.773 M32.190 267.040 C 31.371 267.548,30.428 268.564,30.093 269.298 C 29.224 271.206,27.001 285.212,25.308 299.451 C 23.917 311.149,23.895 311.756,24.806 313.675 C 26.696 317.659,31.462 318.528,34.696 315.478 C 36.342 313.925,36.684 313.163,37.002 310.329 C 38.100 300.540,40.247 284.483,41.231 278.691 C 42.492 271.278,42.211 269.195,39.686 267.209 C 37.927 265.825,34.281 265.742,32.190 267.040 M241.259 303.606 C 239.034 305.831,238.719 308.715,240.399 311.470 C 242.358 314.683,262.316 342.636,263.720 344.132 C 265.466 345.994,267.713 346.531,270.251 345.694 C 274.378 344.331,275.778 339.471,273.155 335.609 C 266.311 325.529,250.129 303.187,249.204 302.539 C 248.556 302.085,246.929 301.713,245.589 301.713 C 243.560 301.713,242.835 302.030,241.259 303.606 M23.850 344.719 C 23.037 345.406,22.097 346.516,21.761 347.186 C 21.378 347.952,21.015 355.534,20.784 367.610 L 20.418 386.816 22.400 388.798 C 24.068 390.466,24.768 390.780,26.819 390.780 C 28.159 390.780,29.814 390.389,30.496 389.911 C 33.102 388.086,33.228 387.150,33.637 366.682 L 34.024 347.316 32.098 345.390 C 30.489 343.781,29.772 343.464,27.750 343.466 C 26.053 343.468,24.886 343.843,23.850 344.719 M286.349 367.066 C 284.774 368.641,284.457 369.365,284.461 371.380 C 284.466 373.539,285.041 374.616,289.770 381.317 C 292.687 385.450,295.628 389.264,296.306 389.793 C 298.832 391.765,303.929 390.710,305.373 387.916 C 307.189 384.404,306.585 382.673,300.585 374.196 C 297.515 369.858,294.525 366.054,293.941 365.741 C 293.358 365.429,291.836 365.173,290.561 365.173 C 288.666 365.173,287.896 365.519,286.349 367.066 " stroke="none" fill-rule="evenodd"></path></svg>