<svg viewBox="0 0 420 450" xmlns="http://www.w3.org/2000/svg" xmlns:bx="https://boxy-svg.com"><path d="M41.899 15.024 C 39.631 16.302,38.308 19.704,39.183 22.006 C 40.301 24.947,42.541 25.900,48.334 25.900 C 53.121 25.900,53.823 25.722,55.318 24.131 C 57.501 21.808,57.554 18.043,55.434 15.923 C 54.173 14.662,52.952 14.340,48.819 14.178 C 45.308 14.041,43.181 14.301,41.899 15.024 M80.050 14.694 C 76.182 16.255,75.195 21.104,78.145 24.055 L 79.991 25.900 97.777 25.900 L 115.564 25.900 117.282 24.182 C 118.333 23.131,119.000 21.658,119.000 20.389 C 119.000 14.389,117.672 13.990,97.860 14.044 C 88.889 14.069,80.875 14.361,80.050 14.694 M141.234 15.096 C 137.905 16.902,137.488 21.680,140.427 24.325 C 142.146 25.871,142.507 25.900,159.894 25.900 L 177.609 25.900 179.455 24.055 C 182.440 21.069,181.780 16.816,178.021 14.814 C 175.565 13.506,143.714 13.750,141.234 15.096 M202.246 18.146 C 199.622 20.770,199.594 23.301,202.159 25.867 C 203.705 27.413,205.219 28.005,209.334 28.674 C 215.648 29.701,227.951 32.456,232.750 33.918 C 237.351 35.320,237.534 35.302,240.046 33.188 C 243.433 30.338,242.844 25.570,238.854 23.551 C 235.009 21.605,210.458 16.100,205.624 16.100 C 204.891 16.100,203.372 17.021,202.246 18.146 M262.055 35.819 C 259.342 37.132,258.080 41.993,259.875 44.217 C 260.356 44.813,264.373 47.687,268.800 50.605 C 273.227 53.522,279.212 57.975,282.100 60.501 C 286.465 64.320,287.772 65.095,289.853 65.097 C 293.938 65.102,296.332 61.614,295.199 57.307 C 294.112 53.173,269.292 34.902,264.961 35.047 C 264.185 35.073,262.877 35.421,262.055 35.819 M306.895 77.999 C 305.600 78.559,304.365 79.836,303.800 81.199 C 302.889 83.400,303.025 83.783,308.510 94.408 C 311.616 100.426,314.854 107.296,315.704 109.673 C 317.530 114.779,319.593 116.965,322.669 117.052 C 325.748 117.140,328.602 114.254,328.513 111.142 C 328.434 108.356,322.040 93.240,317.821 85.867 C 313.279 77.929,310.943 76.247,306.895 77.999 M327.600 135.989 C 324.558 137.557,323.895 139.984,324.830 146.140 C 325.281 149.116,325.873 156.665,326.146 162.917 C 326.608 173.548,326.747 174.397,328.292 176.042 C 330.590 178.487,334.439 178.461,336.753 175.984 C 338.395 174.226,338.445 173.858,338.300 164.609 C 338.218 159.351,337.673 151.442,337.091 147.031 C 336.223 140.465,335.743 138.730,334.441 137.449 C 332.371 135.415,329.785 134.863,327.600 135.989 M327.918 199.118 L 326.200 200.836 326.200 218.422 L 326.200 236.008 328.246 238.054 C 329.480 239.287,331.030 240.100,332.150 240.100 C 333.270 240.100,334.820 239.287,336.054 238.054 L 338.100 236.008 338.100 218.422 L 338.100 200.836 336.382 199.118 C 334.044 196.781,330.256 196.781,327.918 199.118 M329.950 259.694 C 326.399 261.127,326.200 262.242,326.200 280.700 C 326.200 299.472,326.338 300.179,330.263 301.547 C 332.677 302.389,336.213 301.118,337.345 299.003 C 337.826 298.103,338.100 291.343,338.100 280.342 L 338.100 263.092 336.054 261.046 C 333.952 258.945,332.567 258.638,329.950 259.694 M328.939 322.197 C 326.430 324.124,326.200 325.868,326.200 343.008 L 326.200 359.908 328.246 361.954 C 330.882 364.590,333.748 364.661,336.255 362.155 L 338.100 360.309 338.100 342.523 L 338.100 324.736 336.382 323.018 C 334.493 321.130,330.853 320.728,328.939 322.197 M329.714 383.782 C 326.486 385.447,326.221 387.006,326.210 404.460 C 326.199 422.527,326.521 424.143,330.398 425.495 C 332.845 426.347,334.285 425.990,336.525 423.974 C 338.081 422.573,338.100 422.334,338.100 404.600 C 338.100 386.881,338.079 386.625,336.525 385.174 C 334.428 383.216,331.838 382.687,329.714 383.782 M26.218 416.118 C 23.994 418.343,23.982 421.419,26.188 423.986 L 27.876 425.950 44.563 426.178 C 55.451 426.327,62.161 426.135,63.871 425.626 C 68.467 424.258,69.828 419.128,66.482 415.782 C 65.175 414.475,64.087 414.400,46.518 414.400 L 27.936 414.400 26.218 416.118 M90.526 415.975 C 88.413 418.323,88.107 419.821,89.203 422.445 C 90.715 426.065,92.954 426.429,112.120 426.172 C 128.552 425.952,128.705 425.936,130.495 424.253 C 132.902 421.990,132.939 418.475,130.582 416.118 L 128.864 414.400 110.404 414.400 C 92.147 414.400,91.928 414.417,90.526 415.975 M154.318 416.118 C 152.094 418.343,152.082 421.419,154.288 423.986 L 155.976 425.950 172.663 426.172 C 191.961 426.429,194.183 426.069,195.700 422.439 C 196.438 420.673,196.506 419.581,195.968 418.166 C 194.575 414.503,194.249 414.446,174.443 414.422 L 156.036 414.400 154.318 416.118 M218.922 415.377 C 216.768 417.011,216.048 420.282,217.306 422.715 C 219.030 426.049,221.524 426.423,240.337 426.172 L 257.024 425.950 258.712 423.986 C 260.918 421.419,260.906 418.343,258.682 416.118 L 256.964 414.400 238.557 414.422 C 224.338 414.439,219.871 414.657,218.922 415.377 M282.222 416.020 C 280.053 418.328,280.182 422.069,282.505 424.253 C 284.295 425.936,284.448 425.952,300.880 426.172 C 311.134 426.310,318.404 426.113,319.952 425.656 C 324.284 424.377,325.664 419.305,322.575 416.017 C 321.062 414.406,320.984 414.400,302.400 414.400 C 283.804 414.400,283.739 414.405,282.222 416.020 M346.518 415.782 C 343.373 418.927,344.213 423.608,348.223 425.284 C 351.713 426.742,378.383 426.744,381.871 425.286 C 385.985 423.567,386.806 419.006,383.582 415.782 C 382.281 414.481,381.193 414.400,365.050 414.400 C 348.907 414.400,347.819 414.481,346.518 415.782 " stroke="none" fill-rule="evenodd" fill="black"></path></svg>