<svg viewBox="0 0 400 450" xmlns="http://www.w3.org/2000/svg" xmlns:bx="https://boxy-svg.com"><path d="M80.571 5.011 C 76.808 7.055,76.889 13.046,80.706 15.020 C 83.124 16.271,103.933 16.437,106.210 15.224 C 108.421 14.047,109.291 12.571,109.291 10.000 C 109.291 7.429,108.421 5.953,106.210 4.776 C 103.968 3.581,82.845 3.775,80.571 5.011 M132.571 4.966 C 130.244 6.289,129.176 9.349,130.107 12.020 C 131.236 15.260,133.542 16.000,142.511 16.000 C 150.958 16.000,155.638 16.631,162.844 18.742 C 167.963 20.241,169.786 19.811,172.213 16.533 C 173.290 15.077,173.428 14.324,172.934 12.600 C 172.060 9.554,169.690 8.089,162.581 6.204 C 154.545 4.073,135.519 3.288,132.571 4.966 M191.925 24.306 C 189.792 25.498,188.371 28.682,189.034 30.784 C 189.302 31.636,191.750 34.705,194.473 37.604 C 199.845 43.321,203.456 48.305,206.295 53.918 C 208.764 58.800,210.754 60.667,213.488 60.667 C 217.930 60.667,220.534 56.903,219.054 52.622 C 216.893 46.368,209.312 35.516,202.213 28.517 C 197.265 23.638,194.873 22.658,191.925 24.306 M220.667 80.196 C 219.750 80.660,218.590 81.895,218.088 82.941 C 217.265 84.657,217.483 86.253,220.312 99.255 C 224.716 119.493,224.915 120.132,227.242 121.506 C 229.938 123.099,231.544 122.964,233.949 120.941 C 235.574 119.574,236.000 118.691,236.000 116.693 C 236.000 114.467,231.406 92.355,229.389 84.869 C 228.137 80.224,224.482 78.266,220.667 80.196 M232.718 143.726 C 230.017 145.999,230.041 146.743,233.463 165.961 C 236.017 180.306,236.416 181.825,238.078 183.500 C 240.561 186.002,243.476 185.960,246.051 183.385 C 247.123 182.313,248.000 180.722,248.000 179.850 C 248.000 178.977,246.662 170.929,245.027 161.965 C 242.165 146.272,241.979 145.599,240.017 143.833 C 237.469 141.541,235.351 141.510,232.718 143.726 M243.282 207.282 C 242.210 208.354,241.333 209.677,241.333 210.223 C 241.333 210.769,242.541 218.667,244.016 227.774 C 245.914 239.483,247.056 244.821,247.918 246.000 C 250.464 249.483,254.900 249.408,257.558 245.839 L 258.919 244.011 256.416 228.505 C 253.479 210.309,253.022 208.355,251.298 206.632 C 249.284 204.618,245.652 204.913,243.282 207.282 M216.538 215.219 C 208.218 218.032,200.629 220.933,199.675 221.667 C 198.574 222.513,197.800 223.902,197.555 225.469 C 197.222 227.598,197.449 228.218,199.200 229.969 C 200.317 231.086,201.936 232.000,202.798 232.000 C 205.628 232.000,236.125 221.448,237.775 219.898 C 241.336 216.552,238.708 209.937,233.864 210.053 C 232.655 210.082,224.859 212.407,216.538 215.219 M162.667 234.834 C 154.146 239.094,144.012 245.482,141.451 248.208 C 140.664 249.045,139.836 250.653,139.611 251.781 C 139.279 253.441,139.574 254.248,141.163 256.026 C 144.192 259.417,146.002 259.062,154.429 253.424 C 158.373 250.785,164.930 247.001,168.998 245.015 C 173.067 243.029,176.967 240.773,177.665 240.002 C 179.612 237.850,179.343 234.180,177.096 232.247 C 174.246 229.795,171.904 230.215,162.667 234.834 M254.500 269.387 C 253.858 269.760,252.886 270.932,252.338 271.990 C 251.425 273.756,251.563 275.323,254.009 291.061 C 255.476 300.491,257.034 308.685,257.472 309.270 C 258.953 311.248,260.248 312.000,262.171 312.000 C 264.790 312.000,266.466 310.988,267.654 308.691 C 268.572 306.916,268.461 305.463,266.326 291.211 C 263.609 273.081,263.125 271.063,261.165 269.691 C 259.504 268.527,256.232 268.378,254.500 269.387 M119.899 271.270 C 118.026 272.743,112.220 283.573,109.698 290.296 C 106.911 297.728,105.243 305.011,105.922 306.785 C 107.439 310.754,112.702 312.261,115.450 309.513 C 116.154 308.809,117.610 305.200,118.684 301.494 C 120.589 294.922,123.855 287.400,128.011 280.012 C 130.280 275.978,130.241 274.078,127.834 271.500 C 126.059 269.598,122.168 269.485,119.899 271.270 M103.539 331.340 C 102.735 331.663,101.600 332.657,101.016 333.549 C 100.033 335.049,94.022 365.064,94.007 368.551 C 94.003 369.404,94.877 370.979,95.949 372.051 C 98.525 374.627,101.441 374.669,103.914 372.167 C 105.566 370.495,106.005 368.821,108.894 353.180 C 112.293 334.769,112.293 334.710,108.914 332.052 C 107.025 330.566,105.847 330.410,103.539 331.340 M262.970 333.636 C 260.818 335.788,260.850 336.765,263.683 355.822 C 265.856 370.441,266.166 371.767,267.808 373.480 C 270.584 376.378,275.100 375.675,276.973 372.053 C 277.937 370.188,277.844 368.919,275.640 353.857 C 274.337 344.952,273.100 337.067,272.892 336.333 C 271.654 331.974,266.133 330.473,262.970 333.636 M91.552 394.305 C 90.390 394.811,89.149 395.774,88.795 396.446 C 87.950 398.047,86.000 407.591,86.000 410.123 C 86.000 412.670,89.207 416.000,91.659 416.000 C 95.847 416.000,97.268 413.849,98.970 404.926 C 100.029 399.378,100.039 398.676,99.085 396.831 C 98.476 395.653,97.157 394.503,95.921 394.072 C 94.755 393.666,93.771 393.345,93.734 393.359 C 93.697 393.374,92.715 393.799,91.552 394.305 M273.104 396.088 C 270.603 397.542,270.046 400.450,271.015 406.992 C 271.762 412.035,272.180 413.223,273.655 414.492 C 276.158 416.645,278.984 416.452,281.477 413.959 C 283.510 411.925,283.516 411.897,283.071 406.552 C 282.564 400.471,281.397 397.105,279.434 396.054 C 277.732 395.143,274.702 395.160,273.104 396.088 " stroke="none" fill-rule="evenodd"></path></svg>