<svg viewBox="0 0 400 420" xmlns="http://www.w3.org/2000/svg" xmlns:bx="https://boxy-svg.com"><path d="M16.051 5.726 C 13.148 8.169,13.148 11.831,16.051 14.274 L 18.102 16.000 38.741 16.000 C 56.351 16.000,59.614 15.847,60.974 14.956 C 63.161 13.523,64.122 10.548,63.226 7.980 C 61.900 4.175,60.809 4.000,38.418 4.000 L 18.102 4.000 16.051 5.726 M92.051 5.726 C 90.420 7.099,90.000 7.973,90.000 10.000 C 90.000 12.027,90.420 12.901,92.051 14.274 L 94.102 16.000 114.741 16.000 C 132.351 16.000,135.614 15.847,136.974 14.956 C 139.161 13.523,140.122 10.548,139.226 7.980 C 137.900 4.175,136.809 4.000,114.418 4.000 L 94.102 4.000 92.051 5.726 M168.051 5.726 C 166.420 7.099,166.000 7.973,166.000 10.000 C 166.000 12.027,166.420 12.901,168.051 14.274 L 170.102 16.000 190.741 16.000 C 208.351 16.000,211.614 15.847,212.974 14.956 C 215.161 13.523,216.122 10.548,215.226 7.980 C 213.900 4.175,212.809 4.000,190.418 4.000 L 170.102 4.000 168.051 5.726 M244.051 5.726 C 242.420 7.099,242.000 7.973,242.000 10.000 C 242.000 12.027,242.420 12.901,244.051 14.274 L 246.102 16.000 259.330 16.000 L 272.558 16.000 272.779 24.393 C 272.996 32.643,273.032 32.812,274.871 34.393 C 277.458 36.616,280.276 36.493,282.718 34.051 C 284.657 32.113,284.667 32.061,284.667 24.051 C 284.667 16.398,284.734 16.000,286.023 16.000 C 289.711 16.000,292.515 11.678,291.226 7.980 C 289.900 4.175,288.809 4.000,266.418 4.000 L 246.102 4.000 244.051 5.726 M320.051 5.726 C 318.420 7.099,318.000 7.973,318.000 10.000 C 318.000 12.027,318.420 12.901,320.051 14.274 L 322.102 16.000 339.000 16.000 L 355.898 16.000 357.949 14.274 C 359.580 12.901,360.000 12.027,360.000 10.000 C 360.000 7.973,359.580 7.099,357.949 5.726 L 355.898 4.000 339.000 4.000 L 322.102 4.000 320.051 5.726 M275.857 63.036 C 272.845 64.670,272.566 67.260,273.083 88.825 L 273.551 108.320 275.391 110.160 C 278.484 113.253,282.892 112.284,284.612 108.132 C 285.847 105.150,285.337 66.841,284.036 64.881 C 282.181 62.085,278.950 61.357,275.857 63.036 M276.469 139.037 C 275.444 139.608,274.319 140.827,273.969 141.747 C 273.093 144.053,273.157 180.337,274.043 183.530 C 275.727 189.592,284.329 189.032,285.544 182.780 C 285.734 181.801,285.717 172.186,285.506 161.414 C 285.140 142.782,285.053 141.751,283.727 140.246 C 281.935 138.213,278.868 137.702,276.469 139.037 M275.922 215.975 L 273.947 217.951 274.140 239.367 L 274.333 260.784 276.204 262.392 C 278.791 264.616,281.609 264.494,284.051 262.051 L 286.000 260.103 286.000 239.749 C 286.000 217.826,285.836 216.639,282.570 214.950 C 279.815 213.525,278.109 213.788,275.922 215.975 M277.190 291.036 C 274.150 292.686,273.864 295.332,274.396 316.883 L 274.875 336.311 276.720 338.156 C 279.818 341.253,284.224 340.287,285.945 336.132 C 287.181 333.150,286.670 294.841,285.369 292.881 C 283.514 290.085,280.283 289.357,277.190 291.036 M278.013 366.829 C 274.852 368.480,274.687 369.654,274.676 390.521 C 274.666 412.210,274.912 413.778,278.572 415.294 C 282.190 416.793,286.126 414.684,286.858 410.853 C 287.037 409.915,287.022 400.302,286.824 389.493 C 286.481 370.750,286.400 369.766,285.066 368.252 C 283.349 366.305,280.224 365.674,278.013 366.829 " stroke="none" fill="black" fill-rule="evenodd"></path></svg>