<svg viewBox="0 0 422 450" xmlns="http://www.w3.org/2000/svg" xmlns:bx="https://boxy-svg.com"><path d="M62.213 5.946 C 60.315 7.844,59.912 11.502,61.388 13.424 C 63.329 15.952,65.066 16.177,82.630 16.177 C 101.681 16.177,103.606 15.821,104.578 12.120 C 105.336 9.231,104.907 7.554,102.960 5.802 C 101.230 4.245,100.902 4.220,82.570 4.220 L 63.939 4.220 62.213 5.946 M128.436 5.803 C 125.417 8.519,125.907 13.308,129.389 15.109 C 132.367 16.649,165.080 16.682,168.046 15.148 C 171.462 13.381,172.030 8.792,169.184 5.946 L 167.457 4.220 148.826 4.220 C 130.495 4.220,130.167 4.245,128.436 5.803 M194.727 5.533 C 192.280 7.482,191.699 10.018,193.084 12.696 C 194.616 15.659,196.514 16.175,205.947 16.190 C 210.467 16.198,217.330 16.663,221.198 17.223 C 231.364 18.696,233.250 18.607,235.297 16.560 C 237.486 14.372,237.544 11.230,235.441 8.798 C 233.272 6.290,225.526 5.011,209.242 4.472 C 197.104 4.071,196.505 4.115,194.727 5.533 M259.358 16.161 C 255.722 19.021,256.765 24.224,261.367 26.183 C 262.871 26.823,267.583 28.791,271.838 30.555 C 276.094 32.319,282.026 35.164,285.021 36.877 C 292.004 40.871,292.786 41.090,295.344 39.767 C 299.440 37.649,300.148 33.351,296.896 30.350 C 292.466 26.261,267.518 14.770,263.072 14.770 C 262.002 14.770,260.331 15.396,259.358 16.161 M315.205 50.359 C 313.294 51.698,312.083 54.537,312.654 56.338 C 312.880 57.048,315.499 60.622,318.475 64.279 C 321.450 67.936,325.626 73.845,327.753 77.410 C 329.881 80.975,332.468 84.798,333.502 85.904 C 336.689 89.316,341.551 88.200,343.121 83.698 C 343.776 81.817,343.534 80.927,341.059 76.126 C 337.604 69.422,330.557 59.481,325.113 53.629 C 320.672 48.856,318.415 48.111,315.205 50.359 M346.253 107.618 C 343.571 108.698,342.388 111.963,343.269 115.854 C 344.623 121.832,346.012 133.837,346.026 139.683 C 346.044 147.057,346.963 149.680,349.970 150.936 C 352.627 152.046,354.787 151.505,356.852 149.213 C 358.054 147.878,358.138 146.809,357.814 136.999 C 357.481 126.922,356.107 116.567,354.402 111.290 C 353.962 109.929,352.837 108.567,351.643 107.949 C 349.377 106.777,348.478 106.722,346.253 107.618 M347.627 174.603 C 346.224 176.112,346.145 177.053,345.922 194.942 L 345.688 213.700 347.393 215.515 C 349.742 218.015,353.590 218.016,355.940 215.516 C 357.636 213.712,357.646 213.612,357.857 196.366 C 357.973 186.831,357.886 178.302,357.663 177.413 C 356.573 173.071,350.605 171.400,347.627 174.603 M74.817 214.338 C 73.994 214.478,72.674 215.287,71.883 216.137 C 70.511 217.610,70.433 218.666,70.213 238.895 L 69.982 260.108 71.687 261.929 C 74.034 264.436,77.880 264.439,80.233 261.936 L 81.938 260.122 82.120 239.605 C 82.257 224.193,82.082 218.663,81.417 217.380 C 80.432 215.479,77.112 213.949,74.817 214.338 M349.073 239.460 C 345.582 240.979,345.210 243.383,345.465 262.816 C 345.687 279.698,345.700 279.829,347.393 281.630 C 349.621 283.999,353.200 284.084,355.462 281.821 C 357.034 280.250,357.100 279.677,357.594 263.283 C 358.188 243.592,357.860 241.303,354.192 239.562 C 351.390 238.233,351.873 238.242,349.073 239.460 M72.604 290.947 C 72.113 291.145,71.242 292.212,70.670 293.319 C 69.131 296.296,69.134 335.172,70.674 337.371 C 73.014 340.712,78.958 340.495,80.828 337.000 C 81.322 336.077,81.587 328.253,81.587 314.559 L 81.587 293.535 79.959 292.006 C 78.404 290.546,74.868 290.037,72.604 290.947 M349.104 305.226 C 345.505 306.714,345.337 307.705,345.337 327.462 L 345.337 345.848 347.191 347.702 C 349.710 350.221,352.589 350.149,355.237 347.501 L 357.293 345.445 357.293 327.143 C 357.293 309.158,357.266 308.811,355.711 307.071 C 353.902 305.046,351.297 304.319,349.104 305.226 M70.983 368.250 L 69.278 370.064 69.052 389.526 C 68.798 411.428,69.123 413.822,72.547 415.262 C 75.306 416.422,77.562 415.949,79.597 413.785 C 81.217 412.062,81.237 411.831,81.455 392.932 C 81.576 382.421,81.482 372.792,81.247 371.533 C 80.305 366.502,74.402 364.614,70.983 368.250 M348.058 371.719 C 347.040 372.272,345.997 373.270,345.742 373.936 C 345.486 374.603,345.106 382.921,344.896 392.420 C 344.548 408.246,344.624 409.897,345.806 412.146 C 346.536 413.536,347.933 414.891,349.029 415.271 C 351.866 416.255,354.608 415.039,356.080 412.146 C 357.194 409.954,357.307 407.784,357.135 391.871 L 356.942 374.049 354.968 372.353 C 352.737 370.435,350.755 370.253,348.058 371.719 " stroke="none" fill-rule="evenodd"></path></svg>