<svg viewBox="0 0 356 400" xmlns="http://www.w3.org/2000/svg" xmlns:bx="https://boxy-svg.com"><path d="M117.574 6.440 C 112.714 6.776,111.892 6.996,110.899 8.224 C 109.291 10.214,109.436 13.129,111.227 14.812 L 112.687 16.184 129.472 16.069 C 147.830 15.943,148.484 15.826,149.209 12.523 C 149.657 10.484,148.343 7.483,146.724 6.848 C 145.246 6.268,124.292 5.974,117.574 6.440 M79.507 9.299 C 78.691 9.429,72.950 10.212,66.750 11.038 C 52.667 12.915,51.751 13.188,50.646 15.832 C 49.634 18.255,49.921 19.485,51.942 21.384 C 53.410 22.763,53.508 22.773,58.904 22.073 C 88.058 18.290,86.837 18.505,88.258 16.884 C 90.034 14.858,89.985 12.204,88.137 10.356 C 86.682 8.902,84.024 8.576,79.507 9.299 M171.150 10.356 C 170.169 11.337,169.693 12.478,169.693 13.851 C 169.693 17.536,170.870 18.220,180.077 19.880 C 184.645 20.704,191.606 22.175,195.545 23.149 C 199.484 24.123,203.356 24.912,204.149 24.901 C 206.085 24.876,207.540 23.682,208.303 21.490 C 209.114 19.167,207.836 16.473,205.470 15.516 C 201.576 13.941,177.297 8.900,173.605 8.900 C 173.056 8.900,171.951 9.555,171.150 10.356 M229.585 26.386 C 226.280 28.184,226.159 32.618,229.360 34.605 C 230.319 35.200,234.441 37.564,238.520 39.858 C 242.599 42.152,247.874 45.343,250.241 46.950 C 255.828 50.742,257.255 51.275,259.418 50.379 C 261.486 49.522,262.253 48.194,262.253 45.472 C 262.253 43.832,261.829 43.051,260.215 41.725 C 255.288 37.676,233.903 25.472,231.850 25.537 C 231.440 25.550,230.420 25.932,229.585 26.386 M278.989 59.942 C 277.385 60.601,275.736 64.145,276.319 65.679 C 276.543 66.268,278.110 68.384,279.801 70.381 C 283.824 75.133,287.172 80.884,289.871 87.679 C 291.077 90.716,292.616 93.574,293.307 94.057 C 295.224 95.400,297.704 95.136,299.436 93.405 C 301.492 91.348,301.150 88.541,297.960 81.313 C 294.460 73.382,291.130 68.060,286.963 63.738 C 283.215 59.851,281.360 58.968,278.989 59.942 M299.613 116.145 C 298.153 117.988,298.148 117.837,300.154 133.203 C 300.793 138.098,301.503 144.083,301.731 146.502 C 302.223 151.708,303.645 153.686,306.875 153.654 C 311.373 153.611,312.143 151.292,311.100 140.917 C 309.606 126.058,308.066 117.394,306.649 115.886 C 304.749 113.863,301.322 113.989,299.613 116.145 M306.807 174.493 C 303.877 175.665,303.826 175.995,303.806 193.792 C 303.787 209.785,303.837 210.538,305.016 212.037 C 305.972 213.251,306.766 213.600,308.576 213.600 C 311.436 213.600,313.053 212.149,313.632 209.063 C 314.355 205.210,313.490 177.727,312.601 176.303 C 312.021 175.374,308.803 173.566,308.296 173.884 C 308.264 173.905,307.593 174.179,306.807 174.493 M62.460 189.734 C 61.732 189.851,60.598 190.632,59.938 191.470 C 58.830 192.879,58.740 193.854,58.740 204.450 C 58.740 215.649,58.772 215.944,60.146 217.542 C 61.965 219.656,65.260 219.803,67.208 217.857 C 68.464 216.603,68.539 215.992,68.714 205.642 C 68.858 197.129,68.710 194.296,68.036 192.684 C 67.127 190.506,64.923 189.341,62.460 189.734 M306.172 234.521 C 303.382 235.960,303.211 237.101,303.202 254.419 L 303.193 270.614 304.650 272.070 C 305.541 272.961,306.789 273.527,307.865 273.527 C 313.043 273.527,313.280 272.646,313.280 253.416 C 313.280 237.645,313.260 237.377,311.945 235.905 C 310.288 234.051,308.100 233.527,306.172 234.521 M60.659 240.891 C 58.768 242.653,58.563 244.940,58.851 261.057 C 59.072 273.434,59.269 276.011,60.093 277.268 C 61.842 279.937,65.969 279.869,68.066 277.138 C 68.594 276.451,68.794 271.669,68.808 259.408 L 68.827 242.619 67.370 241.163 C 65.548 239.340,62.458 239.215,60.659 240.891 M306.753 294.119 C 306.264 294.298,305.263 294.991,304.528 295.659 C 303.202 296.865,303.193 296.990,303.212 313.828 C 303.232 332.046,303.264 332.239,306.352 333.413 C 308.178 334.108,309.480 333.759,311.352 332.075 C 312.677 330.881,312.687 330.755,312.687 313.770 C 312.687 297.458,312.632 296.612,311.500 295.480 C 310.847 294.827,310.068 294.293,309.769 294.293 C 309.469 294.293,308.868 294.181,308.434 294.044 C 307.999 293.906,307.243 293.940,306.753 294.119 M60.790 301.090 L 59.333 302.546 59.352 319.335 C 59.372 336.964,59.414 337.259,62.113 338.696 C 64.080 339.744,65.624 339.533,67.445 337.966 L 69.097 336.546 68.916 319.425 C 68.742 302.991,68.685 302.250,67.490 300.968 C 65.772 299.125,62.699 299.180,60.790 301.090 M304.413 355.374 C 302.703 357.084,302.511 359.158,302.713 373.704 L 302.897 386.958 304.561 388.389 C 306.789 390.304,308.831 390.207,310.952 388.086 L 312.687 386.351 312.687 371.849 C 312.687 358.076,312.625 357.268,311.457 355.783 C 309.903 353.808,306.195 353.592,304.413 355.374 M61.232 360.763 C 59.360 362.508,59.238 363.531,59.444 375.824 L 59.630 386.959 61.295 388.389 C 63.522 390.304,65.565 390.207,67.686 388.086 L 69.420 386.351 69.420 375.368 C 69.420 364.277,69.048 361.794,67.172 360.369 C 65.640 359.205,62.695 359.401,61.232 360.763 " stroke="none" fill-rule="evenodd"></path></svg>