<svg viewBox="0 0 94 400" xmlns="http://www.w3.org/2000/svg" xmlns:bx="https://boxy-svg.com"><path d="M42.461 7.679 C 40.787 8.460,39.751 9.781,39.497 11.460 C 39.403 12.084,39.386 18.819,39.452 29.532 L 39.558 46.608 39.938 47.380 C 40.811 49.154,42.495 50.192,44.492 50.189 C 46.408 50.186,48.026 49.203,48.886 47.520 L 49.272 46.765 49.272 28.983 C 49.272 11.870,49.260 11.173,48.973 10.428 C 48.615 9.499,47.671 8.434,46.703 7.867 C 46.108 7.519,45.774 7.445,44.579 7.403 C 43.399 7.360,43.044 7.407,42.461 7.679 M42.349 75.821 C 41.225 76.389,40.528 77.119,39.993 78.289 L 39.612 79.121 39.629 96.548 C 39.641 108.364,39.701 114.176,39.814 114.599 C 40.188 115.994,41.367 117.279,42.848 117.908 C 43.790 118.309,45.619 118.272,46.608 117.833 C 48.159 117.144,49.239 115.723,49.479 114.053 C 49.569 113.435,49.588 106.332,49.527 95.958 L 49.428 78.882 49.012 78.092 C 48.559 77.236,47.504 76.174,46.665 75.732 C 46.311 75.546,45.675 75.434,44.728 75.393 C 43.399 75.335,43.263 75.360,42.349 75.821 M42.666 143.720 C 41.618 144.220,40.642 145.207,40.166 146.245 L 39.788 147.071 39.830 164.755 L 39.872 182.438 40.281 183.310 C 41.138 185.138,42.782 186.179,44.805 186.176 C 46.270 186.173,47.247 185.774,48.284 184.756 C 49.416 183.644,49.694 182.832,49.770 180.402 C 49.805 179.281,49.778 171.280,49.709 162.620 L 49.585 146.875 49.208 146.137 C 48.744 145.229,47.757 144.210,46.922 143.775 C 46.459 143.534,45.925 143.434,44.885 143.392 C 43.640 143.341,43.380 143.380,42.666 143.720 M43.193 211.560 C 41.994 212.006,41.019 212.893,40.326 214.164 C 40.038 214.693,40.028 215.316,40.028 232.572 L 40.028 250.432 40.438 251.293 C 41.313 253.137,42.940 254.171,44.963 254.171 C 46.987 254.171,48.613 253.137,49.489 251.293 L 49.898 250.432 49.939 244.165 C 49.961 240.718,49.926 232.717,49.861 226.383 L 49.742 214.868 49.379 214.133 C 48.940 213.241,47.946 212.218,47.086 211.773 C 46.271 211.350,44.078 211.231,43.193 211.560 M43.552 279.474 C 42.332 279.873,41.138 280.927,40.547 282.126 L 40.185 282.862 40.185 300.565 C 40.185 320.707,40.074 319.078,41.552 320.641 C 42.576 321.723,43.583 322.154,45.120 322.166 C 47.147 322.181,48.778 321.149,49.645 319.300 L 50.055 318.425 50.096 307.615 C 50.118 301.670,50.080 293.632,50.012 289.755 C 49.890 282.862,49.879 282.690,49.534 282.033 C 49.080 281.170,48.136 280.227,47.281 279.785 C 46.773 279.523,46.281 279.426,45.277 279.391 C 44.544 279.366,43.768 279.404,43.552 279.474 M43.513 347.554 C 42.490 347.919,41.351 348.960,40.759 350.072 L 40.342 350.855 40.298 367.853 C 40.269 379.398,40.309 385.203,40.423 385.947 C 40.612 387.175,41.048 388.022,41.935 388.878 C 43.810 390.689,47.003 390.606,48.856 388.696 C 49.203 388.338,49.650 387.715,49.850 387.310 L 50.212 386.575 50.212 368.872 L 50.212 351.168 49.797 350.283 C 49.279 349.179,48.315 348.200,47.261 347.710 C 46.322 347.273,44.512 347.197,43.513 347.554 " stroke="none" fill="black" fill-rule="evenodd"></path></svg>