<svg viewBox="0 0 400 450" xmlns="http://www.w3.org/2000/svg" xmlns:bx="https://boxy-svg.com"><path d="M198.301 4.754 C 195.241 6.240,195.012 7.469,194.782 23.667 C 194.532 41.319,194.888 43.491,198.298 45.117 C 202.138 46.949,206.060 44.866,206.926 40.537 C 207.610 37.117,207.372 11.165,206.632 8.501 C 205.608 4.815,201.749 3.079,198.301 4.754 M197.904 65.011 C 195.046 66.564,194.667 68.961,194.667 85.466 C 194.667 97.779,194.861 101.110,195.674 102.680 C 197.590 106.385,201.317 107.050,204.616 104.274 L 206.667 102.548 206.667 85.000 L 206.667 67.452 204.616 65.726 C 202.318 63.792,200.503 63.599,197.904 65.011 M197.803 125.064 C 196.777 125.620,195.652 126.827,195.303 127.747 C 194.953 128.667,194.667 136.774,194.667 145.761 L 194.667 162.103 196.615 164.051 C 199.235 166.671,202.098 166.671,204.718 164.051 L 206.667 162.103 206.667 145.000 L 206.667 127.897 204.718 125.949 C 202.561 123.791,200.610 123.542,197.803 125.064 M198.238 184.636 C 194.853 186.061,194.667 187.101,194.667 204.533 L 194.667 220.769 196.615 222.718 C 199.058 225.160,201.876 225.283,204.463 223.059 L 206.333 221.451 206.532 204.800 C 206.730 188.244,206.722 188.139,205.199 186.407 C 203.509 184.485,200.446 183.706,198.238 184.636 " stroke="none" fill="black" fill-rule="evenodd"></path></svg>