<svg viewBox="0 0 400 650" xmlns="http://www.w3.org/2000/svg" xmlns:bx="https://boxy-svg.com"><path d="M76.571 13.678 C 75.601 14.204,74.476 15.587,74.071 16.750 C 73.284 19.007,73.005 51.526,73.741 55.204 C 74.885 60.926,82.108 62.448,84.744 57.522 C 86.074 55.036,86.088 18.323,84.760 15.841 C 83.162 12.855,79.746 11.953,76.571 13.678 M76.523 85.702 C 73.547 87.318,73.185 90.235,73.438 110.522 L 73.667 128.777 75.844 130.722 C 78.282 132.900,79.851 133.123,82.627 131.687 C 85.695 130.101,86.000 128.018,86.000 108.667 C 86.000 89.315,85.695 87.233,82.627 85.646 C 80.275 84.430,78.843 84.443,76.523 85.702 M77.000 157.472 C 74.083 159.145,74.043 159.452,74.021 180.551 L 74.000 200.769 75.949 202.718 C 78.059 204.828,79.629 205.111,82.352 203.870 C 85.785 202.306,86.000 200.963,86.000 181.133 C 86.000 169.826,85.727 162.082,85.283 160.810 C 84.045 157.259,80.126 155.679,77.000 157.472 M110.718 195.726 C 109.086 197.099,108.667 197.973,108.667 200.000 C 108.667 202.027,109.086 202.901,110.718 204.274 L 112.769 206.000 132.408 206.000 C 149.110 206.000,152.285 205.844,153.640 204.956 C 155.828 203.523,156.788 200.548,155.893 197.980 C 154.575 194.199,153.386 194.000,132.084 194.000 L 112.769 194.000 110.718 195.726 M182.718 195.726 C 181.086 197.099,180.667 197.973,180.667 200.000 C 180.667 202.027,181.086 202.901,182.718 204.274 L 184.769 206.000 204.408 206.000 C 221.110 206.000,224.285 205.844,225.640 204.956 C 227.828 203.523,228.788 200.548,227.893 197.980 C 226.575 194.199,225.386 194.000,204.084 194.000 L 184.769 194.000 182.718 195.726 M254.392 196.881 C 252.163 199.110,252.066 202.582,254.167 204.948 C 255.343 206.273,257.102 206.944,262.319 208.055 C 270.826 209.867,276.717 211.989,284.810 216.155 C 291.627 219.665,293.523 219.893,296.154 217.523 C 297.886 215.962,298.360 212.316,297.084 210.368 C 293.843 205.422,272.349 196.859,259.892 195.552 C 256.451 195.191,255.964 195.308,254.392 196.881 M311.636 235.636 C 309.623 237.650,309.539 240.147,311.343 244.355 C 314.791 252.400,316.185 257.979,317.652 269.603 C 318.410 275.614,318.837 277.134,320.118 278.385 C 322.575 280.785,325.951 280.776,328.364 278.364 C 329.690 277.037,329.999 276.059,329.996 273.197 C 329.983 261.549,324.236 240.244,319.828 235.500 C 317.854 233.375,313.830 233.442,311.636 235.636 M319.667 304.616 C 317.006 305.734,316.040 307.789,314.307 316.021 C 313.345 320.593,311.382 329.110,309.946 334.949 C 307.365 345.438,307.348 345.593,308.500 347.938 C 310.075 351.143,313.174 352.082,316.414 350.336 C 318.242 349.352,318.895 348.419,319.703 345.641 C 322.011 337.701,327.330 313.458,327.332 310.871 C 327.334 306.343,323.331 303.077,319.667 304.616 M299.844 375.313 C 298.664 376.241,297.248 379.224,295.016 385.480 C 293.279 390.349,290.240 398.331,288.262 403.217 C 286.285 408.102,284.667 412.697,284.667 413.427 C 284.667 415.069,285.871 417.400,287.276 418.479 C 289.098 419.878,292.935 419.510,294.560 417.780 C 296.867 415.324,309.333 382.985,309.333 379.456 C 309.333 378.599,308.456 377.021,307.385 375.949 C 305.067 373.631,302.281 373.396,299.844 375.313 M271.557 440.985 C 270.783 441.527,268.110 445.502,265.617 449.819 C 263.124 454.135,258.706 461.234,255.799 465.594 C 249.854 474.512,249.003 477.230,251.259 480.092 C 252.965 482.255,255.608 482.991,258.045 481.981 C 261.496 480.552,280.677 449.776,280.656 445.701 C 280.645 443.331,280.258 442.661,278.018 441.128 C 275.987 439.738,273.418 439.681,271.557 440.985 M231.166 499.387 C 229.440 500.392,203.479 526.481,202.635 528.059 C 200.233 532.547,206.151 537.704,210.877 535.241 C 212.737 534.272,223.683 523.764,232.500 514.483 C 238.756 507.898,239.333 507.072,239.333 504.705 C 239.333 500.451,234.615 497.378,231.166 499.387 M168.213 553.201 C 162.779 556.794,155.783 561.273,152.667 563.152 C 145.159 567.680,144.000 568.829,144.000 571.744 C 144.000 574.592,147.011 578.000,149.527 578.000 C 152.879 578.000,184.275 557.783,185.361 554.926 C 186.413 552.160,186.103 550.667,184.051 548.615 C 180.850 545.414,179.314 545.858,168.213 553.201 M110.667 585.412 C 107.550 586.881,101.440 589.613,97.090 591.485 C 92.739 593.356,88.614 595.494,87.923 596.236 C 85.168 599.193,87.012 604.725,91.094 605.750 C 92.989 606.225,98.928 604.006,113.333 597.439 C 120.667 594.096,121.807 593.355,122.836 591.262 C 124.324 588.237,123.410 585.085,120.627 583.646 C 117.937 582.255,117.022 582.418,110.667 585.412 " stroke="none" fill-rule="evenodd" ></path></svg>