<svg viewBox="0 0 400 450" xmlns="http://www.w3.org/2000/svg" xmlns:bx="https://boxy-svg.com"><path d="M155.925 15.000 C 153.430 16.356,152.275 19.444,153.320 21.968 C 154.958 25.922,155.408 26.000,176.495 26.000 C 197.530 26.000,197.688 25.973,199.322 22.027 C 200.416 19.385,199.241 16.331,196.606 14.969 C 193.899 13.569,158.508 13.596,155.925 15.000 M224.303 17.636 C 222.406 19.533,222.118 22.921,223.666 25.130 C 224.284 26.013,226.763 27.243,230.166 28.357 C 237.501 30.758,246.134 35.329,251.682 39.751 C 254.174 41.737,256.902 43.534,257.744 43.746 C 260.346 44.399,262.906 43.117,264.197 40.515 C 266.063 36.755,264.747 34.485,257.577 29.095 C 251.061 24.197,243.623 20.254,236.050 17.681 C 229.625 15.499,226.452 15.487,224.303 17.636 M274.615 62.615 C 272.177 65.054,272.180 66.412,274.645 73.164 C 276.905 79.357,279.522 89.503,280.622 96.333 C 281.633 102.612,282.493 104.543,284.809 105.740 C 287.357 107.058,290.243 106.411,292.063 104.115 C 293.263 102.601,293.416 101.761,293.083 98.522 C 291.868 86.693,285.743 65.652,282.598 62.500 C 280.103 59.999,277.190 60.041,274.615 62.615 M286.872 129.981 C 286.069 130.319,284.897 131.379,284.270 132.337 C 283.236 133.915,283.164 135.863,283.511 152.983 C 283.761 165.351,284.161 172.388,284.667 173.334 C 285.847 175.538,289.418 176.800,291.963 175.913 C 296.203 174.435,296.401 172.824,295.556 146.744 C 295.152 134.263,295.003 133.026,293.725 131.577 C 292.150 129.791,289.046 129.068,286.872 129.981 M287.634 200.061 C 284.406 201.691,284.317 202.357,284.572 222.967 C 284.829 243.748,284.926 244.326,288.427 245.921 C 290.723 246.967,294.168 245.860,295.649 243.599 C 296.610 242.133,296.717 239.613,296.537 222.647 L 296.333 203.362 294.667 201.697 C 292.754 199.786,289.622 199.058,287.634 200.061 M289.583 269.856 C 288.803 269.974,287.453 270.832,286.583 271.762 L 285.000 273.452 285.200 292.893 C 285.379 310.368,285.521 312.502,286.601 314.000 C 288.295 316.349,290.727 317.080,293.302 316.013 C 297.258 314.375,297.431 313.320,297.204 292.346 C 297.002 273.598,296.987 273.424,295.447 271.787 C 293.843 270.080,292.034 269.485,289.583 269.856 M287.942 340.855 C 285.521 342.713,285.333 344.285,285.333 362.689 C 285.333 383.101,285.622 384.665,289.632 385.988 C 293.815 387.369,297.380 384.618,297.538 379.888 C 297.591 378.299,297.566 369.469,297.484 360.264 L 297.333 343.528 295.698 341.764 C 293.896 339.820,289.901 339.351,287.942 340.855 M289.592 409.972 C 288.818 410.293,287.589 411.313,286.861 412.238 L 285.537 413.920 272.043 414.127 L 258.549 414.333 256.941 416.204 C 254.717 418.791,254.840 421.609,257.282 424.051 L 259.231 426.000 275.982 426.000 C 294.912 426.000,295.975 425.781,297.356 421.599 C 298.497 418.140,297.825 413.516,295.906 411.629 C 294.057 409.810,291.564 409.156,289.592 409.972 M118.905 414.661 C 115.067 416.210,114.238 421.007,117.282 424.051 L 119.231 426.000 138.326 426.000 C 157.748 426.000,159.277 425.825,161.145 423.391 C 162.193 422.027,162.193 417.973,161.145 416.609 C 159.277 414.175,157.753 413.999,138.877 414.042 C 128.678 414.065,119.690 414.344,118.905 414.661 M188.905 414.661 C 185.067 416.210,184.238 421.007,187.282 424.051 L 189.231 426.000 208.326 426.000 C 221.564 426.000,227.868 425.762,228.877 425.224 C 231.087 424.047,231.958 422.571,231.958 420.000 C 231.958 417.429,231.087 415.953,228.877 414.776 C 227.140 413.850,191.169 413.747,188.905 414.661 " stroke="none" fill-rule="evenodd" ></path></svg>