<svg viewBox="0 0 400 450" xmlns="http://www.w3.org/2000/svg" xmlns:bx="https://boxy-svg.com"><path d="M59.000 14.789 C 58.267 15.218,57.301 16.042,56.855 16.618 C 55.807 17.970,55.807 22.027,56.855 23.391 C 58.713 25.812,60.285 26.000,78.674 26.000 L 96.769 26.000 98.718 24.051 C 101.160 21.609,101.283 18.791,99.059 16.204 L 97.451 14.333 78.892 14.171 C 65.646 14.054,59.952 14.231,59.000 14.789 M125.000 14.789 C 124.267 15.218,123.301 16.042,122.855 16.618 C 121.807 17.970,121.807 22.027,122.855 23.391 C 124.713 25.812,126.285 26.000,144.674 26.000 L 162.769 26.000 164.718 24.051 C 167.160 21.609,167.283 18.791,165.059 16.204 L 163.451 14.333 144.892 14.171 C 131.646 14.054,125.952 14.231,125.000 14.789 M191.000 14.789 C 188.873 16.035,188.042 17.498,188.042 20.000 C 188.042 22.571,188.913 24.047,191.123 25.224 C 192.127 25.759,198.196 26.000,210.674 26.000 L 228.769 26.000 230.718 24.051 C 233.160 21.609,233.283 18.791,231.059 16.204 L 229.451 14.333 210.892 14.171 C 197.646 14.054,191.952 14.231,191.000 14.789 M254.304 24.856 C 252.152 26.707,251.861 30.671,253.725 32.731 C 254.380 33.455,258.313 35.725,262.465 37.774 C 266.616 39.824,273.324 43.713,277.371 46.417 C 283.016 50.189,285.272 51.333,287.062 51.333 C 291.601 51.333,294.317 45.987,291.686 42.230 C 290.153 40.042,278.055 32.277,268.874 27.589 C 259.632 22.870,257.153 22.405,254.304 24.856 M48.393 40.051 C 46.687 42.079,46.667 42.230,46.670 53.218 C 46.675 70.922,47.302 79.048,48.786 80.641 C 51.521 83.577,55.967 83.179,58.018 79.815 C 59.507 77.374,59.653 72.864,58.892 52.819 C 58.472 41.732,58.394 41.243,56.804 39.652 C 54.337 37.186,50.657 37.360,48.393 40.051 M308.208 62.976 C 306.617 63.669,305.880 64.578,305.275 66.599 C 304.355 69.669,304.239 69.447,312.286 80.000 C 314.663 83.117,318.477 88.764,320.763 92.550 C 325.249 99.983,326.598 101.333,329.533 101.333 C 332.037 101.333,335.333 98.084,335.333 95.615 C 335.333 90.957,317.194 64.261,312.926 62.639 C 310.841 61.846,310.801 61.849,308.208 62.976 M49.844 105.313 C 48.926 106.035,47.983 107.587,47.748 108.762 C 47.513 109.937,47.523 118.569,47.771 127.944 L 48.221 144.990 50.059 146.829 C 52.565 149.335,55.475 149.294,58.051 146.718 L 60.000 144.769 59.996 127.885 C 59.992 110.116,59.569 106.708,57.159 105.020 C 55.148 103.611,51.839 103.744,49.844 105.313 M339.564 120.621 C 336.274 122.626,336.237 124.547,339.293 134.725 C 340.769 139.643,342.747 147.089,343.688 151.271 C 345.592 159.735,346.027 160.810,348.153 162.299 C 350.288 163.794,352.983 163.571,355.129 161.723 C 356.743 160.334,356.984 159.669,356.883 156.890 C 356.757 153.391,353.437 139.749,350.048 128.800 C 348.203 122.841,347.641 121.761,345.794 120.636 C 343.137 119.015,342.200 119.013,339.564 120.621 M50.303 171.636 L 48.667 173.273 48.667 191.336 C 48.667 206.144,48.848 209.751,49.674 211.347 C 51.598 215.068,55.318 215.716,58.653 212.909 L 60.742 211.152 60.538 192.184 L 60.333 173.216 58.463 171.608 C 55.941 169.440,52.488 169.452,50.303 171.636 M353.539 184.673 C 352.735 184.997,351.572 186.033,350.954 186.976 C 349.973 188.474,349.884 189.979,350.256 198.846 C 351.353 225.064,351.364 225.172,353.048 226.988 C 354.194 228.225,355.282 228.667,357.185 228.667 C 360.884 228.667,362.798 226.443,363.193 221.688 C 363.614 216.610,362.089 190.454,361.228 187.984 C 360.553 186.049,357.702 183.953,355.866 184.042 C 355.390 184.065,354.342 184.349,353.539 184.673 M77.552 211.639 C 73.726 213.303,72.877 217.230,75.636 220.509 L 77.272 222.453 94.960 222.906 C 113.924 223.391,116.343 223.096,117.946 220.100 C 119.154 217.843,118.798 214.737,117.141 213.080 C 115.706 211.646,114.913 211.527,103.974 211.112 C 86.664 210.456,79.965 210.589,77.552 211.639 M141.726 213.384 C 138.950 216.683,139.615 220.410,143.320 222.326 C 144.911 223.149,148.452 223.333,162.677 223.333 C 174.635 223.333,180.544 223.090,181.544 222.558 C 183.754 221.381,184.624 219.905,184.624 217.333 C 184.624 214.762,183.754 213.286,181.544 212.109 C 180.538 211.573,174.417 211.333,161.770 211.333 L 143.452 211.333 141.726 213.384 M353.325 250.708 C 350.636 251.721,349.935 253.647,348.595 263.708 C 347.898 268.934,346.730 276.121,345.998 279.678 C 344.099 288.905,344.203 290.825,346.718 292.941 C 349.295 295.109,351.351 295.127,353.876 293.002 C 356.189 291.055,357.141 287.512,359.697 271.333 C 361.809 257.969,361.837 254.036,359.833 252.166 C 357.974 250.430,355.522 249.881,353.325 250.708 M336.738 315.833 C 335.654 316.853,333.407 320.773,331.679 324.661 C 329.969 328.509,326.492 335.168,323.952 339.461 C 318.645 348.429,318.272 350.374,321.282 353.385 C 325.231 357.334,328.514 355.390,334.315 345.668 C 338.221 339.123,345.089 325.178,346.040 321.861 C 346.797 319.221,345.575 316.159,343.294 314.980 C 340.542 313.557,338.937 313.766,336.738 315.833 M301.683 369.471 C 300.959 369.891,297.122 373.007,293.158 376.395 C 289.194 379.783,283.315 384.360,280.094 386.566 C 273.049 391.391,272.400 392.115,272.400 395.149 C 272.400 398.159,275.074 400.667,278.285 400.667 C 280.960 400.667,287.364 396.630,297.000 388.870 C 310.128 378.299,312.529 374.246,307.949 370.393 C 305.746 368.539,303.787 368.251,301.683 369.471 M243.000 405.074 C 237.767 406.914,226.325 409.987,218.457 411.666 C 213.877 412.643,213.088 413.032,211.931 414.888 C 210.259 417.571,210.706 420.450,213.126 422.577 C 214.701 423.961,215.354 424.103,218.468 423.737 C 227.343 422.694,250.162 415.933,252.768 413.575 C 255.611 411.002,254.802 406.127,251.223 404.276 C 248.900 403.075,248.601 403.104,243.000 405.074 M39.454 415.667 C 36.479 418.171,36.450 421.805,39.384 424.274 C 41.276 425.866,41.928 426.000,47.769 426.000 C 53.880 426.000,54.171 425.932,56.051 424.051 C 58.494 421.609,58.616 418.791,56.392 416.204 C 54.863 414.424,54.462 414.322,48.180 414.108 C 41.835 413.891,41.492 413.953,39.454 415.667 M81.904 414.995 C 79.582 416.277,78.507 419.343,79.440 422.020 C 80.747 425.769,82.056 426.000,102.018 426.000 L 120.103 426.000 122.051 424.051 C 124.494 421.609,124.616 418.791,122.392 416.204 L 120.784 414.333 102.225 414.177 C 86.984 414.049,83.352 414.195,81.904 414.995 M147.904 414.995 C 145.582 416.277,144.507 419.343,145.440 422.020 C 146.747 425.769,148.056 426.000,168.018 426.000 L 186.103 426.000 188.051 424.051 C 190.494 421.609,190.616 418.791,188.392 416.204 L 186.784 414.333 168.225 414.177 C 152.984 414.049,149.352 414.195,147.904 414.995 " stroke="none" fill-rule="evenodd" ></path></svg>