<svg viewBox="0 0 400 450" xmlns="http://www.w3.org/2000/svg" xmlns:bx="https://boxy-svg.com"><path d="M61.499 14.688 C 60.674 15.019,59.493 16.350,58.876 17.645 C 57.444 20.649,57.327 20.401,68.417 37.931 C 75.464 49.073,77.397 51.669,79.218 52.447 C 81.201 53.294,81.691 53.267,83.848 52.197 C 86.436 50.913,87.733 48.349,87.090 45.787 C 86.501 43.439,70.178 17.871,67.968 15.833 C 65.925 13.950,64.127 13.632,61.499 14.688 M313.719 15.500 C 311.280 17.666,299.275 41.041,298.851 44.449 C 298.557 46.808,298.766 47.493,300.222 48.949 C 302.446 51.174,305.933 51.268,308.236 49.167 C 310.392 47.200,323.333 21.886,323.333 19.637 C 323.333 18.603,322.543 17.107,321.385 15.949 C 318.986 13.550,316.105 13.381,313.719 15.500 M94.615 69.949 C 91.239 73.325,91.681 74.667,101.091 89.617 C 105.725 96.977,110.366 103.885,111.404 104.967 C 113.980 107.649,117.510 107.704,119.753 105.096 C 122.672 101.703,122.142 100.272,112.089 84.402 C 106.947 76.285,102.139 69.418,101.256 68.928 C 98.743 67.535,96.718 67.846,94.615 69.949 M286.333 69.233 C 284.794 70.178,282.515 73.971,276.434 85.714 C 272.089 94.104,268.377 101.936,268.185 103.120 C 267.898 104.885,268.201 105.637,269.867 107.302 C 272.281 109.717,275.022 109.962,277.531 107.987 C 279.084 106.766,293.800 79.328,294.982 75.451 C 295.644 73.279,294.160 70.117,291.939 68.969 C 289.512 67.714,288.750 67.749,286.333 69.233 M130.162 122.996 C 128.050 123.914,126.667 126.144,126.667 128.632 C 126.667 130.285,143.567 157.213,146.039 159.500 C 147.129 160.508,148.645 161.333,149.408 161.333 C 151.570 161.333,154.530 159.273,155.406 157.158 C 156.448 154.642,156.073 153.885,145.544 137.244 C 139.833 128.218,136.515 123.611,135.257 122.961 C 133.019 121.803,132.905 121.804,130.162 122.996 M255.932 127.663 C 254.663 128.353,252.036 132.782,246.162 144.136 C 241.743 152.678,238.064 160.117,237.985 160.667 C 237.180 166.297,243.139 170.262,247.252 166.833 C 249.449 165.002,264.667 135.147,264.667 132.668 C 264.667 131.232,264.048 129.946,262.718 128.615 C 260.589 126.486,258.608 126.208,255.932 127.663 M165.583 176.509 C 164.803 176.635,163.468 177.480,162.616 178.387 C 159.713 181.477,160.319 183.136,169.894 198.333 C 174.745 206.033,179.470 213.008,180.394 213.833 C 182.769 215.953,185.652 215.784,188.051 213.385 C 191.297 210.139,190.898 208.994,181.119 193.497 C 176.234 185.756,171.866 178.976,171.413 178.430 C 170.375 177.178,167.436 176.210,165.583 176.509 M225.120 186.691 C 222.941 188.406,207.333 218.482,207.333 220.968 C 207.333 223.480,210.639 226.667,213.245 226.667 C 214.394 226.667,215.977 226.022,216.930 225.167 C 218.463 223.791,233.177 196.361,234.301 192.784 C 234.982 190.616,233.507 187.457,231.273 186.302 C 228.726 184.985,227.163 185.084,225.120 186.691 M196.970 232.303 C 193.873 235.400,194.472 237.061,204.331 252.715 C 209.279 260.572,213.963 267.525,214.738 268.167 C 216.896 269.953,219.793 269.643,222.051 267.385 C 224.437 264.999,224.549 262.649,222.451 259.000 C 217.830 250.964,205.708 232.538,204.474 231.673 C 202.255 230.119,198.870 230.403,196.970 232.303 M230.993 286.796 C 229.612 288.438,229.279 289.408,229.541 291.024 C 229.729 292.178,234.048 299.695,239.140 307.728 C 247.807 321.400,248.556 322.373,250.851 322.947 C 253.986 323.732,256.245 322.748,257.680 319.973 C 258.504 318.380,258.602 317.440,258.094 315.982 C 257.044 312.972,241.441 288.534,239.269 286.500 C 236.470 283.878,233.355 283.989,230.993 286.796 M265.571 340.247 C 262.177 343.166,262.771 344.961,272.017 359.750 C 281.615 375.101,283.501 377.333,286.874 377.333 C 290.051 377.333,292.957 374.050,292.465 371.017 C 291.965 367.937,274.103 340.006,272.161 339.268 C 269.550 338.275,267.510 338.578,265.571 340.247 M300.667 393.754 C 298.428 395.324,298.022 396.003,298.010 398.200 C 297.998 400.412,299.029 402.508,303.675 409.708 C 307.124 415.056,307.137 415.096,305.906 416.618 C 304.053 418.905,304.326 421.762,306.615 424.051 C 308.451 425.886,308.881 426.000,314.000 426.000 C 319.119 426.000,319.549 425.886,321.385 424.051 C 324.547 420.889,324.128 419.537,315.994 406.657 C 311.957 400.265,308.261 394.642,307.781 394.162 C 306.288 392.669,302.522 392.453,300.667 393.754 M52.238 414.645 C 48.394 416.239,47.572 421.008,50.615 424.051 L 52.564 426.000 70.667 426.000 L 88.769 426.000 90.718 424.051 C 93.160 421.609,93.283 418.791,91.059 416.204 L 89.451 414.333 71.559 414.193 C 61.718 414.116,53.024 414.319,52.238 414.645 M116.238 414.645 C 112.394 416.239,111.572 421.008,114.615 424.051 L 116.564 426.000 134.667 426.000 L 152.769 426.000 154.718 424.051 C 157.160 421.609,157.283 418.791,155.059 416.204 L 153.451 414.333 135.559 414.193 C 125.718 414.116,117.024 414.319,116.238 414.645 M180.238 414.645 C 176.394 416.239,175.572 421.008,178.615 424.051 L 180.564 426.000 198.667 426.000 L 216.769 426.000 218.718 424.051 C 221.160 421.609,221.283 418.791,219.059 416.204 L 217.451 414.333 199.559 414.193 C 189.718 414.116,181.024 414.319,180.238 414.645 M244.238 414.645 C 240.394 416.239,239.572 421.008,242.615 424.051 L 244.564 426.000 262.667 426.000 L 280.769 426.000 282.718 424.051 C 285.160 421.609,285.283 418.791,283.059 416.204 L 281.451 414.333 263.559 414.193 C 253.718 414.116,245.024 414.319,244.238 414.645 " stroke="none" fill-rule="evenodd" ></path></svg>