<svg viewBox="0 0 400 450" xmlns="http://www.w3.org/2000/svg" xmlns:bx="https://boxy-svg.com"><path d="M15.949 15.949 C 14.877 17.021,14.001 18.446,14.001 19.115 C 14.002 19.785,15.348 28.130,16.991 37.660 C 20.128 55.850,20.760 57.724,24.172 58.940 C 26.511 59.773,29.801 58.318,31.054 55.897 C 31.966 54.133,31.805 52.580,29.024 36.295 C 26.029 18.752,25.050 15.212,22.970 14.414 C 20.474 13.456,17.872 14.025,15.949 15.949 M207.904 15.011 C 206.935 15.538,205.834 16.849,205.459 17.926 C 205.084 19.003,204.258 27.880,203.624 37.652 C 202.481 55.271,202.483 55.436,203.800 57.210 C 205.642 59.693,209.358 60.574,211.651 59.072 C 212.609 58.444,213.673 57.192,214.016 56.290 C 214.654 54.614,216.661 28.041,216.664 21.226 C 216.666 17.829,216.462 17.279,214.616 15.726 C 212.318 13.792,210.503 13.599,207.904 15.011 M368.791 15.026 C 366.552 16.635,366.210 17.956,364.017 33.434 C 362.212 46.175,362.121 47.633,363.022 49.376 C 365.202 53.592,371.249 53.894,373.390 49.894 C 374.086 48.593,377.993 22.855,377.998 19.537 C 378.004 15.674,371.990 12.728,368.791 15.026 M360.255 75.911 C 359.112 76.623,358.002 77.910,357.789 78.770 C 357.575 79.630,356.301 88.241,354.958 97.906 C 352.519 115.455,352.517 115.482,353.818 117.240 C 354.534 118.208,355.904 119.385,356.863 119.855 C 359.254 121.028,363.064 119.463,364.036 116.906 C 364.833 114.809,369.333 84.261,369.333 80.946 C 369.333 76.251,364.240 73.426,360.255 75.911 M28.592 81.666 C 25.019 83.608,25.001 84.776,28.245 104.141 C 29.879 113.890,31.566 122.522,31.995 123.323 C 32.423 124.124,33.823 125.218,35.106 125.754 C 37.227 126.640,37.629 126.617,39.552 125.497 C 43.626 123.125,43.637 122.767,40.284 102.929 C 38.617 93.068,36.805 84.312,36.258 83.470 C 35.303 82.001,32.781 80.637,31.123 80.693 C 30.689 80.708,29.550 81.146,28.592 81.666 M203.333 82.855 C 200.649 85.034,200.489 85.883,199.301 104.132 C 198.653 114.089,198.360 122.857,198.651 123.617 C 199.823 126.681,203.386 128.454,206.210 127.380 C 209.779 126.023,210.111 124.616,211.372 105.465 C 212.632 86.324,212.463 84.342,209.434 82.720 C 207.659 81.771,204.584 81.838,203.333 82.855 M350.414 143.432 C 349.344 144.355,348.361 146.097,348.024 147.667 C 346.544 154.575,343.144 181.854,343.559 183.492 C 344.561 187.446,350.189 188.781,353.193 185.777 C 354.685 184.284,355.063 182.559,357.401 166.569 C 358.813 156.906,359.976 148.342,359.985 147.537 C 360.008 145.317,357.328 142.674,354.617 142.243 C 352.729 141.942,351.855 142.189,350.414 143.432 M38.615 149.949 C 37.544 151.021,36.667 152.432,36.667 153.086 C 36.667 153.739,38.025 162.237,39.685 171.970 C 42.602 189.070,42.771 189.728,44.696 191.500 C 47.754 194.315,51.778 193.653,53.653 190.027 C 54.641 188.116,54.542 187.042,51.978 171.831 C 48.637 152.014,48.397 151.076,46.227 149.369 C 43.723 147.399,40.954 147.610,38.615 149.949 M197.835 151.921 C 196.437 153.583,196.115 154.966,195.453 162.166 C 194.915 168.007,193.962 172.952,192.256 178.745 C 188.905 190.122,188.910 190.062,191.001 192.547 C 193.171 195.125,196.870 195.485,199.172 193.341 C 200.758 191.863,204.649 180.480,206.239 172.667 C 207.508 166.426,208.313 156.673,207.746 154.410 C 206.602 149.852,200.802 148.396,197.835 151.921 M341.634 210.087 C 340.883 210.452,339.871 211.387,339.386 212.164 C 338.900 212.941,337.319 221.823,335.871 231.900 C 333.260 250.076,333.250 250.237,334.513 251.945 C 336.602 254.769,338.849 255.553,341.582 254.411 C 342.853 253.881,344.221 252.833,344.622 252.083 C 345.471 250.497,350.005 219.800,349.990 215.742 C 349.978 212.649,349.682 212.056,347.352 210.461 C 345.520 209.208,343.690 209.088,341.634 210.087 M177.500 215.174 C 176.858 215.820,174.279 219.669,171.768 223.727 C 169.257 227.785,164.772 234.367,161.801 238.354 C 157.580 244.019,156.400 246.086,156.400 247.819 C 156.400 252.765,162.654 255.457,166.265 252.064 C 171.033 247.585,187.333 222.485,187.333 219.623 C 187.333 218.787,186.557 217.179,185.607 216.051 C 184.222 214.405,183.367 214.000,181.274 214.000 C 179.671 214.000,178.217 214.452,177.500 215.174 M51.558 215.737 C 47.648 217.665,47.625 218.516,50.933 238.266 C 52.725 248.961,54.354 256.774,54.997 257.755 C 57.648 261.802,63.582 260.904,65.387 256.183 C 66.002 254.576,60.488 220.157,59.243 217.831 C 58.867 217.129,57.543 216.129,56.301 215.610 C 53.606 214.484,54.126 214.470,51.558 215.737 M136.965 267.675 C 135.884 268.152,132.699 270.638,129.888 273.200 C 127.076 275.763,121.041 280.871,116.476 284.552 C 111.912 288.232,107.987 291.738,107.755 292.343 C 106.867 294.657,107.386 296.822,109.282 298.718 C 112.117 301.553,114.325 301.300,119.427 297.553 C 130.808 289.194,144.307 276.859,144.971 274.210 C 145.535 271.966,144.320 269.040,142.456 268.150 C 139.789 266.876,138.945 266.803,136.965 267.675 M330.526 277.701 C 328.688 278.699,328.416 279.382,324.965 291.667 C 324.347 293.867,322.227 299.787,320.254 304.824 C 318.281 309.860,316.667 314.608,316.667 315.375 C 316.667 316.142,317.544 317.646,318.615 318.718 C 320.939 321.041,323.720 321.270,326.174 319.339 C 328.766 317.301,334.519 302.700,338.358 288.417 C 339.798 283.060,339.859 282.287,339.006 280.246 C 337.597 276.874,334.025 275.802,330.526 277.701 M61.831 283.323 C 60.907 284.050,59.957 285.414,59.721 286.353 C 59.206 288.406,65.053 323.146,66.164 324.635 C 68.358 327.573,71.765 328.224,74.592 326.244 C 75.447 325.645,77.839 324.255,79.907 323.154 C 87.591 319.066,89.969 317.174,90.416 314.794 C 90.984 311.764,89.826 309.547,86.961 308.181 C 84.574 307.042,84.549 307.047,80.257 309.272 C 77.888 310.500,75.851 311.391,75.730 311.253 C 75.609 311.114,74.695 306.200,73.697 300.333 C 72.700 294.467,71.603 288.558,71.259 287.202 C 70.083 282.564,65.299 280.595,61.831 283.323 M302.586 338.672 C 301.991 339.020,298.755 342.601,295.394 346.630 C 292.032 350.660,286.601 356.429,283.324 359.451 C 280.047 362.473,277.066 365.809,276.698 366.863 C 275.237 371.056,279.390 375.436,283.820 374.376 C 286.011 373.851,303.441 356.487,308.188 350.101 C 311.973 345.008,312.233 342.797,309.385 339.949 C 307.377 337.941,304.698 337.438,302.586 338.672 M72.393 351.384 C 71.443 352.513,70.671 353.788,70.676 354.218 C 70.682 354.648,72.021 362.939,73.653 372.642 C 76.792 391.317,77.372 393.039,80.947 394.311 C 83.082 395.072,85.492 393.959,87.465 391.301 C 88.715 389.618,88.698 389.434,85.675 371.384 C 83.997 361.364,82.327 352.610,81.963 351.931 C 81.046 350.218,79.164 349.333,76.436 349.333 C 74.667 349.333,73.710 349.818,72.393 351.384 M244.667 386.608 C 239.717 389.140,232.967 392.320,229.667 393.673 C 226.367 395.026,222.656 396.605,221.420 397.181 C 218.933 398.340,217.368 401.212,217.849 403.730 C 218.222 405.684,221.592 408.667,223.425 408.667 C 226.780 408.667,256.452 394.873,258.754 392.242 C 260.555 390.186,260.828 388.208,259.652 385.730 C 258.716 383.758,256.072 381.993,254.067 382.002 C 253.847 382.003,249.617 384.076,244.667 386.608 M182.667 408.036 C 179.550 408.714,172.050 410.049,166.000 411.003 C 156.759 412.459,154.750 412.983,153.437 414.280 C 149.875 417.797,152.406 424.087,157.412 424.160 C 160.738 424.208,173.690 422.177,184.331 419.938 C 191.760 418.375,193.994 417.642,195.297 416.339 C 197.639 413.998,197.548 410.356,195.096 408.247 C 192.882 406.342,190.625 406.304,182.667 408.036 M88.000 414.450 C 83.896 416.037,82.594 421.322,85.573 424.301 C 87.644 426.372,91.934 426.812,111.045 426.918 L 125.963 427.000 127.781 425.185 C 130.188 422.782,130.268 419.291,127.967 417.013 C 126.347 415.410,126.190 415.393,109.717 415.040 C 100.578 414.844,92.178 414.544,91.050 414.373 C 89.923 414.202,88.550 414.237,88.000 414.450 " stroke="none" fill-rule="evenodd" ></path></svg>