<svg viewBox="0 0 400 450" xmlns="http://www.w3.org/2000/svg" xmlns:bx="https://boxy-svg.com"><path d="M17.764 15.635 C 15.573 17.665,15.257 20.077,16.782 23.123 C 18.140 25.833,20.111 26.073,39.272 25.865 L 57.451 25.667 59.059 23.796 C 61.283 21.209,61.160 18.391,58.718 15.949 L 56.769 14.000 38.149 14.000 L 19.528 14.000 17.764 15.635 M84.508 15.044 C 80.770 17.072,81.142 23.454,85.105 25.260 C 85.998 25.667,89.715 26.000,93.365 26.000 L 100.000 26.000 100.000 41.569 L 100.000 57.139 101.635 58.903 C 103.894 61.340,107.781 61.361,110.050 58.948 C 111.653 57.243,111.668 57.094,111.868 41.614 L 112.068 26.000 117.419 26.000 C 122.444 26.000,122.888 25.881,124.718 24.051 C 127.338 21.431,127.338 18.569,124.718 15.949 L 122.769 14.000 104.551 14.027 C 89.739 14.048,85.992 14.238,84.508 15.044 M150.571 14.995 C 148.249 16.277,147.174 19.343,148.107 22.020 C 149.414 25.769,150.723 26.000,170.685 26.000 L 188.769 26.000 190.718 24.051 C 193.160 21.609,193.283 18.791,191.059 16.204 L 189.451 14.333 170.892 14.177 C 155.651 14.049,152.018 14.195,150.571 14.995 M217.226 15.414 C 216.212 15.790,214.972 17.081,214.334 18.425 C 213.397 20.400,213.351 21.099,214.045 22.774 C 215.277 25.749,216.913 26.457,225.333 27.659 C 229.550 28.260,237.050 29.681,242.000 30.816 C 246.950 31.950,251.750 32.835,252.667 32.781 C 254.439 32.677,258.000 29.284,258.000 27.700 C 258.000 25.764,256.673 23.369,254.991 22.266 C 252.883 20.885,243.036 18.438,232.667 16.718 C 221.572 14.878,219.210 14.679,217.226 15.414 M279.536 33.971 C 278.018 34.896,277.278 35.951,276.961 37.638 C 276.341 40.942,277.732 42.757,283.157 45.723 C 290.179 49.563,296.500 53.536,302.572 57.927 C 305.637 60.143,308.705 62.134,309.389 62.351 C 311.256 62.944,315.107 60.823,315.977 58.722 C 317.682 54.605,315.516 52.027,303.667 44.077 C 295.711 38.740,284.664 32.666,282.917 32.669 C 282.230 32.671,280.708 33.256,279.536 33.971 M330.828 74.981 C 328.743 75.902,327.333 78.150,327.333 80.555 C 327.333 81.179,329.307 84.684,331.720 88.345 C 334.133 92.005,338.178 99.112,340.710 104.138 C 343.242 109.164,345.898 113.589,346.613 113.971 C 348.828 115.156,351.695 114.769,353.569 113.032 C 356.439 110.372,355.996 107.615,351.139 97.918 C 347.204 90.063,339.163 77.129,337.204 75.502 C 335.646 74.210,333.054 73.998,330.828 74.981 M101.607 85.128 L 99.943 86.922 100.138 106.075 L 100.333 125.228 101.950 126.947 C 104.219 129.361,108.106 129.341,110.365 126.903 L 112.000 125.139 112.000 106.536 C 112.000 84.026,111.808 83.333,105.580 83.333 C 103.928 83.333,102.796 83.845,101.607 85.128 M354.970 136.303 C 353.008 138.265,352.912 140.278,354.327 149.741 C 354.873 153.394,355.583 160.675,355.904 165.920 C 356.456 174.932,356.584 175.553,358.226 177.196 C 361.531 180.500,367.326 178.715,368.204 174.121 C 368.964 170.146,366.309 144.245,364.587 138.835 C 363.227 134.562,358.069 133.204,354.970 136.303 M101.950 153.052 C 100.338 154.767,100.333 154.820,100.129 171.886 C 100.016 181.299,100.111 190.009,100.340 191.241 C 101.511 197.561,109.310 198.744,111.723 192.968 C 112.740 190.533,112.930 174.160,112.096 160.774 C 111.712 154.607,111.501 153.746,110.093 152.607 C 107.756 150.716,103.950 150.924,101.950 153.052 M360.219 200.972 C 359.056 201.478,357.768 202.521,357.356 203.291 C 356.839 204.257,356.668 210.482,356.804 223.404 L 357.000 242.117 358.871 243.725 C 361.458 245.949,364.275 245.827,366.718 243.385 L 368.667 241.436 368.667 223.352 C 368.667 203.294,368.449 202.085,364.587 200.739 C 363.422 200.333,362.437 200.012,362.401 200.026 C 362.364 200.040,361.382 200.466,360.219 200.972 M102.303 220.970 L 100.667 222.606 100.667 241.872 L 100.667 261.139 102.302 262.903 C 104.561 265.341,108.448 265.361,110.717 262.946 L 112.333 261.226 112.333 242.000 L 112.333 222.774 110.717 221.054 C 108.513 218.708,104.604 218.669,102.303 220.970 M358.871 268.275 L 357.000 269.883 356.793 287.589 C 356.567 306.955,356.883 308.973,360.397 310.574 C 362.998 311.760,364.472 311.489,366.816 309.394 L 368.987 307.455 369.236 299.609 C 369.373 295.294,369.267 286.819,369.000 280.776 C 368.546 270.473,368.418 269.691,366.955 268.227 C 364.847 266.120,361.353 266.140,358.871 268.275 M102.800 288.685 C 100.852 290.501,100.789 290.965,100.367 306.667 C 100.165 314.183,99.815 322.196,99.589 324.473 C 99.194 328.441,99.261 328.697,101.204 330.640 C 105.161 334.597,110.071 332.520,111.382 326.333 C 111.771 324.500,112.252 315.800,112.452 307.000 L 112.814 291.000 111.106 289.167 C 108.955 286.859,105.006 286.630,102.800 288.685 M358.871 334.275 L 357.000 335.882 356.784 353.108 C 356.544 372.310,356.877 374.718,359.992 376.329 C 362.714 377.737,364.264 377.586,366.510 375.696 L 368.455 374.060 368.916 357.014 C 369.409 338.758,369.071 335.492,366.499 333.691 C 364.316 332.162,361.036 332.413,358.871 334.275 M93.744 355.528 C 92.904 356.369,91.675 358.544,91.014 360.362 C 88.550 367.140,84.095 376.528,80.439 382.647 C 78.364 386.120,76.667 389.476,76.667 390.104 C 76.667 392.597,78.066 394.762,80.272 395.684 C 83.978 397.232,86.145 396.036,89.787 390.430 C 95.636 381.428,103.359 363.816,103.312 359.586 C 103.259 354.808,97.084 352.189,93.744 355.528 M360.317 398.936 C 357.202 400.285,356.667 402.311,356.667 412.749 L 356.667 422.103 358.615 424.051 C 361.058 426.493,363.875 426.616,366.463 424.393 C 368.327 422.791,368.334 422.751,368.552 413.311 C 368.672 408.100,368.592 403.127,368.375 402.260 C 367.637 399.322,363.432 397.588,360.317 398.936 M53.085 408.424 C 47.486 411.457,39.923 413.283,30.094 413.975 C 23.197 414.461,22.367 414.663,20.794 416.236 C 18.517 418.513,18.455 421.979,20.650 424.315 C 22.117 425.877,22.673 426.000,28.283 425.999 C 37.929 425.998,48.844 423.620,57.594 419.614 C 61.978 417.607,63.333 415.943,63.333 412.567 C 63.333 408.040,57.870 405.832,53.085 408.424 " stroke="none" fill-rule="evenodd" ></path></svg>