<?xml version="1.0" encoding="utf-8"?>
<svg version="1.1" viewBox="-10 0 1239 2048" xmlns="http://www.w3.org/2000/svg" xmlns:bx="https://boxy-svg.com">
  <defs>
    <marker id="marker-0" viewBox="0 0 100 100" overflow="visible" orient="auto" refX="50" refY="50" bx:pinned="true">
      <title>Arrowhead</title>
      <path d="M 156.761 44.756 L 203.403 125.54 L 110.119 125.54 L 156.761 44.756 Z" style="stroke: rgb(0, 0, 0);" transform="matrix(0.862945, -0.505298, 0.505298, 0.862945, -155.360611, 44.149979)" bx:shape="triangle 110.119 44.756 93.284 80.784 0.5 0 1@6eb2a68a"/>
    </marker>
  </defs>
  <path d="M 192 415 L 198 410 L 256 410 L 293.5 410 C 293.5 410 321.912 408.363 327 422 C 330.333 430.667 328 437.333 320 442 C 316.667 444.667 295.667 446 257 446 L 198 446 L 192 440 C 188 436.667 186 432.5 186 427.5 C 186 422.5 188 418.333 192 415 Z M 415.737 410.17 C 424.661 408.281 508.5 410 508.5 410 C 508.5 410 519.818 409.675 528 411.5 C 536.182 413.325 539.949 416.437 542 422 C 543.333 426 543.333 430 542 434 C 540.667 436.667 539.333 438.667 538 440 C 536.667 441.333 533.333 442.5 528 443.5 C 522.667 444.5 516.167 445.167 508.5 445.5 C 500.833 445.833 488.333 446 471 446 L 413.966 445.933 C 411.284 445.065 406.678 439.896 407 440 C 403 436.667 401 432.5 401 427.5 C 401 422.5 405.99 411.658 415.737 410.17 Z M 619 427.5 C 622.333 425.167 626.333 424 631 424 C 640.333 424 660.5 428.667 691.5 438 C 722.5 447.333 740.667 454.333 746 459 C 749.333 461.667 751 465.833 751 471.5 C 751 477.167 749.167 481.5 745.5 484.5 C 741.833 487.5 738.667 489 736 489 C 733.333 489 722.667 485.833 704 479.5 C 685.333 473.167 667 467.667 649 463 C 633.667 459 624 455.833 620 453.5 C 616 451.167 614 447 614 441 C 614 434.333 615.667 429.833 619 427.5 Z M 818 508 C 823.333 504 829 503.333 835 506 C 841 508.667 853.667 517.333 873 532 C 885.667 542 897.833 552.833 909.5 564.5 C 921.167 576.167 927.333 583.667 928 587 C 928.667 590.333 928.167 594 926.5 598 C 924.833 602 922.667 604.833 920 606.5 C 917.333 608.167 913.833 609 909.5 609 C 905.167 609 895.667 601.833 881 587.5 C 866.333 573.167 852.333 561 839 551 C 826.333 541.667 818.667 535.5 816 532.5 C 813.333 529.5 812 525.667 812 521 C 812 516.333 814 512 818 508 Z M 961 666 C 968.333 658.667 976 658.333 984 665 C 989.333 669 999 686.667 1013 718 C 1027 749.333 1034 769 1034 777 C 1034 783.667 1030.5 788.5 1023.5 791.5 C 1016.5 794.5 1010.333 794 1005 790 C 1002.333 787.333 998.667 780 994 768 C 984.667 742.667 974.667 719.333 964 698 C 958 686.667 955 679.5 955 676.5 C 955 673.5 957 670 961 666 Z M 1028 869 C 1034 863 1040.167 861.167 1046.5 863.5 C 1052.833 865.833 1057 871.333 1059 880 C 1062.333 896.667 1065.333 925.667 1068 967 L 1069 991 L 1064 998 C 1060 1002 1055.667 1004.167 1051 1004.5 C 1046.333 1004.833 1042 1003 1038 999 C 1034.667 995.667 1032.667 988.333 1032 977 C 1030 943 1027 911.333 1023 882 C 1022.333 877.333 1024 873 1028 869 Z M 1036 1082 C 1042 1076 1049 1075.333 1057 1080 C 1061.667 1082.667 1064.167 1088.5 1064.5 1097.5 C 1064.833 1106.5 1063.333 1124.667 1060 1152 C 1054.667 1188 1049.333 1208.333 1044 1213 C 1036.667 1221 1029 1221 1021 1213 C 1017 1209 1015 1206 1015 1204 C 1015 1202 1016.5 1191.833 1019.5 1173.5 C 1022.5 1155.167 1025 1138.333 1027 1123 C 1028.333 1106.333 1029.5 1096 1030.5 1092 C 1031.5 1088 1033.333 1084.667 1036 1082 Z M 991 1290 C 995.667 1286 1001.333 1285.167 1008 1287.5 C 1014.667 1289.833 1018.667 1294 1020 1300 C 1021.333 1307.333 1013.333 1327.833 996 1361.5 C 978.667 1395.167 966.667 1413.333 960 1416 C 954.667 1418 949.667 1417.667 945 1415 C 940.333 1412.333 937.333 1408 936 1402 C 935.333 1397.333 938.667 1389 946 1377 C 962 1349.667 974.667 1325 984 1303 C 986 1297 988.333 1292.667 991 1290 Z M 877 1466 C 880.333 1464 882.833 1463 884.5 1463 C 886.167 1463 889 1464 893 1466 C 901.667 1470.667 904.333 1477.667 901 1487 C 899 1492.333 887.333 1503.667 866 1521 C 844.667 1538.333 826.333 1550.667 811 1558 C 803.667 1562 798 1563.333 794 1562 C 786 1559.333 782 1554 782 1546 C 782 1541.333 783.333 1537.5 786 1534.5 C 788.667 1531.5 794.667 1527 804 1521 C 827.333 1506.333 846.333 1492.333 861 1479 C 867.667 1472.333 873 1468 877 1466 Z M 689 1575 C 696.333 1571.667 703.167 1571.5 709.5 1574.5 C 715.833 1577.5 719 1582.333 719 1589 C 719 1595.667 715.667 1600.833 709 1604.5 C 702.333 1608.167 687.333 1613 664 1619 C 630.667 1627.667 607.667 1632 595 1632 C 591 1632 587.5 1630.167 584.5 1626.5 C 581.5 1622.833 580 1618.667 580 1614 C 580 1608 582.167 1603.833 586.5 1601.5 C 590.833 1599.167 600.667 1596.333 616 1593 C 650.667 1586.333 675 1580.333 689 1575 Z M 194 1605 C 197.333 1603 213 1602.333 241 1603 L 284 1603 L 289 1609 C 295.667 1617 295.333 1624.667 288 1632 L 282 1638 L 241 1638 C 218.333 1638 204 1637.333 198 1636 C 192 1634.667 188 1631.333 186 1626 C 184.667 1622 184.833 1618 186.5 1614 C 188.167 1610 190.667 1607 194 1605 Z M 376 1604 C 370 1606.667 366.5 1610.833 365.5 1616.5 C 364.5 1622.167 366.333 1627.333 371 1632 L 377 1638 L 437 1638 L 496 1638 L 502 1632 C 510 1624.667 510.333 1617 503 1609 L 498 1603 L 439 1603 C 399.667 1602.333 378.667 1602.667 376 1604 Z" style="stroke: rgb(186, 218, 85);"/>
  <path style="fill: none; stroke: rgb(0, 0, 0); marker-end: url('#marker-0'); stroke-width: 25px;" d="M 329.186 306.086 C 632.518 300.128 828.956 322.396 1010.438 508.183"/>
  <text style="fill: rgb(51, 51, 51); font-family: 'Times New Roman'; font-size: 147px; white-space: pre;" x="196.86" y="351.43">1</text>
  <ellipse style="stroke: rgb(0, 0, 0); fill: none; stroke-width: 25px;" cx="537.723" cy="1005.979" rx="52.554" ry="49.878"/>
  <text style="fill: rgb(51, 51, 51); font-family: 'Times New Roman'; font-size: 147px; white-space: pre;" x="363.317" y="967.848">2</text>
</svg>