<svg viewBox="0 0 400 450" xmlns="http://www.w3.org/2000/svg" xmlns:bx="https://boxy-svg.com"><path d="M111.282 5.949 C 108.881 8.350,108.719 11.212,110.846 13.685 C 112.058 15.093,113.950 15.838,120.346 17.424 C 130.857 20.031,132.454 20.027,134.811 17.389 C 135.831 16.247,136.667 14.688,136.667 13.926 C 136.667 12.200,134.727 8.832,133.451 8.343 C 131.545 7.612,115.821 4.000,114.544 4.000 C 113.822 4.000,112.354 4.877,111.282 5.949 M153.949 15.949 C 150.124 19.774,152.110 24.588,158.210 26.280 C 160.111 26.807,167.117 28.511,173.778 30.066 C 185.392 32.776,185.960 32.846,187.602 31.770 C 188.544 31.153,189.810 29.893,190.414 28.970 C 191.817 26.830,191.022 23.642,188.661 21.934 C 187.173 20.858,159.837 14.000,157.034 14.000 C 156.409 14.000,155.021 14.877,153.949 15.949 M210.847 27.192 C 208.788 27.511,206.667 30.430,206.667 32.942 C 206.667 36.086,208.296 37.859,212.198 38.960 C 221.187 41.497,239.552 45.423,240.878 45.090 C 243.559 44.417,245.333 42.161,245.333 39.424 C 245.333 35.296,243.491 34.162,232.527 31.541 C 217.639 27.982,212.453 26.942,210.847 27.192 M262.939 41.550 C 261.143 43.095,260.749 44.770,260.510 51.870 C 260.422 54.489,262.820 57.257,265.343 57.447 C 266.254 57.516,270.401 57.163,274.559 56.662 C 281.343 55.844,282.675 55.866,287.559 56.878 C 290.551 57.499,293.750 57.995,294.667 57.981 C 298.592 57.921,301.338 52.475,299.137 49.115 C 298.568 48.248,297.105 47.170,295.885 46.720 C 294.665 46.270,292.767 45.472,291.667 44.948 C 290.567 44.423,288.059 43.838,286.093 43.648 C 284.128 43.457,279.377 42.559,275.534 41.651 C 266.890 39.608,265.212 39.595,262.939 41.550 M228.134 59.253 C 219.064 64.704,209.342 73.505,205.035 80.164 C 202.535 84.027,205.291 88.970,209.943 88.970 C 212.253 88.970,213.036 88.374,220.057 81.273 C 225.491 75.777,229.429 72.477,233.829 69.731 C 238.842 66.603,240.096 65.493,240.553 63.776 C 241.316 60.914,240.271 58.174,237.961 56.980 C 235.071 55.485,233.984 55.737,228.134 59.253 M193.539 107.340 C 191.257 108.259,190.121 110.579,188.624 117.376 C 187.652 121.794,187.128 127.177,186.864 135.462 L 186.489 147.258 188.527 149.296 C 191.197 151.966,194.068 152.035,196.614 149.488 C 198.443 147.660,198.463 147.547,198.842 136.655 C 199.109 129.003,199.668 123.685,200.682 119.139 C 202.347 111.682,201.926 109.352,198.606 107.635 C 196.497 106.545,195.637 106.495,193.539 107.340 M188.914 174.238 C 187.222 175.694,187.065 176.261,186.795 181.902 C 186.635 185.252,186.723 193.837,186.991 200.978 C 187.467 213.676,187.515 214.000,189.163 215.648 C 191.376 217.860,194.609 217.892,197.129 215.726 L 199.000 214.118 199.217 199.892 C 199.505 181.039,199.066 176.307,196.837 174.241 C 194.599 172.167,191.323 172.166,188.914 174.238 M189.059 240.718 L 187.333 242.769 187.337 259.551 C 187.339 269.042,187.640 277.411,188.030 278.814 C 188.841 281.734,190.836 283.333,193.667 283.333 C 196.471 283.333,198.492 281.739,199.272 278.913 C 199.677 277.448,199.774 269.881,199.526 259.251 C 199.122 241.993,199.119 241.968,197.470 240.318 C 195.004 237.852,191.323 238.027,189.059 240.718 M189.729 306.453 L 187.943 308.239 188.138 327.178 L 188.333 346.117 190.204 347.725 C 192.758 349.921,195.956 349.862,198.242 347.576 L 200.000 345.818 200.000 327.294 L 200.000 308.769 198.274 306.718 C 195.955 303.962,192.332 303.850,189.729 306.453 M190.431 372.302 L 188.667 373.936 188.667 392.686 L 188.667 411.436 190.615 413.385 C 193.250 416.019,196.097 416.006,198.757 413.346 L 200.744 411.358 200.539 392.621 L 200.333 373.883 198.463 372.275 C 195.979 370.140,192.752 370.150,190.431 372.302 " stroke="none" fill-rule="evenodd" ></path></svg>