<svg viewBox="0 0 400 450" xmlns="http://www.w3.org/2000/svg" xmlns:bx="https://boxy-svg.com"><path d="M68.615 5.949 L 66.667 7.897 66.667 20.223 L 66.667 32.548 68.718 34.274 C 71.294 36.442,74.029 36.484,76.463 34.393 L 78.333 32.785 78.545 21.306 C 78.778 8.640,78.363 6.567,75.273 4.969 C 72.488 3.529,70.784 3.780,68.615 5.949 M268.366 10.298 C 260.026 14.660,249.953 21.658,243.500 27.573 C 241.267 29.620,240.667 30.634,240.667 32.364 C 240.667 35.474,241.229 36.579,243.381 37.691 C 246.643 39.378,248.175 38.883,254.058 34.244 C 261.820 28.124,268.270 23.852,274.461 20.730 C 277.356 19.271,280.295 17.445,280.993 16.674 C 282.885 14.583,282.575 10.759,280.358 8.852 C 277.690 6.557,274.867 6.897,268.366 10.298 M308.438 8.088 C 307.762 8.481,306.793 9.797,306.286 11.011 C 305.006 14.074,306.058 16.753,309.414 18.974 C 314.284 22.197,318.090 30.438,319.991 41.874 C 321.029 48.122,322.725 50.303,326.543 50.303 C 329.755 50.303,331.811 48.692,332.361 45.742 C 333.112 41.716,328.504 24.392,325.160 18.667 C 323.169 15.259,318.041 10.086,315.193 8.613 C 312.436 7.186,310.277 7.019,308.438 8.088 M217.491 52.444 C 215.716 53.159,193.206 79.116,191.393 82.539 C 189.510 86.094,192.744 90.667,197.141 90.667 C 199.804 90.667,200.371 90.145,208.766 79.981 C 211.937 76.141,216.977 70.353,219.967 67.119 C 225.832 60.773,226.720 59.249,226.186 56.451 C 225.553 53.141,220.986 51.037,217.491 52.444 M70.333 60.630 C 66.854 62.054,66.820 62.254,66.568 83.388 C 66.315 104.658,66.462 105.752,69.771 107.260 C 73.257 108.848,76.711 107.411,77.950 103.857 C 78.948 100.993,78.914 66.908,77.910 64.028 C 77.397 62.556,76.437 61.558,74.931 60.928 C 72.431 59.883,72.195 59.868,70.333 60.630 M325.636 76.303 C 324.076 77.864,324.003 78.304,324.060 85.803 C 324.093 90.128,324.318 99.285,324.560 106.152 C 324.989 118.319,325.043 118.679,326.667 120.267 C 329.239 122.783,332.573 122.821,335.030 120.364 C 336.645 118.749,336.666 118.572,336.631 107.197 C 336.612 100.855,336.356 91.639,336.062 86.716 C 335.550 78.120,335.458 77.705,333.727 76.216 C 331.275 74.107,327.795 74.144,325.636 76.303 M70.333 132.616 C 69.600 132.924,68.400 133.843,67.667 134.658 C 66.395 136.071,66.333 137.078,66.333 156.349 L 66.333 176.558 67.950 178.279 C 70.104 180.573,74.064 180.664,76.258 178.469 C 77.755 176.972,77.799 176.536,78.263 158.498 C 78.524 148.356,78.543 139.020,78.305 137.752 C 77.580 133.884,73.528 131.274,70.333 132.616 M327.467 148.018 C 326.669 148.762,325.845 150.052,325.636 150.886 C 325.427 151.719,325.348 161.004,325.461 171.520 L 325.667 190.639 327.415 192.386 C 329.518 194.487,333.382 194.766,335.377 192.961 C 337.841 190.730,338.143 187.398,337.630 168.085 C 337.153 150.127,337.111 149.717,335.602 148.208 C 333.593 146.199,329.522 146.104,327.467 148.018 M69.651 204.936 C 66.176 206.440,66.000 207.607,66.000 229.062 L 66.000 248.727 67.636 250.364 C 69.937 252.664,73.846 252.625,76.050 250.281 L 77.667 248.561 77.863 229.114 C 77.972 218.418,77.892 208.995,77.686 208.175 C 76.970 205.317,72.723 203.606,69.651 204.936 M326.922 220.231 C 325.178 221.731,325.083 222.147,324.591 230.398 C 324.309 235.129,323.725 243.862,323.293 249.805 C 322.861 255.748,322.698 261.369,322.931 262.297 C 324.209 267.388,332.097 267.299,334.058 262.171 C 334.788 260.264,336.664 235.529,336.666 227.802 C 336.667 222.315,336.553 221.831,334.903 220.302 C 332.601 218.169,329.353 218.140,326.922 220.231 M69.571 276.661 C 65.824 278.173,65.198 283.478,66.699 301.000 C 67.919 315.236,69.031 320.791,71.007 322.500 C 73.451 324.615,76.322 324.448,78.718 322.051 C 80.847 319.922,81.095 317.928,80.009 311.667 C 79.691 309.833,79.087 302.633,78.667 295.667 C 77.718 279.905,77.323 278.206,74.313 276.948 C 71.746 275.876,71.547 275.864,69.571 276.661 M320.030 291.833 C 318.271 293.452,317.796 294.784,315.971 303.233 C 314.834 308.494,312.725 316.790,311.285 321.667 C 309.845 326.545,308.667 330.993,308.667 331.550 C 308.667 332.108,309.443 333.487,310.393 334.616 C 313.820 338.689,319.617 336.648,321.177 330.820 C 321.543 329.452,322.757 325.183,323.874 321.333 C 326.657 311.751,329.333 299.401,329.333 296.146 C 329.333 293.956,328.949 293.129,327.282 291.726 C 324.648 289.510,322.520 289.541,320.030 291.833 M81.165 347.989 C 78.358 350.197,78.312 352.231,80.942 357.769 C 86.027 368.477,99.409 385.042,104.272 386.646 C 109.746 388.453,114.068 382.725,110.829 377.955 C 110.190 377.014,107.978 374.569,105.915 372.522 C 101.464 368.107,97.160 362.208,92.564 354.220 C 90.719 351.013,88.712 348.011,88.104 347.549 C 86.443 346.285,83.058 346.500,81.165 347.989 M296.867 358.335 C 296.081 358.886,292.868 362.757,289.728 366.937 C 286.324 371.469,281.188 377.163,277.009 381.038 C 270.449 387.121,270.000 387.703,270.000 390.102 C 270.000 394.179,273.577 396.753,277.777 395.698 C 280.455 395.026,297.024 378.028,301.527 371.333 C 306.163 364.442,306.540 361.801,303.282 359.059 C 300.957 357.103,298.950 356.876,296.867 358.335 M133.097 394.968 C 130.753 397.141,130.641 401.117,132.865 403.207 C 135.343 405.534,147.810 409.341,161.534 411.959 C 171.859 413.930,174.134 413.825,176.274 411.282 C 178.241 408.945,178.417 407.406,177.025 404.714 C 175.802 402.351,175.609 402.281,164.709 400.268 C 155.966 398.653,147.373 396.476,141.416 394.366 C 137.322 392.917,135.141 393.074,133.097 394.968 M239.000 400.721 C 234.206 402.174,224.939 403.394,215.672 403.792 C 205.907 404.211,205.635 404.263,203.838 406.059 C 201.294 408.603,201.369 411.472,204.050 414.153 L 206.100 416.203 216.217 415.776 C 232.210 415.103,245.703 412.436,248.019 409.491 C 251.149 405.512,248.500 399.945,243.530 400.057 C 242.139 400.089,240.100 400.387,239.000 400.721 " stroke="none" fill-rule="evenodd" ></path></svg>