<svg viewBox="0 0 400 450" xmlns="http://www.w3.org/2000/svg" xmlns:bx="https://boxy-svg.com"><path d="M234.393 17.384 C 232.507 19.625,232.248 21.302,233.442 23.544 C 234.656 25.823,235.967 26.508,241.333 27.670 C 251.949 29.968,260.379 33.317,269.715 38.947 C 274.488 41.825,277.354 42.040,279.697 39.697 C 282.014 37.380,281.930 33.825,279.500 31.404 C 274.737 26.658,261.076 20.235,249.429 17.264 C 239.328 14.688,236.643 14.709,234.393 17.384 M42.149 18.531 C 41.270 19.208,40.464 20.735,40.232 22.162 C 39.865 24.423,40.643 26.045,49.654 41.813 C 55.056 51.266,60.118 59.969,60.904 61.153 C 63.426 64.952,67.723 65.610,70.684 62.650 C 73.501 59.833,72.717 57.710,61.846 38.730 C 56.261 28.978,50.884 20.175,49.897 19.167 C 47.780 17.004,44.485 16.733,42.149 18.531 M191.667 19.289 C 180.988 23.005,167.244 30.914,160.894 36.999 C 158.724 39.078,158.000 40.278,158.000 41.796 C 158.000 45.810,162.106 48.687,165.820 47.275 C 166.674 46.950,170.005 44.795,173.222 42.485 C 180.484 37.270,188.349 33.140,195.836 30.609 C 198.995 29.542,202.274 28.015,203.123 27.218 C 205.290 25.182,205.246 21.185,203.030 18.970 C 200.907 16.847,198.492 16.915,191.667 19.289 M298.615 60.615 C 297.468 61.763,296.667 63.272,296.667 64.286 C 296.667 65.233,298.934 70.338,301.704 75.630 C 304.475 80.923,308.344 89.507,310.303 94.707 C 314.089 104.757,315.159 106.399,318.346 107.036 C 320.690 107.505,323.708 105.521,324.726 102.843 C 326.489 98.207,310.336 62.254,305.327 59.663 C 302.488 58.195,300.796 58.435,298.615 60.615 M136.199 65.849 C 134.132 66.180,131.524 69.381,126.498 77.753 C 121.840 85.512,113.496 101.801,112.616 104.852 C 111.870 107.442,113.109 110.517,115.373 111.687 C 120.166 114.166,121.893 112.497,128.845 98.667 C 131.887 92.617,136.391 84.469,138.854 80.561 C 143.518 73.161,144.176 70.834,142.344 68.217 C 141.214 66.604,138.357 65.503,136.199 65.849 M84.255 89.056 C 82.164 90.087,80.667 92.390,80.667 94.575 C 80.667 95.840,101.075 131.873,102.990 133.989 C 103.622 134.687,104.999 135.447,106.050 135.678 C 109.873 136.517,114.099 132.164,112.971 128.549 C 112.705 127.697,107.679 118.639,101.801 108.420 C 92.501 92.252,90.828 89.721,88.912 88.920 C 86.282 87.822,86.786 87.807,84.255 89.056 M325.353 134.853 C 322.119 136.489,321.639 138.426,322.565 146.102 C 323.862 156.850,324.644 167.701,324.656 175.129 C 324.666 181.329,324.807 182.089,326.263 183.781 C 328.537 186.425,332.796 186.425,335.071 183.781 C 336.566 182.043,336.667 181.411,336.666 173.796 C 336.665 161.923,334.710 141.739,333.175 137.751 C 332.727 136.588,331.574 135.476,330.240 134.918 C 327.579 133.806,327.426 133.804,325.353 134.853 M101.529 139.085 C 99.130 140.267,98.546 141.561,95.349 152.788 C 92.496 162.804,88.018 181.366,88.008 183.218 C 87.996 185.526,91.449 188.667,94.000 188.667 C 97.844 188.667,99.468 186.110,101.624 176.667 C 102.671 172.083,104.984 163.154,106.764 156.823 C 108.544 150.492,110.000 144.697,110.000 143.945 C 110.000 141.859,108.830 140.119,106.680 139.007 C 104.296 137.774,104.183 137.776,101.529 139.085 M327.887 215.020 C 324.694 216.754,324.465 218.862,325.005 241.546 L 325.499 262.268 327.365 264.134 C 329.454 266.223,331.179 266.459,333.939 265.031 C 337.255 263.317,337.422 261.998,337.202 239.276 C 336.985 216.829,336.900 216.261,333.505 214.714 C 331.438 213.772,330.045 213.848,327.887 215.020 M84.872 216.673 C 84.069 216.997,82.934 217.989,82.352 218.879 C 81.253 220.556,72.667 258.227,72.667 261.371 C 72.667 263.754,74.898 266.465,77.293 266.991 C 79.850 267.553,82.934 265.933,83.881 263.531 C 84.286 262.506,86.573 252.749,88.965 241.849 C 93.646 220.513,93.669 220.077,90.293 217.421 C 88.360 215.900,87.191 215.739,84.872 216.673 M327.537 295.609 L 325.667 297.218 325.667 319.664 L 325.667 342.110 327.844 344.055 C 330.292 346.242,331.849 346.457,334.674 344.996 C 337.986 343.283,338.224 341.161,337.671 318.275 L 337.174 297.738 335.305 295.869 C 332.943 293.508,330.091 293.412,327.537 295.609 M65.779 296.167 C 64.567 297.384,63.442 301.506,59.809 318.039 C 57.348 329.244,55.333 339.092,55.333 339.924 C 55.333 340.755,56.210 342.313,57.282 343.385 C 59.695 345.798,62.545 345.948,65.048 343.794 C 66.679 342.392,67.248 340.389,71.449 321.294 C 73.984 309.766,75.907 299.727,75.722 298.987 C 74.666 294.767,68.823 293.110,65.779 296.167 M48.683 374.316 C 47.421 375.660,46.284 379.771,42.554 396.483 C 39.720 409.182,38.126 417.696,38.372 418.825 C 38.896 421.234,41.659 423.333,44.307 423.333 C 46.734 423.333,48.949 421.362,49.956 418.305 C 51.581 413.374,58.762 378.473,58.427 377.137 C 57.313 372.697,51.724 371.079,48.683 374.316 M327.949 375.949 L 326.000 377.897 326.000 398.849 C 326.000 412.464,326.259 420.543,326.739 421.921 C 327.502 424.111,330.228 426.000,332.623 426.000 C 334.361 426.000,337.896 422.738,338.042 421.000 C 338.103 420.267,338.119 410.269,338.077 398.782 L 338.000 377.897 336.051 375.949 C 334.721 374.619,333.435 374.000,332.000 374.000 C 330.565 374.000,329.279 374.619,327.949 375.949 M169.667 414.770 C 167.517 415.946,166.665 417.430,166.688 419.961 C 166.711 422.575,167.579 424.047,169.790 425.224 C 171.836 426.314,212.831 426.314,214.877 425.224 C 217.087 424.047,217.958 422.571,217.958 420.000 C 217.958 417.429,217.087 415.953,214.877 414.776 C 212.906 413.726,171.585 413.721,169.667 414.770 M249.667 414.770 C 247.517 415.946,246.665 417.430,246.688 419.961 C 246.711 422.575,247.579 424.047,249.790 425.224 C 251.836 426.314,292.831 426.314,294.877 425.224 C 297.087 424.047,297.958 422.571,297.958 420.000 C 297.958 417.429,297.087 415.953,294.877 414.776 C 292.906 413.726,251.585 413.721,249.667 414.770 " stroke="none" fill-rule="evenodd" ></path></svg>