<svg viewBox="0 0 372 440" xmlns="http://www.w3.org/2000/svg" xmlns:bx="https://boxy-svg.com"><path d="M35.227 16.138 C 33.599 17.765,33.399 18.324,33.723 20.323 C 33.930 21.592,34.061 22.909,34.014 23.250 C 33.968 23.591,33.821 32.463,33.687 42.965 L 33.445 62.060 35.275 63.890 C 37.852 66.468,40.998 66.431,43.461 63.794 L 45.260 61.869 45.260 43.954 L 45.260 26.040 59.820 26.040 L 74.380 26.040 76.288 24.335 C 79.334 21.612,78.766 16.558,75.233 14.948 C 74.234 14.493,67.512 14.260,55.413 14.260 L 37.105 14.260 35.227 16.138 M102.526 14.985 C 99.162 16.614,98.688 21.685,101.652 24.335 L 103.560 26.040 121.995 26.026 C 138.525 26.014,140.567 25.902,141.752 24.941 C 144.944 22.356,145.309 18.734,142.648 16.072 L 140.835 14.260 122.343 14.302 C 110.965 14.328,103.341 14.591,102.526 14.985 M167.436 15.989 C 164.848 18.576,164.817 21.692,167.352 24.228 L 169.165 26.040 178.667 26.041 C 183.894 26.041,191.239 26.335,194.990 26.695 C 206.009 27.751,206.454 27.711,208.443 25.485 C 210.632 23.035,210.767 19.964,208.785 17.684 C 206.797 15.398,203.144 14.905,184.951 14.468 L 169.332 14.092 167.436 15.989 M233.213 23.267 C 230.857 25.249,230.246 27.819,231.537 30.316 C 232.778 32.715,233.128 32.887,242.345 35.609 C 246.566 36.856,253.885 39.398,258.611 41.258 C 263.336 43.118,267.743 44.640,268.404 44.640 C 270.177 44.640,273.270 41.772,273.724 39.708 C 274.275 37.199,272.650 34.364,269.842 32.938 C 263.603 29.769,239.541 21.700,236.330 21.700 C 235.640 21.700,234.237 22.405,233.213 23.267 M292.592 50.792 C 290.676 52.708,290.209 55.435,291.412 57.683 C 291.760 58.333,294.759 61.025,298.077 63.666 C 301.395 66.307,307.343 71.756,311.295 75.774 C 317.775 82.362,318.696 83.080,320.667 83.080 C 325.241 83.080,327.942 78.522,325.810 74.400 C 324.264 71.411,310.496 57.875,304.170 53.125 C 297.663 48.238,295.568 47.816,292.592 50.792 M36.890 87.363 C 36.208 87.655,35.092 88.514,34.410 89.272 C 33.227 90.586,33.170 91.522,33.170 109.480 L 33.170 128.311 34.793 129.935 C 36.739 131.880,40.006 132.181,42.370 130.632 C 45.000 128.909,45.333 126.133,45.133 107.568 L 44.950 90.546 43.400 88.998 C 41.678 87.278,38.785 86.551,36.890 87.363 M334.872 100.211 C 334.079 100.767,333.042 102.148,332.569 103.280 C 331.758 105.222,331.864 105.753,334.445 112.654 C 336.975 119.418,339.082 126.950,340.984 136.029 C 341.952 140.649,343.748 142.600,347.034 142.600 C 349.893 142.600,351.726 141.425,352.759 138.931 C 353.408 137.364,353.315 136.076,352.171 130.733 C 349.139 116.568,344.358 103.149,341.483 100.730 C 339.380 98.960,336.932 98.768,334.872 100.211 M34.465 155.048 L 32.860 156.955 32.860 175.555 L 32.860 194.155 34.672 195.968 C 37.631 198.927,41.968 198.126,43.947 194.256 C 44.411 193.349,44.640 186.872,44.640 174.655 L 44.640 156.409 43.005 154.775 C 40.562 152.331,36.646 152.456,34.465 155.048 M347.441 164.274 C 346.720 164.573,345.499 165.607,344.725 166.573 L 343.319 168.330 343.725 186.216 C 344.179 206.202,344.354 207.074,348.156 208.328 C 349.880 208.898,350.784 208.890,352.221 208.295 C 355.835 206.798,355.880 206.543,355.877 187.877 C 355.875 177.932,355.603 169.837,355.226 168.479 C 354.290 165.110,350.441 163.031,347.441 164.274 M34.575 220.669 L 32.550 222.478 32.550 241.492 L 32.550 260.507 34.290 262.003 C 36.663 264.046,40.420 264.057,42.449 262.028 C 44.519 259.957,44.745 257.433,44.524 238.803 L 44.330 222.476 42.305 220.668 C 39.651 218.298,37.228 218.298,34.575 220.669 M346.355 231.655 L 344.720 233.289 344.720 251.525 C 344.720 266.578,344.883 270.078,345.656 271.572 C 348.276 276.638,355.748 275.254,356.702 269.526 C 356.884 268.428,356.844 259.763,356.612 250.271 L 356.190 233.011 354.450 231.516 C 352.010 229.417,348.532 229.477,346.355 231.655 M36.756 285.074 C 36.001 285.187,34.675 286.121,33.811 287.148 L 32.240 289.015 32.240 307.484 C 32.240 325.051,32.301 326.030,33.488 327.539 C 35.041 329.513,37.922 330.205,40.370 329.191 C 43.858 327.746,44.020 326.748,44.020 306.705 L 44.020 288.469 42.455 286.904 C 40.827 285.276,39.098 284.721,36.756 285.074 M348.056 296.898 C 346.992 297.561,345.807 299.008,345.421 300.114 C 344.636 302.365,344.510 314.920,345.135 328.576 C 345.509 336.751,345.668 337.664,346.939 338.935 C 348.798 340.794,351.152 341.311,353.441 340.363 C 357.041 338.872,357.192 337.913,356.991 317.743 L 356.810 299.486 355.260 297.938 C 353.103 295.783,350.456 295.401,348.056 296.898 M33.955 352.728 L 31.930 354.536 31.739 372.353 C 31.602 385.155,31.757 390.673,32.289 391.959 C 34.569 397.462,42.445 396.458,43.634 390.514 C 44.324 387.063,44.070 356.828,43.333 354.714 C 42.587 352.574,40.065 350.920,37.551 350.920 C 36.687 350.920,35.068 351.734,33.955 352.728 M347.048 363.642 L 345.486 365.203 345.032 381.836 C 344.783 390.983,344.774 399.622,345.012 401.033 C 346.071 407.304,353.597 408.730,356.427 403.196 C 356.891 402.290,357.120 395.859,357.120 383.773 L 357.120 365.705 355.308 363.892 C 352.891 361.476,349.322 361.367,347.048 363.642 M36.927 415.481 C 34.625 417.292,33.901 419.427,34.733 421.949 C 36.030 425.879,36.370 425.940,57.046 425.940 L 75.696 425.940 77.193 424.443 C 79.149 422.487,79.687 420.166,78.723 417.839 C 77.268 414.326,76.267 414.160,56.534 414.160 C 39.178 414.160,38.554 414.202,36.927 415.481 M103.761 414.761 C 100.129 416.264,99.333 421.208,102.252 424.128 L 104.065 425.940 122.665 425.940 L 141.265 425.940 143.172 424.335 C 145.648 422.251,145.823 418.813,143.584 416.210 L 142.089 414.470 123.589 414.341 C 113.415 414.270,104.492 414.459,103.761 414.761 M169.155 415.108 C 166.978 416.291,165.911 419.462,166.817 422.061 C 168.145 425.869,168.548 425.940,188.790 425.940 C 209.165 425.940,209.490 425.880,210.809 421.883 C 211.669 419.277,210.310 415.941,207.951 414.866 C 205.462 413.732,171.297 413.945,169.155 415.108 M234.338 415.946 C 231.713 418.571,231.743 422.092,234.408 424.335 L 236.315 425.940 254.915 425.940 L 273.515 425.940 275.328 424.128 C 277.660 421.796,277.784 418.698,275.644 416.210 L 274.149 414.470 255.163 414.289 L 236.176 414.108 234.338 415.946 M301.251 415.090 C 297.884 416.920,297.460 421.516,300.387 424.443 L 301.884 425.940 320.534 425.940 C 341.210 425.940,341.550 425.879,342.847 421.949 C 343.679 419.427,342.955 417.292,340.653 415.481 C 339.024 414.200,338.424 414.161,320.921 414.185 C 306.540 414.205,302.541 414.389,301.251 415.090 " stroke="none" fill-rule="evenodd" ></path></svg>