<svg viewBox="0 0 400 450" xmlns="http://www.w3.org/2000/svg" xmlns:bx="https://boxy-svg.com"><path d="M25.000 13.094 C 20.629 14.316,19.111 19.955,22.346 22.954 C 23.984 24.471,24.454 24.522,41.271 24.998 C 53.786 25.353,59.162 25.273,60.870 24.710 C 65.375 23.223,66.765 18.280,63.576 15.091 C 61.921 13.436,61.444 13.333,55.409 13.331 C 51.884 13.330,43.900 13.192,37.667 13.025 C 31.433 12.858,25.733 12.889,25.000 13.094 M88.481 15.034 C 86.024 17.492,85.978 21.120,88.376 23.373 C 89.786 24.698,90.928 25.021,94.924 25.223 L 99.764 25.467 97.882 27.349 C 95.403 29.828,95.299 33.360,97.636 35.697 C 100.122 38.183,102.511 37.797,110.257 33.661 C 117.615 29.732,123.714 27.438,130.654 25.988 C 133.352 25.425,135.543 24.518,136.487 23.573 C 138.546 21.514,138.504 17.994,136.391 15.537 L 134.783 13.667 112.539 13.443 L 90.295 13.220 88.481 15.034 M154.303 15.636 C 151.078 18.861,152.621 24.036,157.186 25.304 C 161.164 26.408,190.881 26.207,193.634 25.056 C 197.692 23.361,198.640 18.822,195.576 15.758 L 193.818 14.000 174.879 14.000 L 155.939 14.000 154.303 15.636 M221.667 14.805 C 219.547 16.021,218.711 17.491,218.688 20.041 C 218.664 22.700,220.484 25.138,222.852 25.617 C 223.667 25.783,226.425 26.101,228.982 26.326 C 234.261 26.790,244.756 29.178,251.667 31.489 C 257.082 33.300,258.591 33.210,260.717 30.946 C 262.804 28.725,262.787 25.257,260.678 23.012 C 258.592 20.792,247.013 17.045,236.886 15.314 C 228.235 13.835,223.627 13.681,221.667 14.805 M282.667 37.839 C 280.090 39.129,278.912 41.564,279.579 44.222 C 279.849 45.296,282.389 47.994,286.198 51.252 C 289.597 54.160,295.564 59.868,299.457 63.936 C 305.804 70.568,306.774 71.333,308.845 71.333 C 313.122 71.333,316.107 67.455,314.693 63.735 C 313.227 59.880,297.629 44.321,289.870 38.975 C 286.657 36.761,285.261 36.541,282.667 37.839 M73.290 51.152 C 67.263 58.015,56.000 78.776,56.000 83.020 C 56.000 87.700,61.736 90.491,65.206 87.500 C 65.951 86.858,68.539 82.451,70.958 77.707 C 73.377 72.962,77.339 66.130,79.762 62.524 C 83.752 56.588,84.132 55.733,83.772 53.484 C 83.270 50.352,81.249 48.667,77.995 48.667 C 75.916 48.667,75.087 49.105,73.290 51.152 M323.091 89.091 C 322.112 90.070,321.333 91.601,321.333 92.546 C 321.333 93.479,323.090 98.014,325.237 102.622 C 327.383 107.230,330.559 114.676,332.293 119.169 C 335.517 127.520,336.867 129.333,339.859 129.333 C 343.278 129.333,345.945 126.847,345.979 123.628 C 346.009 120.712,339.384 103.389,334.521 93.667 C 331.296 87.221,326.772 85.410,323.091 89.091 M47.856 109.158 C 46.860 109.776,45.739 111.043,45.364 111.974 C 43.928 115.541,38.000 143.626,38.000 146.864 C 38.000 147.545,38.877 148.979,39.949 150.051 C 43.053 153.156,47.996 152.518,49.397 148.833 C 49.763 147.869,50.814 143.013,51.731 138.040 C 52.648 133.068,54.134 126.096,55.033 122.546 C 57.185 114.043,57.144 112.374,54.718 109.949 C 52.518 107.749,50.503 107.517,47.856 109.158 M344.615 151.282 C 342.309 153.589,342.275 154.242,343.969 163.717 C 344.686 167.723,345.752 174.900,346.339 179.667 C 347.600 189.906,348.207 191.728,350.809 193.074 C 354.732 195.102,359.333 192.177,359.333 187.654 C 359.333 184.835,356.957 167.508,355.410 159.052 C 354.395 153.501,353.910 152.187,352.396 150.885 C 349.878 148.718,347.034 148.864,344.615 151.282 M36.283 174.874 C 34.711 176.226,34.425 177.106,33.955 182.041 C 33.660 185.135,33.211 193.517,32.958 200.667 C 32.510 213.301,32.537 213.717,33.923 215.449 C 36.993 219.284,42.704 218.172,43.945 213.496 C 44.521 211.323,46.030 186.199,46.008 179.136 C 45.992 173.962,40.263 171.451,36.283 174.874 M352.592 215.639 C 351.634 216.175,350.528 217.450,350.134 218.473 C 349.719 219.551,349.302 227.622,349.141 237.667 C 348.841 256.446,349.027 257.706,352.315 259.204 C 355.002 260.428,356.453 260.172,358.823 258.055 L 361.000 256.110 361.228 237.497 L 361.456 218.883 359.894 217.108 C 357.989 214.940,354.940 214.327,352.592 215.639 M34.538 241.360 L 32.511 243.386 32.953 250.527 C 33.637 261.563,35.336 277.427,36.095 279.845 C 36.799 282.090,39.475 284.000,41.916 284.000 C 42.639 284.000,44.154 283.223,45.282 282.274 C 47.733 280.212,47.743 280.047,46.342 264.667 C 45.791 258.617,45.158 251.288,44.935 248.381 C 44.581 243.752,44.297 242.861,42.650 241.214 C 40.071 238.635,37.211 238.686,34.538 241.360 M347.353 282.500 C 345.603 284.103,345.136 285.372,343.627 292.614 C 342.679 297.168,340.740 304.940,339.319 309.884 C 336.942 318.152,336.808 319.047,337.644 321.049 C 339.309 325.035,343.374 325.841,346.631 322.833 C 348.803 320.827,351.541 312.390,354.931 297.253 C 357.278 286.779,357.231 284.593,354.616 282.393 C 351.982 280.176,349.855 280.208,347.353 282.500 M44.819 305.113 C 43.209 305.761,41.843 309.417,42.253 311.980 C 42.831 315.595,47.675 330.425,50.686 337.795 C 53.857 345.559,55.342 347.341,58.616 347.312 C 61.241 347.289,62.713 346.423,63.891 344.210 C 65.099 341.943,64.874 340.792,61.672 332.826 C 60.025 328.729,57.484 321.420,56.025 316.585 C 53.010 306.593,51.696 304.639,48.050 304.719 C 46.739 304.748,45.285 304.925,44.819 305.113 M326.817 343.488 C 325.983 343.890,323.940 346.460,322.277 349.199 C 318.713 355.069,313.069 362.845,308.584 368.065 C 304.415 372.917,303.728 374.726,304.948 377.645 C 306.402 381.126,309.831 382.315,313.110 380.476 C 316.043 378.832,327.220 364.385,332.888 354.913 C 335.936 349.819,336.058 347.289,333.385 344.615 C 331.347 342.578,329.399 342.243,326.817 343.488 M72.905 364.661 C 70.871 365.482,69.333 367.950,69.333 370.395 C 69.333 371.846,70.197 373.597,72.137 376.080 C 80.298 386.520,92.940 398.875,96.332 399.726 C 100.498 400.771,104.817 396.235,103.344 392.361 C 102.988 391.424,98.865 386.935,94.181 382.384 C 89.498 377.834,84.317 372.307,82.667 370.103 C 78.533 364.582,76.252 363.310,72.905 364.661 M278.989 393.399 C 272.314 397.316,265.111 400.877,258.345 403.606 C 255.110 404.910,251.926 406.464,251.269 407.058 C 248.309 409.737,249.459 415.062,253.344 416.671 C 255.218 417.447,255.977 417.320,261.209 415.348 C 268.513 412.595,280.395 406.694,285.855 403.107 C 290.422 400.107,291.632 397.853,290.485 394.480 C 289.840 392.581,287.014 390.667,284.856 390.667 C 284.190 390.667,281.550 391.896,278.989 393.399 M123.136 405.731 C 119.668 407.611,119.073 411.659,121.833 414.596 C 125.492 418.489,153.920 426.636,159.326 425.341 C 160.238 425.122,161.640 423.972,162.440 422.784 C 163.614 421.043,163.780 420.225,163.301 418.554 C 162.288 415.023,160.981 414.196,154.535 413.012 C 147.645 411.746,137.784 408.971,131.087 406.415 C 125.804 404.398,125.623 404.382,123.136 405.731 M219.333 413.438 C 217.317 413.771,209.804 414.140,202.638 414.258 C 188.916 414.483,187.505 414.767,185.592 417.687 C 184.242 419.748,184.800 423.311,186.750 425.075 C 188.020 426.224,189.274 426.327,201.237 426.257 C 221.712 426.136,227.347 424.964,228.940 420.494 C 229.845 417.956,228.262 414.708,225.573 413.585 C 224.365 413.080,223.292 412.704,223.188 412.750 C 223.085 412.796,221.350 413.105,219.333 413.438 " stroke="none" fill-rule="evenodd" ></path></svg>