<svg viewBox="0 0 400 450" xmlns="http://www.w3.org/2000/svg" xmlns:bx="https://boxy-svg.com"><path d="M172.902 14.477 C 166.660 14.694,166.002 14.846,164.402 16.447 C 161.225 19.624,162.692 24.726,167.136 25.953 C 168.541 26.341,176.340 26.436,186.751 26.192 C 203.572 25.799,204.078 25.747,205.684 24.259 C 208.006 22.107,207.973 18.167,205.615 15.950 C 203.930 14.365,203.656 14.332,191.781 14.288 C 185.118 14.262,176.622 14.348,172.902 14.477 M100.219 15.639 C 96.341 17.325,95.546 21.233,98.393 24.616 L 100.119 26.667 118.675 26.667 L 137.231 26.667 139.282 24.941 C 142.053 22.610,142.182 18.723,139.569 16.302 L 137.805 14.667 120.069 14.693 C 106.506 14.713,101.836 14.935,100.219 15.639 M34.238 15.994 C 30.375 17.553,29.571 22.341,32.654 25.423 L 34.642 27.411 53.307 27.205 L 71.972 27.000 73.601 25.333 C 76.116 22.760,76.155 19.427,73.697 16.970 L 72.061 15.333 53.864 15.376 C 43.855 15.399,35.024 15.677,34.238 15.994 M230.907 18.307 C 230.142 18.842,229.150 20.167,228.701 21.251 C 228.021 22.893,228.069 23.610,228.989 25.549 C 230.167 28.032,230.152 28.024,240.000 31.319 C 243.483 32.485,250.041 35.365,254.572 37.719 C 259.103 40.074,263.661 42.000,264.701 42.000 C 267.189 42.000,269.897 39.545,270.421 36.813 C 270.792 34.883,270.533 34.333,268.205 32.119 C 264.845 28.922,252.197 22.664,243.022 19.659 C 235.208 17.099,232.986 16.851,230.907 18.307 M286.559 52.741 C 285.538 53.123,284.300 54.426,283.644 55.808 C 282.543 58.128,282.553 58.306,283.931 60.939 C 284.717 62.439,286.973 66.014,288.946 68.883 C 292.270 73.716,299.333 87.068,299.333 88.517 C 299.333 88.866,300.124 89.942,301.091 90.909 C 304.775 94.594,310.992 92.068,310.948 86.904 C 310.907 82.004,300.370 62.409,293.892 55.185 C 291.444 52.454,289.266 51.729,286.559 52.741 M310.678 113.524 C 308.005 114.876,307.678 117.016,308.596 127.139 C 309.054 132.196,309.653 140.352,309.928 145.264 C 310.409 153.890,310.488 154.249,312.250 155.764 C 314.791 157.950,317.969 157.846,320.331 155.500 L 322.178 153.667 321.785 142.333 C 321.374 130.470,320.382 120.466,319.261 116.888 C 318.106 113.201,314.280 111.702,310.678 113.524 M313.440 179.734 C 310.720 181.639,310.536 183.341,311.042 201.894 C 311.515 219.225,311.542 219.479,313.153 221.394 C 315.389 224.051,319.324 224.131,321.698 221.569 C 323.302 219.840,323.333 219.584,323.330 208.403 C 323.329 202.131,323.132 193.620,322.894 189.488 C 322.502 182.680,322.307 181.822,320.807 180.322 C 318.870 178.385,315.724 178.134,313.440 179.734 M313.949 246.615 C 312.005 248.559,312.000 248.587,312.002 256.782 C 312.003 261.302,312.201 269.731,312.441 275.514 C 312.856 285.533,312.954 286.106,314.529 287.681 C 316.996 290.148,320.676 289.973,322.941 287.282 C 324.564 285.354,324.667 284.802,324.667 278.055 C 324.667 274.109,324.467 265.809,324.222 259.611 C 323.782 248.460,323.758 248.323,321.940 246.504 C 319.435 243.999,316.525 244.039,313.949 246.615 M315.282 312.615 L 313.333 314.564 313.362 330.782 C 313.394 348.688,313.811 352.361,316.010 354.142 C 318.114 355.846,321.547 355.660,323.796 353.721 L 325.667 352.108 325.469 334.221 C 325.349 323.333,324.986 315.604,324.542 314.469 C 323.761 312.472,320.962 310.667,318.648 310.667 C 317.869 310.667,316.354 311.544,315.282 312.615 M316.834 377.851 C 316.009 378.485,315.090 379.904,314.792 381.002 C 314.493 382.101,314.418 390.901,314.625 400.559 L 315.000 418.118 316.871 419.726 C 319.393 421.893,322.846 421.881,325.030 419.697 L 326.667 418.061 326.667 400.463 C 326.667 389.634,326.391 382.075,325.950 380.810 C 324.613 376.975,319.941 375.458,316.834 377.851 " stroke="none" fill-rule="evenodd" ></path></svg>