<svg viewBox="0 0 500 500" xmlns="http://www.w3.org/2000/svg"><path d="M43.668 6.183 C 30.789 9.125,17.834 19.448,11.650 31.699 C 8.251 38.434,6.667 45.442,6.667 53.750 C 6.667 67.952,10.797 77.700,21.153 87.936 C 28.886 95.580,33.845 98.513,42.988 100.852 C 54.973 103.917,68.921 102.247,79.044 96.536 C 85.924 92.654,95.671 82.457,99.001 75.656 C 104.205 65.030,105.456 52.810,102.518 41.321 C 100.416 33.100,97.546 27.867,91.554 21.328 C 81.597 10.462,71.794 5.860,57.500 5.340 C 51.893 5.137,46.925 5.439,43.668 6.183 M62.227 32.079 C 71.302 34.774,77.718 43.511,77.774 53.251 C 77.891 73.389,54.813 84.015,40.204 70.548 C 34.528 65.316,32.946 61.657,32.943 53.750 C 32.940 46.216,34.078 43.292,39.050 38.056 C 45.340 31.434,53.215 29.403,62.227 32.079 " stroke="none" fill="black" fill-rule="evenodd"></path></svg>