<svg viewBox="0 0 400 450" xmlns="http://www.w3.org/2000/svg"><path d="M146.615 365.949 C 144.173 368.391,144.051 371.209,146.274 373.796 L 147.882 375.667 161.287 375.872 L 174.691 376.078 176.679 374.090 C 179.785 370.984,179.200 367.000,175.347 365.007 C 173.814 364.215,170.754 364.000,160.982 364.000 L 148.564 364.000 146.615 365.949 M190.800 366.018 C 188.905 367.784,188.330 370.244,189.277 372.531 C 190.309 375.021,192.155 376.044,196.415 376.483 L 200.000 376.853 200.000 383.811 C 200.000 390.613,200.044 390.813,201.949 392.718 C 204.391 395.160,207.209 395.283,209.796 393.059 C 211.605 391.504,211.674 391.208,211.892 384.059 L 212.118 376.667 214.759 376.667 C 221.696 376.667,225.073 370.970,220.718 366.615 L 218.769 364.667 205.510 364.667 C 193.113 364.667,192.157 364.754,190.800 366.018 M236.238 365.299 C 232.390 366.929,231.572 371.675,234.615 374.718 L 236.564 376.667 248.312 376.667 C 259.897 376.667,260.083 376.644,261.697 375.030 C 264.154 372.573,264.116 369.240,261.601 366.667 C 260.006 365.034,259.743 364.997,248.819 364.847 C 242.685 364.763,237.024 364.967,236.238 365.299 M201.758 403.758 C 200.047 405.468,200.000 405.737,200.000 413.809 C 200.000 422.087,200.004 422.106,201.949 424.051 C 204.391 426.494,207.209 426.616,209.796 424.392 C 211.606 422.837,211.674 422.545,211.894 415.345 C 212.018 411.252,211.940 407.184,211.719 406.304 C 210.626 401.951,205.002 400.513,201.758 403.758 " stroke="none" fill="black" fill-rule="evenodd"></path></svg>