<svg viewBox="0 0 400 420" xmlns="http://www.w3.org/2000/svg"><path d="M146.615 365.949 C 144.173 368.391,144.051 371.209,146.274 373.796 L 147.882 375.667 161.287 375.872 L 174.691 376.078 176.679 374.090 C 179.785 370.984,179.200 367.000,175.347 365.007 C 173.814 364.215,170.754 364.000,160.982 364.000 L 148.564 364.000 146.615 365.949 M190.800 366.018 C 188.905 367.784,188.330 370.244,189.277 372.531 C 190.309 375.021,192.155 376.044,196.415 376.483 C 198.916 376.741,200.000 377.143,200.000 377.811 C 200.000 379.622,203.762 382.667,206.000 382.667 C 208.291 382.667,212.000 379.607,212.000 377.718 C 212.000 376.934,212.686 376.667,214.700 376.667 C 221.693 376.667,225.092 370.990,220.718 366.615 L 218.769 364.667 205.510 364.667 C 193.113 364.667,192.157 364.754,190.800 366.018 M236.238 365.299 C 232.390 366.929,231.572 371.675,234.615 374.718 L 236.564 376.667 248.312 376.667 C 259.897 376.667,260.083 376.644,261.697 375.030 C 264.154 372.573,264.116 369.240,261.601 366.667 C 260.006 365.034,259.743 364.997,248.819 364.847 C 242.685 364.763,237.024 364.967,236.238 365.299 M202.609 390.855 C 200.628 392.376,200.000 394.574,200.000 399.989 C 200.000 406.337,201.028 408.864,204.037 409.913 C 206.538 410.785,210.148 409.549,211.280 407.434 C 212.243 405.634,212.202 394.957,211.224 393.123 C 210.047 390.913,208.571 390.042,206.000 390.042 C 204.717 390.042,203.191 390.408,202.609 390.855 " stroke="none" fill="black" fill-rule="evenodd"></path></svg>