<?xml version="1.0" standalone="no"?>
<!DOCTYPE svg PUBLIC "-//W3C//DTD SVG 1.1//EN" "http://www.w3.org/Graphics/SVG/1.1/DTD/svg11.dtd" >
<svg xmlns="http://www.w3.org/2000/svg" xmlns:xlink="http://www.w3.org/1999/xlink" version="1.1" viewBox="-10 0 872 2048">
   <path fill="currentColor"
d="M375 1734q0 -34 23 -57t55 -23q34 0 56.5 23t22.5 57q0 32 -22.5 55t-56.5 23q-32 0 -55 -23t-23 -55zM532 1839q0 -32 24 -56t56 -24t56 24t24 56t-23.5 56t-56.5 24q-34 0 -57 -24t-23 -56zM692 1943q0 -34 24 -57t56 -23t56 24t24 56t-23.5 56t-56.5 24q-34 0 -57 -23
t-23 -57z" />
</svg>
